# Blender 3.5.1
# www.blender.org
mtllib Playground_OBJ.mtl
o Planks
v -0.652027 1.194010 0.652027
v -0.652027 1.093778 0.652027
v -0.752259 1.194010 0.652027
v -0.752259 1.093778 0.652027
v -0.652027 1.194010 -0.652027
v -0.652027 1.093778 -0.652027
v -0.752259 1.194010 -0.652027
v -0.752259 1.093778 -0.652027
v 0.782085 3.184879 -0.000577
v 0.782085 2.467503 -0.878063
v 0.782085 2.545187 -0.941533
v 0.752085 3.184879 -0.000577
v 0.752085 2.467503 -0.878063
v 0.752085 2.545187 -0.941533
v 0.782085 3.184899 -0.000474
v 0.782085 2.467503 0.878063
v 0.782085 3.314463 -0.000504
v 0.782085 2.545187 0.941533
v 0.752085 3.184899 -0.000474
v 0.752085 2.467503 0.878063
v 0.752085 3.314463 -0.000504
v 0.752085 2.545187 0.941533
v -0.752259 0.000000 0.752259
v -0.652027 0.000000 0.752259
v -0.752259 0.000000 0.652027
v -0.652027 0.000000 0.652027
v -0.752259 2.701898 0.752259
v -0.652027 2.701898 0.752259
v -0.752259 2.701898 0.652027
v -0.652027 2.701898 0.652027
v 0.752259 0.000000 0.752259
v 0.652027 0.000000 0.752259
v 0.752259 0.000000 0.652027
v 0.652027 0.000000 0.652027
v 0.752259 2.701898 0.752259
v 0.652027 2.701898 0.752259
v 0.752259 2.701898 0.652027
v 0.652027 2.701898 0.652027
v -0.752259 0.000000 -0.752259
v -0.652027 0.000000 -0.752259
v -0.752259 0.000000 -0.652027
v -0.652027 0.000000 -0.652027
v -0.752259 2.701898 -0.752259
v -0.652027 2.701898 -0.752259
v -0.752259 2.701898 -0.652027
v -0.652027 2.701898 -0.652027
v 0.752259 0.000000 -0.752259
v 0.652027 0.000000 -0.752259
v 0.752259 0.000000 -0.652027
v 0.652027 0.000000 -0.652027
v 0.752259 2.701898 -0.752259
v 0.652027 2.701898 -0.752259
v 0.752259 2.701898 -0.652027
v 0.652027 2.701898 -0.652027
v 0.652027 2.115400 0.652027
v 0.652027 2.015168 0.652027
v 0.652027 2.115400 0.551795
v 0.652027 2.015168 0.551795
v 3.187574 2.115400 0.652027
v 3.187574 2.015168 0.652027
v 3.187574 2.115400 0.551795
v 3.187574 2.015168 0.551795
v 3.187574 2.060939 0.675206
v 3.087342 2.060939 0.675206
v 3.187574 1.990065 0.604331
v 3.087342 1.990065 0.604331
v 3.187574 0.000000 1.512951
v 3.087342 0.000000 1.512951
v 3.187574 0.000000 1.412719
v 3.087342 0.000000 1.412719
v 3.187574 2.060939 0.528616
v 3.087342 2.060939 0.528616
v 3.187574 1.990065 0.599491
v 3.087342 1.990065 0.599491
v 3.187574 0.000000 -0.309129
v 3.087342 0.000000 -0.309129
v 3.187574 0.000000 -0.208897
v 3.087342 0.000000 -0.208897
v -0.652027 1.144010 0.752259
v 0.652027 1.144010 0.752259
v -0.652027 1.144010 0.552084
v 0.652027 1.144010 0.552084
v -0.652027 1.194010 0.752259
v 0.652027 1.194010 0.752259
v -0.652027 1.194010 0.552084
v 0.652027 1.194010 0.552084
v -0.652027 1.144010 0.491431
v 0.652027 1.144010 0.491431
v -0.652027 1.144010 0.291256
v 0.652027 1.144010 0.291256
v -0.652027 1.194010 0.491431
v 0.652027 1.194010 0.491431
v -0.652027 1.194010 0.291256
v 0.652027 1.194010 0.291256
v -0.652027 1.144010 0.230603
v 0.652027 1.144010 0.230603
v -0.652027 1.144010 0.030427
v 0.652027 1.144010 0.030427
v -0.652027 1.194010 0.230603
v 0.652027 1.194010 0.230603
v -0.652027 1.194010 0.030427
v 0.652027 1.194010 0.030427
v -0.652027 1.144010 -0.030226
v 0.652027 1.144010 -0.030226
v -0.652027 1.144010 -0.230401
v 0.652027 1.144010 -0.230401
v -0.652027 1.194010 -0.030226
v 0.652027 1.194010 -0.030226
v -0.652027 1.194010 -0.230401
v 0.652027 1.194010 -0.230401
v -0.652027 1.144010 -0.291054
v 0.652027 1.144010 -0.291054
v -0.652027 1.144010 -0.491229
v 0.652027 1.144010 -0.491229
v -0.652027 1.194010 -0.291054
v 0.652027 1.194010 -0.291054
v -0.652027 1.194010 -0.491229
v 0.652027 1.194010 -0.491229
v -0.652027 1.144010 -0.551882
v 0.652027 1.144010 -0.551882
v -0.652027 1.144010 -0.752057
v 0.652027 1.144010 -0.752057
v -0.652027 1.194010 -0.551882
v 0.652027 1.194010 -0.551882
v -0.652027 1.194010 -0.752057
v 0.652027 1.194010 -0.752057
v -0.752259 1.093694 0.752259
v 0.752259 1.093694 0.752259
v -0.752259 1.194010 0.752259
v 0.752259 1.194010 0.752259
v -0.752259 1.093694 0.772259
v 0.752259 1.093694 0.772259
v -0.752259 1.194010 0.772259
v 0.752259 1.194010 0.772259
v -0.752259 1.093694 -0.782259
v 0.752259 1.093694 -0.782259
v -0.752259 1.194010 -0.782259
v 0.752259 1.194010 -0.782259
v -0.752259 1.093694 -0.752259
v 0.752259 1.093694 -0.752259
v -0.752259 1.194010 -0.752259
v 0.752259 1.194010 -0.752259
v -0.752259 0.838890 -0.782259
v 0.752259 0.838891 -0.782259
v -0.752259 0.939207 -0.782259
v 0.752259 0.939207 -0.782259
v -0.752259 0.838890 -0.752259
v 0.752259 0.838891 -0.752259
v -0.752259 0.939207 -0.752259
v 0.752259 0.939207 -0.752259
v -0.752259 0.584087 -0.782259
v 0.752259 0.584088 -0.782259
v -0.752259 0.684404 -0.782259
v 0.752259 0.684404 -0.782259
v -0.752259 0.584087 -0.752259
v 0.752259 0.584088 -0.752259
v -0.752259 0.684404 -0.752259
v 0.752259 0.684404 -0.752259
v -0.752259 0.329284 -0.782259
v 0.752259 0.329284 -0.782259
v -0.752259 0.429601 -0.782259
v 0.752259 0.429601 -0.782259
v -0.752259 0.329284 -0.752259
v 0.752259 0.329284 -0.752259
v -0.752259 0.429601 -0.752259
v 0.752259 0.429601 -0.752259
v 0.752259 1.194010 0.652027
v 0.752259 1.093778 0.652027
v 0.652027 1.194010 0.652027
v 0.652027 1.093778 0.652027
v 0.752259 1.194010 -0.652027
v 0.752259 1.093778 -0.652027
v 0.652027 1.194010 -0.652027
v 0.652027 1.093778 -0.652027
v -0.669192 1.842821 0.652027
v -0.669192 1.776919 0.652027
v -0.735094 1.842821 0.652027
v -0.735094 1.776919 0.652027
v -0.669192 1.842821 -0.652027
v -0.669192 1.776919 -0.652027
v -0.735094 1.842821 -0.652027
v -0.735094 1.776919 -0.652027
v 0.669192 1.842821 0.652027
v 0.669192 1.776919 0.652027
v 0.735094 1.842821 0.652027
v 0.735094 1.776919 0.652027
v 0.669193 1.842821 -0.652027
v 0.669193 1.776919 -0.652027
v 0.735094 1.842821 -0.652027
v 0.735094 1.776919 -0.652027
v 0.752085 3.314437 -0.000474
v 0.782085 3.314437 -0.000474
v -0.752241 3.184879 -0.000577
v -0.752241 2.467503 -0.878063
v -0.752241 2.545187 -0.941533
v -0.782241 3.184879 -0.000577
v -0.782241 2.467503 -0.878063
v -0.782241 2.545187 -0.941533
v -0.752241 3.184899 -0.000474
v -0.752241 2.467503 0.878063
v -0.752241 3.314463 -0.000504
v -0.752241 2.545187 0.941533
v -0.782241 3.184899 -0.000474
v -0.782241 2.467503 0.878063
v -0.782241 3.314463 -0.000504
v -0.782241 2.545187 0.941533
v -0.782241 3.314437 -0.000474
v -0.752241 3.314437 -0.000474
vn -0.0000 -0.0000 1.0000
vn -0.0000 -0.0000 -1.0000
vn -0.0000 -1.0000 -0.0000
vn -0.0000 1.0000 -0.0000
vn -1.0000 -0.0000 -0.0000
vn 1.0000 -0.0000 -0.0000
vn -0.0000 0.7742 -0.6329
vn -0.0000 -0.7742 0.6329
vn -0.0000 -0.6327 -0.7744
vn -0.0000 0.7746 0.6325
vn -0.0000 -0.7746 -0.6325
vn -0.0000 -0.6327 0.7744
vn -0.0000 0.7071 -0.7071
vn -0.0000 -0.3763 -0.9265
vn -0.0000 0.3766 0.9264
vn -0.0000 0.7071 0.7071
vn -0.0000 -0.3763 0.9265
vn -0.0000 0.3766 -0.9264
vn -0.0000 -0.0006 1.0000
vt 0.371672 0.836665
vt 0.342064 0.532238
vt 0.002498 0.536256
vt 0.391138 0.836665
vt 0.297837 0.532238
vt 0.022113 0.536256
vt 0.371672 0.817050
vt 0.322449 0.532238
vt 0.051721 0.791459
vt 0.391138 0.817050
vt 0.317453 0.532238
vt 0.071337 0.791459
vt 0.322449 0.836665
vt 0.342064 0.787442
vt 0.002498 0.791459
vt 0.322449 0.817050
vt 0.297837 0.787442
vt 0.022113 0.791459
vt 0.342064 0.836665
vt 0.322449 0.787442
vt 0.051721 0.536256
vt 0.342064 0.817050
vt 0.317453 0.787442
vt 0.071337 0.536256
vt 0.248750 0.758063
vt 0.874009 0.262698
vt 0.745968 0.807709
vt 0.248743 0.536256
vt 0.874009 0.434422
vt 0.612486 0.822328
vt 0.268375 0.536261
vt 0.470151 0.763901
vt 0.612486 0.837531
vt 0.224122 0.552317
vt 0.879880 0.262698
vt 0.740097 0.807709
vt 0.224115 0.774125
vt 0.879880 0.434422
vt 0.618357 0.822328
vt 0.243747 0.774119
vt 0.476022 0.763901
vt 0.618357 0.837531
vt 0.125596 0.552290
vt 0.869012 0.262698
vt 0.481018 0.763901
vt 0.125600 0.774260
vt 0.869012 0.434628
vt 0.577224 0.822328
vt 0.268375 0.774125
vt 0.470151 0.948060
vt 0.745968 0.832877
vt 0.145232 0.774265
vt 0.925283 0.887418
vt 0.577224 0.838943
vt 0.150228 0.758230
vt 0.863141 0.262698
vt 0.486889 0.763901
vt 0.150231 0.536261
vt 0.863141 0.434628
vt 0.571353 0.822328
vt 0.243747 0.536256
vt 0.476022 0.948060
vt 0.740097 0.832877
vt 0.169863 0.536256
vt 0.931154 0.887418
vt 0.571353 0.838943
vt 0.396416 0.822747
vt 0.095948 0.002498
vt 0.322449 0.002498
vt 0.416032 0.822747
vt 0.174779 0.002498
vt 0.342064 0.002498
vt 0.396416 0.803131
vt 0.076333 0.002498
vt 0.273226 0.531260
vt 0.416032 0.803131
vt 0.194395 0.002498
vt 0.292841 0.531260
vt 0.366676 0.812054
vt 0.095948 0.531260
vt 0.322449 0.527242
vt 0.347060 0.812054
vt 0.174779 0.531260
vt 0.342064 0.527242
vt 0.366676 0.792438
vt 0.076333 0.531260
vt 0.273226 0.002498
vt 0.347060 0.792438
vt 0.194395 0.531260
vt 0.292841 0.002498
vt 0.046725 0.816071
vt 0.051721 0.002498
vt 0.366676 0.002498
vt 0.027110 0.816071
vt 0.046725 0.002498
vt 0.347060 0.002498
vt 0.046725 0.796455
vt 0.071337 0.002498
vt 0.224002 0.002498
vt 0.027110 0.796455
vt 0.027110 0.002498
vt 0.243618 0.002498
vt 0.051721 0.816071
vt 0.051721 0.531260
vt 0.366676 0.527242
vt 0.071337 0.816071
vt 0.046725 0.531260
vt 0.347060 0.527242
vt 0.051721 0.796455
vt 0.071337 0.531260
vt 0.224002 0.531260
vt 0.071337 0.796455
vt 0.027110 0.531260
vt 0.243618 0.531260
vt 0.286268 0.796455
vt 0.100945 0.002498
vt 0.248614 0.531260
vt 0.286268 0.816071
vt 0.169783 0.002498
vt 0.268229 0.531260
vt 0.266653 0.796455
vt 0.120560 0.002498
vt 0.297837 0.002498
vt 0.266653 0.816071
vt 0.150168 0.002498
vt 0.317453 0.002498
vt 0.022113 0.816071
vt 0.100944 0.531260
vt 0.248614 0.002498
vt 0.022113 0.796455
vt 0.169783 0.531260
vt 0.268229 0.002498
vt 0.002498 0.816071
vt 0.120560 0.531260
vt 0.297837 0.527242
vt 0.002498 0.796455
vt 0.150168 0.531260
vt 0.317453 0.527242
vt 0.342064 0.792438
vt 0.022114 0.002498
vt 0.199391 0.002498
vt 0.322449 0.792438
vt 0.125556 0.002498
vt 0.219006 0.002498
vt 0.342064 0.812054
vt 0.002498 0.002498
vt 0.391287 0.002498
vt 0.322449 0.812054
vt 0.145171 0.002498
vt 0.371672 0.002498
vt 0.391287 0.812053
vt 0.022113 0.531260
vt 0.199391 0.531260
vt 0.371672 0.812053
vt 0.125556 0.531260
vt 0.219006 0.531260
vt 0.391287 0.792438
vt 0.002498 0.531260
vt 0.391287 0.527242
vt 0.371672 0.792438
vt 0.145171 0.531260
vt 0.371672 0.527242
vt 0.317453 0.836665
vt 0.440510 0.002498
vt 0.470118 0.002498
vt 0.317453 0.817050
vt 0.465122 0.498705
vt 0.489585 0.002498
vt 0.297837 0.836665
vt 0.420895 0.002498
vt 0.415899 0.002498
vt 0.297837 0.817050
vt 0.445507 0.498705
vt 0.396284 0.002498
vt 0.715485 0.827324
vt 0.440511 0.498705
vt 0.470118 0.498705
vt 0.715485 0.807709
vt 0.465122 0.002498
vt 0.489585 0.498705
vt 0.735100 0.827324
vt 0.420895 0.498705
vt 0.415899 0.498705
vt 0.735100 0.807709
vt 0.445507 0.002498
vt 0.396284 0.498705
vt 0.828442 0.442868
vt 0.847278 0.002498
vt 0.833439 0.442868
vt 0.808827 0.442868
vt 0.800943 0.437872
vt 0.853054 0.442868
vt 0.829206 0.010124
vt 0.828442 0.456738
vt 0.782871 0.430246
vt 0.808827 0.456738
vt 0.297837 0.812054
vt 0.847278 0.437872
vt 0.833438 0.822959
vt 0.297837 0.792438
vt 0.800943 0.002498
vt 0.853054 0.822959
vt 0.317453 0.812054
vt 0.829107 0.430485
vt 0.828442 0.846193
vt 0.317453 0.792438
vt 0.782771 0.009885
vt 0.808827 0.846193
vt 0.753967 0.783097
vt 0.777775 0.437872
vt 0.784215 0.846195
vt 0.753967 0.802713
vt 0.824110 0.002498
vt 0.803831 0.846195
vt 0.740096 0.783097
vt 0.759703 0.430246
vt 0.779219 0.848829
vt 0.740096 0.802713
vt 0.806038 0.010124
vt 0.759604 0.848829
vt 0.715485 0.783097
vt 0.777775 0.002498
vt 0.784215 0.442868
vt 0.715485 0.802713
vt 0.824110 0.437872
vt 0.803831 0.442868
vt 0.735100 0.783097
vt 0.759604 0.009885
vt 0.779219 0.442868
vt 0.735100 0.802713
vt 0.805939 0.430485
vt 0.759604 0.442868
vt 0.715433 0.262698
vt 0.695708 0.822271
vt 0.942114 0.002498
vt 0.715433 0.517901
vt 0.710489 0.783097
vt 0.942114 0.257702
vt 0.754607 0.262698
vt 0.695708 0.783097
vt 0.915290 0.698072
vt 0.754607 0.517901
vt 0.710489 0.822271
vt 0.915290 0.442868
vt 0.671263 0.517901
vt 0.685923 0.822271
vt 0.932404 0.002498
vt 0.671263 0.262698
vt 0.700704 0.783097
vt 0.932404 0.257702
vt 0.710437 0.517901
vt 0.685923 0.783097
vt 0.905505 0.698072
vt 0.710437 0.262698
vt 0.700704 0.822271
vt 0.905505 0.442868
vt 0.627092 0.002498
vt 0.199425 0.818296
vt 0.900435 0.703068
vt 0.627092 0.257702
vt 0.214207 0.779121
vt 0.900435 0.958271
vt 0.666267 0.002498
vt 0.199425 0.779121
vt 0.897845 0.257702
vt 0.666267 0.257702
vt 0.214207 0.818296
vt 0.897845 0.002498
vt 0.582922 0.257702
vt 0.189640 0.818296
vt 0.890724 0.703068
vt 0.582922 0.002498
vt 0.204422 0.779121
vt 0.890724 0.958271
vt 0.622096 0.257702
vt 0.189640 0.779121
vt 0.888060 0.257702
vt 0.622096 0.002498
vt 0.204422 0.818296
vt 0.888060 0.002498
vt 0.671263 0.002498
vt 0.110749 0.818435
vt 0.944704 0.442868
vt 0.671263 0.257702
vt 0.135381 0.779261
vt 0.944704 0.698071
vt 0.710437 0.002498
vt 0.110749 0.779261
vt 0.875943 0.442868
vt 0.710437 0.257702
vt 0.135381 0.818435
vt 0.875943 0.698072
vt 0.538751 0.517901
vt 0.100964 0.818435
vt 0.934993 0.442868
vt 0.538751 0.262698
vt 0.125596 0.779261
vt 0.934993 0.698071
vt 0.577926 0.517901
vt 0.100964 0.779261
vt 0.885728 0.442868
vt 0.577926 0.262698
vt 0.125596 0.818435
vt 0.885728 0.698072
vt 0.582922 0.262698
vt 0.258528 0.818295
vt 0.867761 0.703068
vt 0.582922 0.517901
vt 0.086118 0.779261
vt 0.867761 0.958271
vt 0.622096 0.262698
vt 0.258528 0.779121
vt 0.927408 0.257702
vt 0.622096 0.517901
vt 0.086118 0.818435
vt 0.927408 0.002498
vt 0.577926 0.002498
vt 0.248743 0.818295
vt 0.858050 0.703068
vt 0.577926 0.257702
vt 0.076333 0.779261
vt 0.858050 0.958271
vt 0.538751 0.002498
vt 0.248743 0.779121
vt 0.917623 0.257702
vt 0.538751 0.257702
vt 0.076333 0.818435
vt 0.917623 0.002498
vt 0.715433 0.002498
vt 0.160013 0.818435
vt 0.929997 0.442868
vt 0.715433 0.257702
vt 0.233900 0.779121
vt 0.929997 0.698071
vt 0.754607 0.002498
vt 0.160013 0.779261
vt 0.912627 0.257702
vt 0.754607 0.257702
vt 0.233900 0.818295
vt 0.912627 0.002498
vt 0.666266 0.262698
vt 0.150228 0.818435
vt 0.920287 0.442868
vt 0.666266 0.517901
vt 0.224115 0.779121
vt 0.920287 0.698071
vt 0.627092 0.262698
vt 0.150228 0.779261
vt 0.902842 0.257702
vt 0.627092 0.517901
vt 0.224115 0.818295
vt 0.902842 0.002498
vt 0.494581 0.002498
vt 0.528994 0.822271
vt 0.956821 0.002498
vt 0.494581 0.257702
vt 0.184644 0.779121
vt 0.956821 0.257702
vt 0.533755 0.002498
vt 0.528994 0.783097
vt 0.900509 0.698072
vt 0.533755 0.257702
vt 0.184644 0.818295
vt 0.900509 0.442868
vt 0.494581 0.517901
vt 0.519209 0.822271
vt 0.947111 0.002498
vt 0.494581 0.262698
vt 0.174859 0.779121
vt 0.947111 0.257702
vt 0.533755 0.517901
vt 0.519209 0.783097
vt 0.890724 0.698072
vt 0.533755 0.262698
vt 0.174859 0.818295
vt 0.890724 0.442868
vt 0.558383 0.817332
vt 0.997083 0.442868
vt 0.238897 0.779121
vt 0.558383 0.522897
vt 0.997083 0.737302
vt 0.095028 0.779261
vt 0.538751 0.817332
vt 0.909419 0.997502
vt 0.238897 0.798753
vt 0.538751 0.522897
vt 0.909419 0.703068
vt 0.095028 0.798893
vt 0.656448 0.522897
vt 0.993169 0.442868
vt 0.242811 0.779121
vt 0.656448 0.817332
vt 0.993169 0.737302
vt 0.091114 0.779261
vt 0.636965 0.522897
vt 0.905505 0.997502
vt 0.242811 0.798753
vt 0.636965 0.817332
vt 0.905505 0.703068
vt 0.091114 0.798893
vt 0.583011 0.817332
vt 0.960567 0.737302
vt 0.505448 0.822328
vt 0.583011 0.522897
vt 0.960567 0.442868
vt 0.500452 0.822328
vt 0.563379 0.817332
vt 0.982302 0.442868
vt 0.505448 0.841960
vt 0.563379 0.522897
vt 0.982302 0.737302
vt 0.500452 0.841960
vt 0.680927 0.522897
vt 0.966438 0.737302
vt 0.511319 0.822328
vt 0.680927 0.817332
vt 0.966438 0.442868
vt 0.494581 0.822328
vt 0.661444 0.522897
vt 0.988173 0.442868
vt 0.511319 0.841960
vt 0.661444 0.817332
vt 0.988173 0.737302
vt 0.494581 0.841960
vt 0.465155 0.798135
vt 0.949700 0.737302
vt 0.062798 0.821067
vt 0.465155 0.503701
vt 0.949700 0.442868
vt 0.544622 0.822328
vt 0.445523 0.798135
vt 0.972684 0.002498
vt 0.062798 0.840699
vt 0.445523 0.503701
vt 0.972684 0.296932
vt 0.544622 0.841960
vt 0.415899 0.503701
vt 0.955571 0.737302
vt 0.068669 0.821067
vt 0.415899 0.798135
vt 0.955571 0.442868
vt 0.538751 0.822328
vt 0.396416 0.503701
vt 0.978555 0.002498
vt 0.068669 0.840699
vt 0.396416 0.798135
vt 0.978555 0.296932
vt 0.538751 0.841960
vt 0.494581 0.522897
vt 0.961817 0.296932
vt 0.560486 0.822328
vt 0.494581 0.817332
vt 0.961817 0.002498
vt 0.555489 0.822328
vt 0.514213 0.522897
vt 0.879857 0.703068
vt 0.560486 0.841960
vt 0.514213 0.817332
vt 0.879857 0.997502
vt 0.555489 0.841960
vt 0.612486 0.817332
vt 0.967688 0.296932
vt 0.566357 0.822328
vt 0.612486 0.522897
vt 0.967688 0.002498
vt 0.549618 0.822328
vt 0.631969 0.817332
vt 0.885728 0.703068
vt 0.566357 0.841960
vt 0.631969 0.522897
vt 0.885728 0.997502
vt 0.549618 0.841960
vt 0.420895 0.503701
vt 0.971434 0.737302
vt 0.284448 0.821067
vt 0.420895 0.798135
vt 0.971434 0.442868
vt 0.366676 0.817050
vt 0.440527 0.503701
vt 0.983552 0.002498
vt 0.284448 0.840699
vt 0.440527 0.798135
vt 0.983552 0.296932
vt 0.366676 0.836682
vt 0.588007 0.817332
vt 0.977305 0.737302
vt 0.290319 0.821067
vt 0.588007 0.522897
vt 0.977305 0.442868
vt 0.360805 0.817050
vt 0.607490 0.817332
vt 0.989423 0.002498
vt 0.290319 0.840699
vt 0.607490 0.522897
vt 0.989423 0.296932
vt 0.360805 0.836682
vt 0.445639 0.822747
vt 0.685923 0.778101
vt 0.371672 0.532238
vt 0.465106 0.822747
vt 0.730150 0.778101
vt 0.391287 0.532238
vt 0.445639 0.803131
vt 0.705538 0.778101
vt 0.347060 0.787442
vt 0.465106 0.803131
vt 0.710534 0.778101
vt 0.366676 0.787442
vt 0.421028 0.822747
vt 0.685923 0.522897
vt 0.371672 0.787442
vt 0.421028 0.803131
vt 0.730150 0.522897
vt 0.391287 0.787442
vt 0.440643 0.822747
vt 0.705538 0.522897
vt 0.347060 0.532238
vt 0.440643 0.803131
vt 0.710534 0.522897
vt 0.366676 0.532238
vt 0.266653 0.833964
vt 0.470151 0.758905
vt 0.273371 0.536256
vt 0.279452 0.833964
vt 0.532106 0.778101
vt 0.286268 0.536256
vt 0.266653 0.821067
vt 0.483048 0.758905
vt 0.858050 0.698071
vt 0.279452 0.821067
vt 0.519209 0.778101
vt 0.870947 0.698071
vt 0.015395 0.833964
vt 0.470151 0.503701
vt 0.273371 0.791459
vt 0.002498 0.833964
vt 0.532106 0.522897
vt 0.286268 0.791459
vt 0.015395 0.821067
vt 0.483048 0.503701
vt 0.858050 0.442868
vt 0.002498 0.821067
vt 0.519209 0.522897
vt 0.870947 0.442868
vt 0.045003 0.821067
vt 0.040007 0.791459
vt 0.870167 0.257702
vt 0.057802 0.821067
vt 0.735146 0.778101
vt 0.883064 0.257702
vt 0.045003 0.833964
vt 0.027110 0.791459
vt 0.852274 0.002498
vt 0.057802 0.833964
vt 0.748043 0.778101
vt 0.865171 0.002498
vt 0.040007 0.833964
vt 0.040007 0.536256
vt 0.870167 0.002498
vt 0.040007 0.821067
vt 0.735146 0.522897
vt 0.883064 0.002498
vt 0.027110 0.833964
vt 0.027110 0.536256
vt 0.852274 0.257702
vt 0.027110 0.821067
vt 0.748043 0.522897
vt 0.865171 0.257702
vt 0.169863 0.774265
vt 0.931154 0.703068
vt 0.486889 0.789251
vt 0.145232 0.536256
vt 0.925283 0.703068
vt 0.481018 0.789251
vt 0.199494 0.758064
vt 0.884876 0.262698
vt 0.352931 0.817050
vt 0.199487 0.536256
vt 0.884876 0.434422
vt 0.601619 0.822328
vt 0.219119 0.536261
vt 0.936150 0.703068
vt 0.601619 0.837531
vt 0.174866 0.552317
vt 0.890747 0.262698
vt 0.347060 0.817050
vt 0.174859 0.774125
vt 0.890747 0.434422
vt 0.607490 0.822328
vt 0.194491 0.774120
vt 0.942021 0.703068
vt 0.607490 0.837531
vt 0.076333 0.552290
vt 0.858145 0.262698
vt 0.481018 0.794247
vt 0.076336 0.774260
vt 0.858145 0.434628
vt 0.593878 0.822328
vt 0.219119 0.774125
vt 0.936150 0.887227
vt 0.352931 0.842218
vt 0.095968 0.774265
vt 0.914416 0.887418
vt 0.593878 0.838943
vt 0.100964 0.758230
vt 0.852274 0.262698
vt 0.486889 0.794247
vt 0.100968 0.536261
vt 0.852274 0.434628
vt 0.588007 0.822328
vt 0.194491 0.536256
vt 0.942021 0.887227
vt 0.347060 0.842218
vt 0.120600 0.536256
vt 0.920287 0.887418
vt 0.588007 0.838943
vt 0.120600 0.774265
vt 0.920287 0.703068
vt 0.486889 0.819598
vt 0.095968 0.536256
vt 0.914416 0.703068
vt 0.481018 0.819598
s 0
usemtl Wood
f 1/1/1 3/7/1 4/10/1 2/4/1
f 5/13/2 6/16/2 8/22/2 7/19/2
f 2/5/3 4/11/3 8/23/3 6/17/3
f 3/8/4 1/2/4 5/14/4 7/20/4
f 4/12/5 3/9/5 7/21/5 8/24/5
f 1/3/6 2/6/6 6/18/6 5/15/6
f 9/25/6 10/28/6 11/31/6 17/49/6
f 12/34/5 21/61/5 14/40/5 13/37/5
f 11/32/7 14/41/7 21/62/7 17/50/7
f 9/26/8 12/35/8 13/38/8 10/29/8
f 10/30/9 13/39/9 14/42/9 11/33/9
f 15/43/6 192/572/6 18/52/6 16/46/6
f 19/55/5 20/58/5 22/64/5 191/569/5
f 18/53/10 192/573/10 191/570/10 22/65/10
f 15/44/11 16/47/11 20/59/11 19/56/11
f 16/48/12 18/54/12 22/66/12 20/60/12
f 23/67/3 25/73/3 26/76/3 24/70/3
f 27/79/4 28/82/4 30/88/4 29/85/4
f 24/71/6 26/77/6 30/89/6 28/83/6
f 25/74/5 23/68/5 27/80/5 29/86/5
f 26/78/2 25/75/2 29/87/2 30/90/2
f 23/69/1 24/72/1 28/84/1 27/81/1
f 31/91/3 32/94/3 34/100/3 33/97/3
f 35/103/4 37/109/4 38/112/4 36/106/4
f 32/95/5 36/107/5 38/113/5 34/101/5
f 33/98/6 37/110/6 35/104/6 31/92/6
f 34/102/2 38/114/2 37/111/2 33/99/2
f 31/93/1 35/105/1 36/108/1 32/96/1
f 39/115/3 40/118/3 42/124/3 41/121/3
f 43/127/4 45/133/4 46/136/4 44/130/4
f 40/119/6 44/131/6 46/137/6 42/125/6
f 41/122/5 45/134/5 43/128/5 39/116/5
f 42/126/1 46/138/1 45/135/1 41/123/1
f 39/117/2 43/129/2 44/132/2 40/120/2
f 47/139/3 49/145/3 50/148/3 48/142/3
f 51/151/4 52/154/4 54/160/4 53/157/4
f 48/143/5 50/149/5 54/161/5 52/155/5
f 49/146/6 47/140/6 51/152/6 53/158/6
f 50/150/1 49/147/1 53/159/1 54/162/1
f 47/141/2 48/144/2 52/156/2 51/153/2
f 55/163/5 57/169/5 58/172/5 56/166/5
f 59/175/6 60/178/6 62/184/6 61/181/6
f 56/167/3 58/173/3 62/185/3 60/179/3
f 57/170/4 55/164/4 59/176/4 61/182/4
f 58/174/2 57/171/2 61/183/2 62/186/2
f 55/165/1 56/168/1 60/180/1 59/177/1
f 63/187/13 65/194/13 66/196/13 64/190/13
f 67/197/3 68/200/3 70/206/3 69/203/3
f 64/191/5 66/195/5 70/207/5 68/201/5
f 65/193/6 63/188/6 67/198/6 69/204/6
f 66/196/14 65/194/14 69/205/14 70/208/14
f 63/189/15 64/192/15 68/202/15 67/199/15
f 71/209/16 72/212/16 74/218/16 73/215/16
f 75/221/3 77/227/3 78/230/3 76/224/3
f 72/213/5 76/225/5 78/231/5 74/219/5
f 73/216/6 77/228/6 75/222/6 71/210/6
f 74/220/17 78/232/17 77/229/17 73/217/17
f 71/211/18 75/223/18 76/226/18 72/214/18
f 79/233/3 81/239/3 82/242/3 80/236/3
f 83/245/4 84/248/4 86/254/4 85/251/4
f 80/237/6 82/243/6 86/255/6 84/249/6
f 81/240/5 79/234/5 83/246/5 85/252/5
f 82/244/2 81/241/2 85/253/2 86/256/2
f 79/235/1 80/238/1 84/250/1 83/247/1
f 87/257/3 89/263/3 90/266/3 88/260/3
f 91/269/4 92/272/4 94/278/4 93/275/4
f 88/261/6 90/267/6 94/279/6 92/273/6
f 89/264/5 87/258/5 91/270/5 93/276/5
f 90/268/2 89/265/2 93/277/2 94/280/2
f 87/259/1 88/262/1 92/274/1 91/271/1
f 95/281/3 97/287/3 98/290/3 96/284/3
f 99/293/4 100/296/4 102/302/4 101/299/4
f 96/285/6 98/291/6 102/303/6 100/297/6
f 97/288/5 95/282/5 99/294/5 101/300/5
f 98/292/2 97/289/2 101/301/2 102/304/2
f 95/283/1 96/286/1 100/298/1 99/295/1
f 103/305/3 105/311/3 106/314/3 104/308/3
f 107/317/4 108/320/4 110/326/4 109/323/4
f 104/309/6 106/315/6 110/327/6 108/321/6
f 105/312/5 103/306/5 107/318/5 109/324/5
f 106/316/2 105/313/2 109/325/2 110/328/2
f 103/307/1 104/310/1 108/322/1 107/319/1
f 111/329/3 113/335/3 114/338/3 112/332/3
f 115/341/4 116/344/4 118/350/4 117/347/4
f 112/333/6 114/339/6 118/351/6 116/345/6
f 113/336/5 111/330/5 115/342/5 117/348/5
f 114/340/2 113/337/2 117/349/2 118/352/2
f 111/331/1 112/334/1 116/346/1 115/343/1
f 119/353/3 121/359/3 122/362/3 120/356/3
f 123/365/4 124/368/4 126/374/4 125/371/4
f 120/357/6 122/363/6 126/375/6 124/369/6
f 121/360/5 119/354/5 123/366/5 125/372/5
f 122/364/2 121/361/2 125/373/2 126/376/2
f 119/355/1 120/358/1 124/370/1 123/367/1
f 127/377/2 129/383/2 130/386/2 128/380/2
f 131/389/1 132/392/1 134/398/1 133/395/1
f 130/387/4 129/384/4 133/396/4 134/399/4
f 127/378/3 128/381/3 132/393/3 131/390/3
f 128/382/6 130/388/6 134/400/6 132/394/6
f 129/385/5 127/379/5 131/391/5 133/397/5
f 135/401/2 137/407/2 138/410/2 136/404/2
f 139/413/1 140/416/1 142/422/1 141/419/1
f 138/411/4 137/408/4 141/420/4 142/423/4
f 135/402/3 136/405/3 140/417/3 139/414/3
f 136/406/6 138/412/6 142/424/6 140/418/6
f 137/409/5 135/403/5 139/415/5 141/421/5
f 143/425/2 145/431/2 146/434/2 144/428/2
f 147/437/1 148/440/1 150/446/1 149/443/1
f 146/435/4 145/432/4 149/444/4 150/447/4
f 143/426/3 144/429/3 148/441/3 147/438/3
f 144/430/6 146/436/6 150/448/6 148/442/6
f 145/433/5 143/427/5 147/439/5 149/445/5
f 151/449/2 153/455/2 154/458/2 152/452/2
f 155/461/1 156/464/1 158/470/1 157/467/1
f 154/459/4 153/456/4 157/468/4 158/471/4
f 151/450/3 152/453/3 156/465/3 155/462/3
f 152/454/6 154/460/6 158/472/6 156/466/6
f 153/457/5 151/451/5 155/463/5 157/469/5
f 159/473/2 161/479/2 162/482/2 160/476/2
f 163/485/1 164/488/1 166/494/1 165/491/1
f 162/483/4 161/480/4 165/492/4 166/495/4
f 159/474/3 160/477/3 164/489/3 163/486/3
f 160/478/6 162/484/6 166/496/6 164/490/6
f 161/481/5 159/475/5 163/487/5 165/493/5
f 167/497/1 169/503/1 170/506/1 168/500/1
f 171/509/2 172/512/2 174/518/2 173/515/2
f 168/501/3 170/507/3 174/519/3 172/513/3
f 169/504/4 167/498/4 171/510/4 173/516/4
f 170/508/5 169/505/5 173/517/5 174/520/5
f 167/499/6 168/502/6 172/514/6 171/511/6
f 175/521/1 177/527/1 178/530/1 176/524/1
f 179/533/2 180/536/2 182/542/2 181/539/2
f 176/525/3 178/531/3 182/543/3 180/537/3
f 177/528/4 175/522/4 179/534/4 181/540/4
f 178/532/5 177/529/5 181/541/5 182/544/5
f 175/523/6 176/526/6 180/538/6 179/535/6
f 183/545/1 184/548/1 186/554/1 185/551/1
f 187/557/2 189/563/2 190/566/2 188/560/2
f 184/549/3 188/561/3 190/567/3 186/555/3
f 185/552/4 189/564/4 187/558/4 183/546/4
f 186/556/6 190/568/6 189/565/6 185/553/6
f 183/547/5 187/559/5 188/562/5 184/550/5
f 12/36/19 9/27/19 17/51/19 21/63/19
f 15/45/2 19/57/2 191/571/2 192/574/2
f 193/575/6 194/578/6 195/581/6 201/599/6
f 196/584/5 205/611/5 198/590/5 197/587/5
f 195/582/7 198/591/7 205/612/7 201/600/7
f 193/576/8 196/585/8 197/588/8 194/579/8
f 194/580/9 197/589/9 198/592/9 195/583/9
f 199/593/6 208/620/6 202/602/6 200/596/6
f 203/605/5 204/608/5 206/614/5 207/617/5
f 202/603/10 208/621/10 207/618/10 206/615/10
f 199/594/11 200/597/11 204/609/11 203/606/11
f 200/598/12 202/604/12 206/616/12 204/610/12
f 196/586/19 193/577/19 201/601/19 205/613/19
f 199/595/2 203/607/2 207/619/2 208/622/2
o Swing
v 1.631544 0.427740 0.493153
v 1.608711 0.417429 0.705305
v 1.631544 0.427740 0.705305
v 1.608711 0.417429 0.493153
v 1.501159 0.406574 0.705305
v 1.501159 0.406574 0.493153
v 1.663453 0.476893 0.493153
v 1.663453 0.476893 0.705305
v 1.370774 0.427740 0.493153
v 1.393607 0.417429 0.705305
v 1.370774 0.427740 0.705305
v 1.393607 0.417429 0.493153
v 1.338865 0.476893 0.493153
v 1.338865 0.476893 0.705305
v 1.647832 0.408775 0.493153
v 1.615195 0.393284 0.705305
v 1.647832 0.408775 0.705305
v 1.615195 0.393284 0.493153
v 1.501159 0.381574 0.705305
v 1.501159 0.381574 0.493153
v 1.684421 0.463280 0.493153
v 1.684421 0.463280 0.705305
v 1.354486 0.408775 0.493153
v 1.387123 0.393284 0.705305
v 1.354486 0.408775 0.705305
v 1.387123 0.393284 0.493153
v 1.317896 0.463280 0.493153
v 1.317896 0.463280 0.705305
vn -0.1004 0.9949 -0.0000
vn -0.4116 0.9114 -0.0000
vn -0.8388 0.5445 -0.0000
vn 0.1004 0.9949 -0.0000
vn 0.4116 0.9114 -0.0000
vn 0.8388 0.5445 -0.0000
vn 0.1022 -0.9948 -0.0000
vn 0.4288 -0.9034 -0.0000
vn 0.8303 -0.5574 -0.0000
vn -0.1022 -0.9948 -0.0000
vn -0.4288 -0.9034 -0.0000
vn -0.8303 -0.5574 -0.0000
vn -0.0000 -0.0000 -1.0000
vn -0.0000 -0.0000 1.0000
vn 0.5445 0.8388 -0.0000
vn -0.5445 0.8388 -0.0000
vt 0.345104 0.498509
vt 0.919906 0.508651
vt 0.688850 0.459822
vt 0.747850 0.123126
vt 0.688850 0.498509
vt 0.764558 0.086130
vt 0.345104 0.459822
vt 0.903199 0.471655
vt 0.688850 0.284694
vt 0.730262 0.297390
vt 0.345104 0.284694
vt 0.885611 0.297390
vt 0.345104 0.559120
vt 0.999548 0.560353
vt 0.688850 0.559120
vt 0.844199 0.034428
vt 0.345104 0.078853
vt 0.919906 0.086130
vt 0.688851 0.113656
vt 0.747850 0.471655
vt 0.688851 0.078853
vt 0.764558 0.508651
vt 0.345104 0.113656
vt 0.903199 0.123126
vt 0.345104 0.036762
vt 0.999548 0.034428
vt 0.688851 0.036762
vt 0.844199 0.560353
vt 0.000452 0.059738
vt 0.889177 0.535043
vt 0.344199 0.112618
vt 0.708729 0.112618
vt 0.344199 0.059738
vt 0.733828 0.059738
vt 0.000452 0.112618
vt 0.864078 0.482162
vt 0.344199 0.297390
vt 0.689755 0.297390
vt 0.000452 0.297390
vt 0.845104 0.297390
vt 0.000452 0.000452
vt 0.345104 0.590301
vt 0.977491 0.594329
vt 0.344199 0.000452
vt 0.688850 0.590301
vt 0.822143 0.000452
vt 0.000452 0.535043
vt 0.889177 0.059738
vt 0.344199 0.482162
vt 0.708729 0.482162
vt 0.344199 0.535043
vt 0.733828 0.535043
vt 0.000452 0.482162
vt 0.864078 0.112618
vt 0.000452 0.594329
vt 0.345104 0.000452
vt 0.977491 0.000452
vt 0.344199 0.594329
vt 0.688851 0.000452
vt 0.822143 0.594329
s 0
usemtl Rubber
f 213/631/20 210/625/20 212/629/20 214/633/20
f 212/629/21 210/625/21 211/627/21 209/623/21
f 209/623/22 211/627/22 216/637/22 215/635/22
f 213/631/23 214/633/23 220/645/23 218/641/23
f 220/645/24 217/639/24 219/643/24 218/641/24
f 217/639/25 221/647/25 222/649/25 219/643/25
f 227/659/26 228/661/26 226/657/26 224/653/26
f 226/657/27 223/651/27 225/655/27 224/653/27
f 223/651/28 229/663/28 230/666/28 225/655/28
f 227/659/29 232/671/29 234/675/29 228/661/29
f 234/675/30 232/671/30 233/673/30 231/669/30
f 231/669/31 233/673/31 236/680/31 235/677/31
f 212/630/32 209/624/32 223/652/32 226/658/32
f 210/626/33 213/632/33 227/660/33 224/654/33
f 211/628/33 210/626/33 224/654/33 225/656/33
f 214/634/32 212/630/32 226/658/32 228/662/32
f 215/635/34 216/637/34 230/667/34 229/664/34
f 216/638/33 211/628/33 225/656/33 230/668/33
f 209/624/32 215/636/32 229/665/32 223/652/32
f 217/640/32 220/646/32 234/676/32 231/670/32
f 213/632/33 218/642/33 232/672/33 227/660/33
f 218/642/33 219/644/33 233/674/33 232/672/33
f 220/646/32 214/634/32 228/662/32 234/676/32
f 222/649/35 221/647/35 235/678/35 236/681/35
f 219/644/33 222/650/33 236/682/33 233/674/33
f 221/648/32 217/640/32 231/670/32 235/679/32
o Ropes
v 1.329308 0.769422 0.592382
v 1.329308 2.041785 0.593429
v 1.335361 0.769374 0.595877
v 1.335361 2.041737 0.596924
v 1.335361 0.769278 0.602866
v 1.335361 2.041641 0.603913
v 1.329308 0.769230 0.606361
v 1.329308 2.041594 0.607408
v 1.323255 0.769278 0.602866
v 1.323255 2.041641 0.603913
v 1.323255 0.769374 0.595877
v 1.323255 2.041737 0.596924
v 1.673010 0.769422 0.592382
v 1.673010 2.041785 0.593429
v 1.666957 0.769374 0.595877
v 1.666957 2.041737 0.596924
v 1.666957 0.769278 0.602866
v 1.666957 2.041641 0.603913
v 1.673010 0.769230 0.606361
v 1.673010 2.041594 0.607408
v 1.679063 0.769278 0.602866
v 1.679063 2.041641 0.603913
v 1.679063 0.769374 0.595877
v 1.679063 2.041737 0.596924
v 1.329308 0.465425 0.521784
v 1.329308 0.779320 0.592459
v 1.335361 0.464657 0.525193
v 1.335361 0.778553 0.595869
v 1.335361 0.463122 0.532012
v 1.335361 0.777017 0.602687
v 1.329308 0.462354 0.535421
v 1.329308 0.776250 0.606097
v 1.323255 0.463122 0.532012
v 1.323255 0.777017 0.602687
v 1.323255 0.464657 0.525193
v 1.323255 0.778553 0.595869
v 1.673010 0.465425 0.521784
v 1.673010 0.780636 0.592755
v 1.666957 0.464657 0.525193
v 1.666957 0.779868 0.596165
v 1.666957 0.463122 0.532012
v 1.666957 0.778333 0.602983
v 1.673010 0.462354 0.535421
v 1.673010 0.777566 0.606393
v 1.679063 0.463122 0.532012
v 1.679063 0.778333 0.602983
v 1.679063 0.464657 0.525193
v 1.679063 0.779868 0.596165
v 1.329308 0.465425 0.676674
v 1.329308 0.779320 0.605999
v 1.335361 0.464657 0.673265
v 1.335361 0.778553 0.602589
v 1.335361 0.463122 0.666446
v 1.335361 0.777017 0.595771
v 1.329308 0.462354 0.663037
v 1.329308 0.776250 0.592361
v 1.323255 0.463122 0.666446
v 1.323255 0.777017 0.595771
v 1.323255 0.464657 0.673265
v 1.323255 0.778553 0.602589
v 1.673010 0.465425 0.676674
v 1.673010 0.776960 0.606530
v 1.666957 0.464657 0.673265
v 1.666957 0.776193 0.603121
v 1.666957 0.463122 0.666446
v 1.666957 0.774657 0.596302
v 1.673010 0.462354 0.663037
v 1.673010 0.773890 0.592893
v 1.679063 0.463122 0.666446
v 1.679063 0.774657 0.596302
v 1.679063 0.464657 0.673265
v 1.679063 0.776193 0.603121
v 1.673010 1.405603 0.592906
v 1.666957 1.405555 0.596400
v 1.666957 1.405460 0.603390
v 1.673010 1.405412 0.606884
v 1.679063 1.405460 0.603390
v 1.679063 1.405555 0.596400
v 1.666957 0.779284 0.596139
v 1.666957 0.779189 0.603128
v 1.673010 0.779141 0.606623
v 1.679063 0.779189 0.603128
v 1.679063 0.779284 0.596139
v 1.673010 0.779332 0.592644
vn 0.5000 0.0007 -0.8660
vn 1.0000 -0.0000 -0.0000
vn 0.5000 -0.0007 0.8660
vn -0.5000 -0.0007 0.8660
vn -1.0000 -0.0000 -0.0000
vn -0.5000 0.0007 -0.8660
vn 0.5000 0.1902 -0.8449
vn 0.5000 -0.1902 0.8449
vn -0.5000 -0.1902 0.8449
vn -0.5000 0.1902 -0.8449
vn 0.5000 0.1902 0.8449
vn 0.5000 -0.1902 -0.8449
vn -0.5000 -0.1902 -0.8449
vn -0.5000 0.1902 0.8449
vn 0.5000 0.0004 -0.8660
vn 0.5000 -0.0004 0.8660
vn -0.5000 -0.0004 0.8660
vn -0.5000 0.0004 -0.8660
vn -0.5000 0.0229 -0.8657
vn -0.5000 -0.0229 0.8657
vn 0.5000 -0.0229 0.8657
vn 0.5000 0.0229 -0.8657
vt 0.034600 0.000394
vt 0.046084 0.999606
vt 0.034600 0.999747
vt 0.046084 0.000253
vt 0.031855 0.000359
vt 0.031855 0.999712
vt 0.026365 0.000288
vt 0.026365 0.999641
vt 0.023620 0.000253
vt 0.035105 0.999747
vt 0.023620 0.999606
vt 0.035105 0.000394
vt 0.037850 0.999712
vt 0.037850 0.000359
vt 0.043340 0.999641
vt 0.043340 0.000288
vt 0.023115 0.999606
vt 0.011431 0.000394
vt 0.023115 0.000253
vt 0.011431 0.999747
vt 0.020370 0.999641
vt 0.020370 0.000288
vt 0.014880 0.999712
vt 0.014880 0.000359
vt 0.012136 0.999747
vt 0.000452 0.000253
vt 0.012136 0.000394
vt 0.000452 0.999606
vt 0.003197 0.000288
vt 0.003197 0.999641
vt 0.008686 0.000359
vt 0.008686 0.999712
vt 0.081044 0.252968
vt 0.069559 0.000253
vt 0.081044 0.000253
vt 0.069559 0.252968
vt 0.083789 0.252968
vt 0.083789 0.000253
vt 0.089278 0.252968
vt 0.089278 0.000253
vt 0.092023 0.252968
vt 0.080538 0.000253
vt 0.092023 0.000253
vt 0.080538 0.252968
vt 0.077794 0.000253
vt 0.077794 0.252968
vt 0.072304 0.000253
vt 0.072304 0.252968
vt 0.069054 0.254027
vt 0.057569 0.000253
vt 0.069054 0.000253
vt 0.057569 0.254027
vt 0.066309 0.254027
vt 0.066309 0.000253
vt 0.060819 0.254027
vt 0.060819 0.000253
vt 0.058074 0.254027
vt 0.046590 0.000253
vt 0.058074 0.000253
vt 0.046590 0.254027
vt 0.049335 0.000253
vt 0.049335 0.254027
vt 0.054824 0.000253
vt 0.054824 0.254027
vt 0.104013 0.000253
vt 0.092528 0.252968
vt 0.104013 0.252968
vt 0.092528 0.000253
vt 0.106758 0.000253
vt 0.106758 0.252968
vt 0.112248 0.000253
vt 0.112248 0.252968
vt 0.114992 0.000253
vt 0.103508 0.252968
vt 0.114992 0.252968
vt 0.103508 0.000253
vt 0.100763 0.252968
vt 0.100763 0.000253
vt 0.095273 0.252968
vt 0.095273 0.000253
vt 0.126477 0.000253
vt 0.137962 0.251068
vt 0.126477 0.251068
vt 0.137962 0.000253
vt 0.123732 0.000253
vt 0.123732 0.251068
vt 0.118243 0.000253
vt 0.118243 0.251068
vt 0.115498 0.000253
vt 0.126982 0.251068
vt 0.115498 0.251068
vt 0.126982 0.000253
vt 0.129727 0.251068
vt 0.129727 0.000253
vt 0.135217 0.251068
vt 0.135217 0.000253
vt 0.011431 0.500071
vt 0.023115 0.499929
vt 0.020370 0.499965
vt 0.014880 0.500035
vt 0.000452 0.499929
vt 0.012136 0.500071
vt 0.003197 0.499965
vt 0.008686 0.500035
vt 0.020171 0.991857
vt 0.014681 0.991928
vt 0.011936 0.991963
vt 0.000253 0.008037
vt 0.002998 0.008072
vt 0.008487 0.008143
vt 0.022916 0.991822
vt 0.011232 0.008178
s 0
usemtl Rope
f 237/683/36 238/685/36 240/688/36 239/687/36
f 239/687/37 240/688/37 242/690/37 241/689/37
f 241/689/38 242/690/38 244/693/38 243/691/38
f 243/692/39 244/694/39 246/696/39 245/695/39
f 245/695/40 246/696/40 248/698/40 247/697/40
f 247/697/41 248/698/41 238/686/41 237/684/41
f 309/780/41 310/781/41 252/704/41 250/701/41
f 310/781/40 311/782/40 254/706/40 252/704/40
f 311/782/39 312/784/39 256/709/39 254/706/39
f 312/783/38 313/785/38 258/712/38 256/710/38
f 313/785/37 314/786/37 260/714/37 258/712/37
f 314/786/36 309/779/36 250/702/36 260/714/36
f 261/715/42 262/717/42 264/720/42 263/719/42
f 263/719/37 264/720/37 266/722/37 265/721/37
f 265/721/43 266/722/43 268/725/43 267/723/43
f 267/724/44 268/726/44 270/728/44 269/727/44
f 269/727/40 270/728/40 272/730/40 271/729/40
f 271/729/45 272/730/45 262/718/45 261/716/45
f 273/731/45 275/735/45 276/736/45 274/733/45
f 275/735/40 277/737/40 278/738/40 276/736/40
f 277/737/44 279/739/44 280/741/44 278/738/44
f 279/740/43 281/743/43 282/744/43 280/742/43
f 281/743/37 283/745/37 284/746/37 282/744/37
f 283/745/42 273/732/42 274/734/42 284/746/42
f 285/747/46 287/751/46 288/752/46 286/749/46
f 287/751/37 289/753/37 290/754/37 288/752/37
f 289/753/47 291/755/47 292/757/47 290/754/47
f 291/756/48 293/759/48 294/760/48 292/758/48
f 293/759/40 295/761/40 296/762/40 294/760/40
f 295/761/49 285/748/49 286/750/49 296/762/49
f 297/763/49 298/765/49 300/768/49 299/767/49
f 299/767/40 300/768/40 302/770/40 301/769/40
f 301/769/48 302/770/48 304/773/48 303/771/48
f 303/772/47 304/774/47 306/776/47 305/775/47
f 305/775/37 306/776/37 308/778/37 307/777/37
f 307/777/46 308/778/46 298/766/46 297/764/46
f 319/792/50 320/794/50 309/779/50 314/786/50
f 318/791/37 319/792/37 314/786/37 313/785/37
f 317/790/51 318/791/51 313/785/51 312/783/51
f 316/788/52 317/789/52 312/784/52 311/782/52
f 315/787/40 316/788/40 311/782/40 310/781/40
f 320/793/53 315/787/53 310/781/53 309/780/53
f 249/699/54 251/703/54 315/787/54 320/793/54
f 251/703/40 253/705/40 316/788/40 315/787/40
f 253/705/55 255/707/55 317/789/55 316/788/55
f 255/708/56 257/711/56 318/791/56 317/790/56
f 257/711/37 259/713/37 319/792/37 318/791/37
f 259/713/57 249/700/57 320/794/57 319/792/57
o Slide
v 0.207347 1.330382 0.837480
v -0.207347 1.330382 0.837481
v 0.207348 0.117569 2.380785
v -0.207347 0.117473 2.380656
v 0.183942 1.236665 0.760223
v -0.000000 1.222957 0.752631
v -0.183943 1.236665 0.760224
v -0.183942 0.023187 2.302632
v 0.000000 0.009740 2.295352
v 0.183943 0.023793 2.303448
v 0.207347 0.347221 1.958267
v 0.207347 0.693969 1.608808
v 0.207347 0.946305 1.185735
v -0.207347 0.946305 1.185736
v -0.207347 0.693926 1.608751
v -0.207347 0.341634 1.950740
v 0.183942 0.852588 1.108478
v 0.183942 0.600199 1.531480
v 0.183943 0.249797 1.876016
v -0.000000 0.838967 1.100963
v 0.000000 0.586087 1.523289
v 0.000000 0.231768 1.861368
v -0.183942 0.852588 1.108478
v -0.183942 0.599935 1.531126
v -0.183942 0.244778 1.869254
v 0.225973 1.419404 0.439535
v -0.225973 1.419404 0.439535
v 0.200466 1.236753 0.439535
v -0.000000 1.223132 0.439535
v -0.200466 1.236753 0.439535
v -0.200466 1.236753 0.599918
v -0.000000 1.223132 0.596160
v 0.200466 1.236753 0.599918
v 0.225973 1.419231 0.638547
v -0.225973 1.419231 0.638547
v 0.256452 1.325582 0.834465
v -0.256452 1.325582 0.834466
v 0.256304 0.112215 2.377266
v -0.256304 0.112111 2.377126
v 0.223861 1.218036 0.751917
v -0.000000 1.212958 0.740749
v -0.223862 1.218036 0.751917
v -0.221433 0.004039 2.289997
v 0.000000 0.002228 2.278014
v 0.221434 0.004768 2.290978
v 0.256312 0.344253 1.956951
v 0.256312 0.689042 1.604769
v 0.256311 0.941376 1.181698
v -0.256311 0.941376 1.181698
v -0.256311 0.688992 1.604703
v -0.256311 0.336544 1.946565
v 0.220310 0.834180 1.093367
v 0.221543 0.582648 1.517146
v 0.220311 0.232875 1.863207
v -0.000000 0.833592 1.081336
v 0.000000 0.580692 1.503663
v 0.000000 0.225137 1.841628
v -0.220310 0.834180 1.093367
v -0.221542 0.582283 1.516655
v -0.220310 0.225787 1.853659
v 0.256388 1.413585 0.440972
v -0.256389 1.413585 0.440973
v 0.221000 1.213547 0.440443
v -0.000000 1.192132 0.439535
v -0.221000 1.213547 0.440443
v -0.221126 1.213641 0.600086
v -0.000000 1.192132 0.596160
v 0.221125 1.213641 0.600086
v 0.256497 1.413823 0.638393
v -0.256498 1.413823 0.638393
vn 0.9820 0.1681 0.0868
vn -0.9821 0.1661 0.0890
vn -0.1053 0.8822 0.4589
vn 0.0825 0.8873 0.4538
vn 0.0801 0.6696 0.7384
vn 0.0852 0.8550 0.5115
vn 0.0810 0.6877 0.7215
vn -0.0801 0.6696 0.7384
vn -0.0863 0.8552 0.5111
vn -0.1048 0.6919 0.7143
vn -0.9816 0.1284 0.1416
vn -0.9815 0.1643 0.0980
vn -0.9826 0.1309 0.1315
vn 0.9816 0.1284 0.1416
vn 0.9816 0.1640 0.0979
vn 0.9825 0.1291 0.1342
vn 0.0678 0.9977 -0.0000
vn -0.9904 0.1384 0.0001
vn -0.0678 0.9977 -0.0000
vn 0.9904 0.1384 0.0001
vn 0.9799 0.1936 -0.0479
vn -0.0708 0.9975 -0.0029
vn -0.9799 0.1936 -0.0479
vn 0.0708 0.9975 -0.0029
vn -0.9688 -0.2197 -0.1143
vn 0.9691 -0.2163 -0.1186
vn 0.0567 -0.8851 -0.4620
vn -0.0296 -0.8906 -0.4538
vn -0.0474 -0.6657 -0.7447
vn -0.0332 -0.8581 -0.5123
vn -0.0445 -0.6873 -0.7250
vn 0.0474 -0.6657 -0.7447
vn 0.0345 -0.8584 -0.5118
vn 0.0720 -0.6944 -0.7159
vn 0.9695 -0.1663 -0.1802
vn 0.9682 -0.2145 -0.1290
vn 0.9700 -0.1732 -0.1706
vn -0.9695 -0.1663 -0.1802
vn -0.9683 -0.2140 -0.1289
vn -0.9698 -0.1696 -0.1754
vn -0.0966 -0.9953 0.0003
vn 0.9847 -0.1741 -0.0005
vn 0.0966 -0.9953 0.0003
vn -0.9847 -0.1741 -0.0005
vn -0.9793 -0.1949 -0.0545
vn 0.0566 -0.9948 0.0841
vn 0.9793 -0.1949 -0.0545
vn -0.0566 -0.9948 0.0841
vn 0.1190 0.6663 0.7361
vn -0.1299 0.8792 0.4584
vn -0.0320 -0.6250 0.7800
vn 0.0320 -0.6264 0.7788
vn 0.0033 -0.7492 0.6623
vn -0.0037 -0.7492 0.6623
vn 0.0978 0.8728 0.4781
vn 0.0954 0.7090 0.6988
vn 0.1276 0.8518 0.5081
vn -0.1190 0.6663 0.7361
vn -0.1277 0.8517 0.5082
vn -0.1304 0.6904 0.7115
vn -0.0429 -0.0054 -0.9991
vn 0.0429 -0.0054 -0.9991
vn 0.0034 -0.0154 -0.9999
vn -0.0034 -0.0154 -0.9999
vn 0.1812 0.9834 -0.0002
vn -0.1320 0.9022 0.4107
vn 0.1320 0.9022 0.4107
vn -0.1812 0.9834 -0.0002
vt 0.726456 0.152760
vt 0.979497 0.777986
vt 0.603020 0.787236
vt 0.956814 0.158065
vt 0.777076 0.938967
vt 0.911327 0.227941
vt 0.979561 0.000826
vt 0.650104 0.000826
vt 0.957332 0.935198
vt 0.911327 0.394392
vt 0.007401 0.114725
vt 0.774748 0.148560
vt 0.081309 0.114221
vt 0.651332 0.791216
vt 0.155047 0.113777
vt 0.698778 0.004928
vt 0.161791 0.890721
vt 0.862323 0.385016
vt 0.088052 0.891224
vt 0.856372 0.311187
vt 0.825407 0.934754
vt 0.014142 0.891839
vt 0.862669 0.237353
vt 0.797082 0.746992
vt 0.979101 0.193847
vt 0.761764 0.552575
vt 0.979398 0.383733
vt 0.774394 0.355262
vt 0.979035 0.581325
vt 0.650032 0.584517
vt 0.957424 0.354726
vt 0.636527 0.387272
vt 0.957208 0.552305
vt 0.674491 0.193891
vt 0.957696 0.740631
vt 0.009585 0.311375
vt 0.822687 0.351062
vt 0.010952 0.508947
vt 0.810091 0.548364
vt 0.012935 0.697794
vt 0.847736 0.741982
vt 0.083493 0.310881
vt 0.084862 0.508310
vt 0.086871 0.695640
vt 0.157231 0.310427
vt 0.698343 0.588497
vt 0.158599 0.507925
vt 0.685012 0.391310
vt 0.160613 0.695434
vt 0.724804 0.198547
vt 0.787597 0.000826
vt 0.955162 0.194442
vt 0.985990 0.935254
vt 0.664856 0.938888
vt 0.955162 0.013044
vt 0.965155 0.000826
vt 0.847736 0.042403
vt 0.000883 0.001859
vt 0.909899 0.183796
vt 0.081419 0.003968
vt 0.906524 0.103305
vt 0.161791 0.000826
vt 0.724804 0.897038
vt 0.909899 0.022874
vt 0.688134 0.844145
vt 0.161734 0.057286
vt 0.081363 0.059105
vt 0.000826 0.058318
vt 0.811308 0.095463
vt 0.742453 0.066705
vt 0.986673 0.865165
vt 0.619411 0.873216
vt 0.964524 0.070915
vt 0.474249 0.787080
vt 0.999174 0.778167
vt 0.344798 0.150502
vt 0.976553 0.157961
vt 0.523783 0.000826
vt 0.908790 0.208292
vt 0.999174 0.001078
vt 0.389266 0.937040
vt 0.977016 0.935020
vt 0.908799 0.414043
vt 0.343146 0.003028
vt 0.900058 0.415695
vt 0.528927 0.789936
vt 0.253262 0.000826
vt 0.895490 0.505549
vt 0.163443 0.003159
vt 0.399493 0.148002
vt 0.900058 0.595402
vt 0.445212 0.933149
vt 0.164974 0.789645
vt 0.853267 0.400067
vt 0.253824 0.786246
vt 0.849387 0.311190
vt 0.579304 0.004946
vt 0.342731 0.789645
vt 0.853682 0.222308
vt 0.542838 0.192581
vt 0.998735 0.193784
vt 0.509130 0.387513
vt 0.999015 0.384251
vt 0.522108 0.584803
vt 0.998651 0.581841
vt 0.391335 0.353087
vt 0.977110 0.354286
vt 0.377102 0.550278
vt 0.976894 0.551863
vt 0.414429 0.743793
vt 0.977383 0.740174
vt 0.341609 0.205966
vt 0.578024 0.589658
vt 0.342428 0.402104
vt 0.564606 0.392314
vt 0.341901 0.598051
vt 0.601368 0.198272
vt 0.253158 0.202377
vt 0.253476 0.398397
vt 0.253416 0.593219
vt 0.164757 0.206094
vt 0.447282 0.348596
vt 0.164584 0.402169
vt 0.432810 0.545771
vt 0.165015 0.596921
vt 0.472598 0.738615
vt 0.534781 0.937155
vt 0.953267 0.206640
vt 0.998177 0.933654
vt 0.406307 0.000826
vt 0.953267 0.000826
vt 0.977383 0.002473
vt 0.601368 0.891842
vt 0.903862 0.191988
vt 0.898841 0.103235
vt 0.472598 0.046571
vt 0.903862 0.014582
vt 0.853478 0.014812
vt 0.435869 0.099063
vt 0.856723 0.594309
vt 0.849388 0.103510
vt 0.849387 0.505553
vt 0.853478 0.192319
vt 0.856723 0.416798
vt 0.564983 0.839112
vt 0.489746 0.871974
vt 0.998900 0.864205
vt 0.360848 0.065711
vt 0.976800 0.071923
s 0
usemtl PlasticSlide
f 345/844/58 336/828/58 324/802/58 328/810/58
f 331/818/59 339/835/59 330/815/59 323/799/59
f 339/834/60 342/838/60 329/813/60 330/816/60
f 342/838/61 345/843/61 328/811/61 329/813/61
f 326/807/62 327/809/62 343/839/62 340/836/62
f 340/836/63 343/839/63 344/841/63 341/837/63
f 341/837/64 344/841/64 345/843/64 342/838/64
f 325/805/65 326/807/65 340/836/65 337/830/65
f 337/830/66 340/836/66 341/837/66 338/832/66
f 338/832/67 341/837/67 342/838/67 339/834/67
f 321/795/68 325/806/68 337/831/68 333/822/68
f 333/822/69 337/831/69 338/833/69 332/820/69
f 332/820/70 338/833/70 339/835/70 331/818/70
f 327/808/71 322/797/71 334/824/71 343/840/71
f 343/840/72 334/824/72 335/826/72 344/842/72
f 344/842/73 335/826/73 336/828/73 345/844/73
f 351/860/74 352/861/74 349/854/74 350/856/74
f 353/863/75 354/864/75 346/845/75 348/851/75
f 352/861/76 353/862/76 348/852/76 349/854/76
f 355/866/77 351/859/77 350/857/77 347/848/77
f 322/797/78 327/808/78 351/859/78 355/866/78
f 326/807/79 325/805/79 353/862/79 352/861/79
f 325/806/80 321/795/80 354/864/80 353/863/80
f 327/809/81 326/807/81 352/861/81 351/860/81
f 380/920/82 363/886/82 359/875/82 371/904/82
f 366/894/83 358/872/83 365/891/83 374/911/83
f 374/910/84 365/892/84 364/889/84 377/914/84
f 377/914/85 364/889/85 363/887/85 380/919/85
f 361/881/86 375/912/86 378/915/86 362/883/86
f 375/912/87 376/913/87 379/917/87 378/915/87
f 376/913/88 377/914/88 380/919/88 379/917/88
f 360/878/89 372/906/89 375/912/89 361/881/89
f 372/906/90 373/908/90 376/913/90 375/912/90
f 373/908/91 374/910/91 377/914/91 376/913/91
f 356/868/92 368/898/92 372/907/92 360/880/92
f 368/898/93 367/896/93 373/909/93 372/907/93
f 367/896/94 366/894/94 374/911/94 373/909/94
f 362/884/95 378/916/95 369/900/95 357/870/95
f 378/916/96 379/918/96 370/902/96 369/900/96
f 379/918/97 380/920/97 371/904/97 370/902/97
f 386/932/98 385/931/98 384/929/98 387/935/98
f 388/939/99 383/927/99 381/921/99 389/940/99
f 387/935/100 384/929/100 383/928/100 388/937/100
f 390/942/101 382/924/101 385/930/101 386/933/101
f 357/870/102 390/942/102 386/933/102 362/884/102
f 361/882/103 387/936/103 388/938/103 360/879/103
f 360/880/104 388/939/104 389/940/104 356/868/104
f 362/885/105 386/934/105 387/936/105 361/882/105
f 321/796/106 333/823/106 368/899/106 356/869/106
f 324/803/107 336/829/107 371/905/107 359/876/107
f 323/800/108 330/817/108 365/893/108 358/873/108
f 328/812/109 324/804/109 359/877/109 363/888/109
f 329/814/110 328/812/110 363/888/110 364/890/110
f 330/817/111 329/814/111 364/890/111 365/893/111
f 331/819/112 323/801/112 358/874/112 366/895/112
f 332/821/113 331/819/113 366/895/113 367/897/113
f 333/823/114 332/821/114 367/897/114 368/899/114
f 334/825/115 322/798/115 357/871/115 369/901/115
f 335/827/116 334/825/116 369/901/116 370/903/116
f 336/829/117 335/827/117 370/903/117 371/905/117
f 347/849/118 350/858/118 385/931/118 382/925/118
f 348/853/119 346/846/119 381/922/119 383/928/119
f 349/855/120 348/853/120 383/928/120 384/929/120
f 350/858/121 349/855/121 384/929/121 385/931/121
f 346/847/122 354/865/122 389/941/122 381/923/122
f 322/798/123 355/867/123 390/943/123 357/871/123
f 354/865/124 321/796/124 356/869/124 389/941/124
f 355/867/125 347/850/125 382/926/125 390/943/125
o Roof
v -0.837314 2.545128 0.941633
v 0.837314 2.545128 0.941633
v -0.837314 3.314459 -0.000502
v 0.837314 3.314459 -0.000502
v -0.837314 2.555545 0.950139
v 0.837314 2.555545 0.950139
v -0.837314 3.331406 -0.000000
v 0.837314 3.331406 -0.000000
v -0.837314 2.545128 -0.941633
v 0.837314 2.545128 -0.941633
v -0.837314 2.555545 -0.950139
v 0.837314 2.555545 -0.950139
vn -0.0000 -0.7746 -0.6325
vn -0.0000 0.7746 0.6325
vn 1.0000 -0.0000 -0.0000
vn -1.0000 -0.0000 -0.0000
vn -0.0000 -0.6325 0.7746
vn -0.0000 -0.7742 0.6329
vn -0.0000 0.7746 -0.6325
vn -0.0000 -0.6325 -0.7746
vt 0.318242 0.880905
vt 0.853466 0.497102
vt 0.858309 0.000666
vt 0.318242 0.441451
vt 0.853466 0.502898
vt 0.858309 0.440120
vt 0.000666 0.880905
vt 0.636955 0.880905
vt 0.651580 0.249868
vt 0.000666 0.441451
vt 0.636955 0.441451
vt 0.651580 0.750132
vt 0.322568 0.000666
vt 0.850733 0.499334
vt 0.854798 0.000666
vt 0.322568 0.440120
vt 0.850733 0.500666
vt 0.854798 0.440120
vt 0.000666 0.000666
vt 0.323899 0.440120
vt 0.647132 0.250000
vt 0.000666 0.440120
vt 0.323899 0.000666
vt 0.647132 0.750000
vt 0.319574 0.880905
vt 0.853466 0.002898
vt 0.859641 0.000666
vt 0.319574 0.441451
vt 0.853466 0.997102
vt 0.859641 0.440120
vt 0.645801 0.440120
vt 0.850733 0.000666
vt 0.863152 0.000666
vt 0.645801 0.000666
vt 0.850733 0.999334
vt 0.863152 0.440120
s 0
usemtl PlasticRoof
f 391/944/126 393/950/126 394/953/126 392/947/126
f 395/956/127 396/959/127 398/965/127 397/962/127
f 392/948/128 394/955/128 398/967/128 396/960/128
f 393/952/129 391/945/129 395/957/129 397/964/129
f 391/946/130 392/949/130 396/961/130 395/958/130
f 399/968/131 400/971/131 394/954/131 393/951/131
f 401/974/132 397/963/132 398/966/132 402/977/132
f 400/972/128 402/978/128 398/967/128 394/955/128
f 393/952/129 397/964/129 401/975/129 399/969/129
f 399/970/133 401/976/133 402/979/133 400/973/133
o Metal
v 0.662046 2.124078 0.660705
v 0.662046 2.006489 0.660705
v 0.662046 2.124078 0.543117
v 0.662046 2.006489 0.543117
v 0.745233 2.124078 0.660705
v 0.745233 2.006490 0.660705
v 0.745233 2.124078 0.543117
v 0.745233 2.006490 0.543117
vn -1.0000 -0.0000 -0.0000
vn 1.0000 -0.0000 -0.0000
vn -0.0000 -1.0000 -0.0000
vn -0.0000 1.0000 -0.0000
vn -0.0000 -0.0000 -1.0000
vn -0.0000 -0.0000 1.0000
vt 0.000664 0.826888
vt 0.999336 0.826889
vt 0.707552 0.413112
vt 0.413112 0.826888
vt 0.706224 0.414440
vt 0.707552 0.000664
vt 0.000664 0.414440
vt 0.999336 0.414440
vt 0.414440 0.000664
vt 0.413112 0.414440
vt 0.706224 0.826888
vt 0.414440 0.413113
vt 0.413112 0.413112
vt 0.707552 0.826889
vt 0.999336 0.413113
vt 0.000664 0.413112
vt 0.414440 0.414440
vt 0.999336 0.000664
vt 0.413112 0.000664
vt 0.707552 0.414440
vt 0.706224 0.000664
vt 0.000664 0.000664
vt 0.414440 0.826888
vt 0.706224 0.413112
s 0
usemtl Metal
f 403/980/134 405/986/134 406/989/134 404/983/134
f 407/992/135 408/995/135 410/1001/135 409/998/135
f 404/984/136 406/990/136 410/1002/136 408/996/136
f 405/987/137 403/981/137 407/993/137 409/999/137
f 406/991/138 405/988/138 409/1000/138 410/1003/138
f 403/982/139 404/985/139 408/997/139 407/994/139
o Swing_2
v 2.587377 0.427740 0.493153
v 2.564544 0.417429 0.705305
v 2.587377 0.427740 0.705305
v 2.564544 0.417429 0.493153
v 2.456992 0.406574 0.705305
v 2.456992 0.406574 0.493153
v 2.619286 0.476893 0.493153
v 2.619286 0.476893 0.705305
v 2.326607 0.427740 0.493153
v 2.349440 0.417429 0.705305
v 2.326607 0.427740 0.705305
v 2.349440 0.417429 0.493153
v 2.294698 0.476893 0.493153
v 2.294698 0.476893 0.705305
v 2.603665 0.408775 0.493153
v 2.571028 0.393284 0.705305
v 2.603665 0.408775 0.705305
v 2.571028 0.393284 0.493153
v 2.456992 0.381574 0.705305
v 2.456992 0.381574 0.493153
v 2.640254 0.463280 0.493153
v 2.640254 0.463280 0.705305
v 2.310319 0.408775 0.493153
v 2.342956 0.393284 0.705305
v 2.310319 0.408775 0.705305
v 2.342956 0.393284 0.493153
v 2.273730 0.463280 0.493153
v 2.273730 0.463280 0.705305
vn -0.1004 0.9949 -0.0000
vn -0.4116 0.9114 -0.0000
vn -0.8388 0.5445 -0.0000
vn 0.1004 0.9949 -0.0000
vn 0.4116 0.9114 -0.0000
vn 0.8388 0.5445 -0.0000
vn 0.1022 -0.9948 -0.0000
vn 0.4288 -0.9034 -0.0000
vn 0.8303 -0.5574 -0.0000
vn -0.1022 -0.9948 -0.0000
vn -0.4288 -0.9034 -0.0000
vn -0.8303 -0.5574 -0.0000
vn -0.0000 -0.0000 -1.0000
vn -0.0000 -0.0000 1.0000
vn 0.5445 0.8388 -0.0000
vn -0.5445 0.8388 -0.0000
vt 0.345104 0.498509
vt 0.919906 0.508651
vt 0.688850 0.459822
vt 0.747850 0.123126
vt 0.688850 0.498509
vt 0.764558 0.086130
vt 0.345104 0.459822
vt 0.903199 0.471655
vt 0.688850 0.284694
vt 0.730262 0.297390
vt 0.345104 0.284694
vt 0.885611 0.297390
vt 0.345104 0.559120
vt 0.999548 0.560353
vt 0.688850 0.559120
vt 0.844199 0.034428
vt 0.345104 0.078853
vt 0.919906 0.086130
vt 0.688851 0.113656
vt 0.747850 0.471655
vt 0.688851 0.078853
vt 0.764558 0.508651
vt 0.345104 0.113656
vt 0.903199 0.123126
vt 0.345104 0.036762
vt 0.999548 0.034428
vt 0.688851 0.036762
vt 0.844199 0.560353
vt 0.000452 0.059738
vt 0.889177 0.535043
vt 0.344199 0.112618
vt 0.708729 0.112618
vt 0.344199 0.059738
vt 0.733828 0.059738
vt 0.000452 0.112618
vt 0.864078 0.482162
vt 0.344199 0.297390
vt 0.689755 0.297390
vt 0.000452 0.297390
vt 0.845104 0.297390
vt 0.000452 0.000452
vt 0.345104 0.590301
vt 0.977491 0.594329
vt 0.344199 0.000452
vt 0.688850 0.590301
vt 0.822143 0.000452
vt 0.000452 0.535043
vt 0.889177 0.059738
vt 0.344199 0.482162
vt 0.708729 0.482162
vt 0.344199 0.535043
vt 0.733828 0.535043
vt 0.000452 0.482162
vt 0.864078 0.112618
vt 0.000452 0.594329
vt 0.345104 0.000452
vt 0.977491 0.000452
vt 0.344199 0.594329
vt 0.688851 0.000452
vt 0.822143 0.594329
s 0
usemtl Rubber
f 415/1012/140 412/1006/140 414/1010/140 416/1014/140
f 414/1010/141 412/1006/141 413/1008/141 411/1004/141
f 411/1004/142 413/1008/142 418/1018/142 417/1016/142
f 415/1012/143 416/1014/143 422/1026/143 420/1022/143
f 422/1026/144 419/1020/144 421/1024/144 420/1022/144
f 419/1020/145 423/1028/145 424/1030/145 421/1024/145
f 429/1040/146 430/1042/146 428/1038/146 426/1034/146
f 428/1038/147 425/1032/147 427/1036/147 426/1034/147
f 425/1032/148 431/1044/148 432/1047/148 427/1036/148
f 429/1040/149 434/1052/149 436/1056/149 430/1042/149
f 436/1056/150 434/1052/150 435/1054/150 433/1050/150
f 433/1050/151 435/1054/151 438/1061/151 437/1058/151
f 414/1011/152 411/1005/152 425/1033/152 428/1039/152
f 412/1007/153 415/1013/153 429/1041/153 426/1035/153
f 413/1009/153 412/1007/153 426/1035/153 427/1037/153
f 416/1015/152 414/1011/152 428/1039/152 430/1043/152
f 417/1016/154 418/1018/154 432/1048/154 431/1045/154
f 418/1019/153 413/1009/153 427/1037/153 432/1049/153
f 411/1005/152 417/1017/152 431/1046/152 425/1033/152
f 419/1021/152 422/1027/152 436/1057/152 433/1051/152
f 415/1013/153 420/1023/153 434/1053/153 429/1041/153
f 420/1023/153 421/1025/153 435/1055/153 434/1053/153
f 422/1027/152 416/1015/152 430/1043/152 436/1057/152
f 424/1030/155 423/1028/155 437/1059/155 438/1062/155
f 421/1025/153 424/1031/153 438/1063/153 435/1055/153
f 423/1029/152 419/1021/152 433/1051/152 437/1060/152
o Ropes_2
v 2.285141 0.769422 0.592382
v 2.285141 2.041785 0.593429
v 2.291193 0.769374 0.595877
v 2.291193 2.041737 0.596924
v 2.291193 0.769278 0.602866
v 2.291193 2.041641 0.603913
v 2.285141 0.769230 0.606361
v 2.285141 2.041594 0.607408
v 2.279088 0.769278 0.602866
v 2.279088 2.041641 0.603913
v 2.279088 0.769374 0.595877
v 2.279088 2.041737 0.596924
v 2.628843 0.769422 0.592382
v 2.628843 2.041785 0.593429
v 2.622790 0.769374 0.595877
v 2.622790 2.041737 0.596924
v 2.622790 0.769278 0.602866
v 2.622790 2.041641 0.603913
v 2.628843 0.769230 0.606361
v 2.628843 2.041594 0.607408
v 2.634896 0.769278 0.602866
v 2.634896 2.041641 0.603913
v 2.634896 0.769374 0.595877
v 2.634896 2.041737 0.596924
v 2.285141 0.465425 0.521784
v 2.285141 0.779320 0.592459
v 2.291193 0.464657 0.525193
v 2.291193 0.778553 0.595869
v 2.291193 0.463122 0.532012
v 2.291193 0.777017 0.602687
v 2.285141 0.462354 0.535421
v 2.285141 0.776250 0.606097
v 2.279088 0.463122 0.532012
v 2.279088 0.777017 0.602687
v 2.279088 0.464657 0.525193
v 2.279088 0.778553 0.595869
v 2.628843 0.465425 0.521784
v 2.628843 0.780636 0.592755
v 2.622790 0.464657 0.525193
v 2.622790 0.779868 0.596165
v 2.622790 0.463122 0.532012
v 2.622790 0.778333 0.602983
v 2.628843 0.462354 0.535421
v 2.628843 0.777566 0.606393
v 2.634896 0.463122 0.532012
v 2.634896 0.778333 0.602983
v 2.634896 0.464657 0.525193
v 2.634896 0.779868 0.596165
v 2.285141 0.465425 0.676674
v 2.285141 0.779320 0.605999
v 2.291193 0.464657 0.673265
v 2.291193 0.778553 0.602589
v 2.291193 0.463122 0.666446
v 2.291193 0.777017 0.595771
v 2.285141 0.462354 0.663037
v 2.285141 0.776250 0.592361
v 2.279088 0.463122 0.666446
v 2.279088 0.777017 0.595771
v 2.279088 0.464657 0.673265
v 2.279088 0.778553 0.602589
v 2.628843 0.465425 0.676674
v 2.628843 0.776960 0.606530
v 2.622790 0.464657 0.673265
v 2.622790 0.776193 0.603121
v 2.622790 0.463122 0.666446
v 2.622790 0.774657 0.596302
v 2.628843 0.462354 0.663037
v 2.628843 0.773890 0.592893
v 2.634896 0.463122 0.666446
v 2.634896 0.774657 0.596302
v 2.634896 0.464657 0.673265
v 2.634896 0.776193 0.603121
v 2.628843 1.405603 0.592906
v 2.622790 1.405555 0.596400
v 2.622790 1.405460 0.603390
v 2.628843 1.405412 0.606884
v 2.634896 1.405460 0.603390
v 2.634896 1.405555 0.596400
v 2.622790 0.779284 0.596139
v 2.622790 0.779189 0.603128
v 2.628843 0.779141 0.606623
v 2.634896 0.779189 0.603128
v 2.634896 0.779284 0.596139
v 2.628843 0.779332 0.592644
vn 0.5000 0.0007 -0.8660
vn 1.0000 -0.0000 -0.0000
vn 0.5000 -0.0007 0.8660
vn -0.5000 -0.0007 0.8660
vn -1.0000 -0.0000 -0.0000
vn -0.5000 0.0007 -0.8660
vn 0.5000 0.1902 -0.8449
vn 0.5000 -0.1902 0.8449
vn -0.5000 -0.1902 0.8449
vn -0.5000 0.1902 -0.8449
vn 0.5000 0.1902 0.8449
vn 0.5000 -0.1902 -0.8449
vn -0.5000 -0.1902 -0.8449
vn -0.5000 0.1902 0.8449
vn 0.5000 0.0004 -0.8660
vn 0.5000 -0.0004 0.8660
vn -0.5000 -0.0004 0.8660
vn -0.5000 0.0004 -0.8660
vn -0.5000 0.0229 -0.8657
vn -0.5000 -0.0229 0.8657
vn 0.5000 -0.0229 0.8657
vn 0.5000 0.0229 -0.8657
vt 0.034600 0.000394
vt 0.046084 0.999606
vt 0.034600 0.999747
vt 0.046084 0.000253
vt 0.031855 0.000359
vt 0.031855 0.999712
vt 0.026365 0.000288
vt 0.026365 0.999641
vt 0.023620 0.000253
vt 0.035105 0.999747
vt 0.023620 0.999606
vt 0.035105 0.000394
vt 0.037850 0.999712
vt 0.037850 0.000359
vt 0.043340 0.999641
vt 0.043340 0.000288
vt 0.023115 0.999606
vt 0.011431 0.000394
vt 0.023115 0.000253
vt 0.011431 0.999747
vt 0.020370 0.999641
vt 0.020370 0.000288
vt 0.014880 0.999712
vt 0.014880 0.000359
vt 0.012136 0.999747
vt 0.000452 0.000253
vt 0.012136 0.000394
vt 0.000452 0.999606
vt 0.003197 0.000288
vt 0.003197 0.999641
vt 0.008686 0.000359
vt 0.008686 0.999712
vt 0.081044 0.252968
vt 0.069559 0.000253
vt 0.081044 0.000253
vt 0.069559 0.252968
vt 0.083789 0.252968
vt 0.083789 0.000253
vt 0.089278 0.252968
vt 0.089278 0.000253
vt 0.092023 0.252968
vt 0.080538 0.000253
vt 0.092023 0.000253
vt 0.080538 0.252968
vt 0.077794 0.000253
vt 0.077794 0.252968
vt 0.072304 0.000253
vt 0.072304 0.252968
vt 0.069054 0.254027
vt 0.057569 0.000253
vt 0.069054 0.000253
vt 0.057569 0.254027
vt 0.066309 0.254027
vt 0.066309 0.000253
vt 0.060819 0.254027
vt 0.060819 0.000253
vt 0.058074 0.254027
vt 0.046590 0.000253
vt 0.058074 0.000253
vt 0.046590 0.254027
vt 0.049335 0.000253
vt 0.049335 0.254027
vt 0.054824 0.000253
vt 0.054824 0.254027
vt 0.104013 0.000253
vt 0.092528 0.252968
vt 0.104013 0.252968
vt 0.092528 0.000253
vt 0.106758 0.000253
vt 0.106758 0.252968
vt 0.112248 0.000253
vt 0.112248 0.252968
vt 0.114992 0.000253
vt 0.103508 0.252968
vt 0.114992 0.252968
vt 0.103508 0.000253
vt 0.100763 0.252968
vt 0.100763 0.000253
vt 0.095273 0.252968
vt 0.095273 0.000253
vt 0.126477 0.000253
vt 0.137962 0.251068
vt 0.126477 0.251068
vt 0.137962 0.000253
vt 0.123732 0.000253
vt 0.123732 0.251068
vt 0.118243 0.000253
vt 0.118243 0.251068
vt 0.115498 0.000253
vt 0.126982 0.251068
vt 0.115498 0.251068
vt 0.126982 0.000253
vt 0.129727 0.251068
vt 0.129727 0.000253
vt 0.135217 0.251068
vt 0.135217 0.000253
vt 0.011431 0.500071
vt 0.023115 0.499929
vt 0.020370 0.499965
vt 0.014880 0.500035
vt 0.000452 0.499929
vt 0.012136 0.500071
vt 0.003197 0.499965
vt 0.008686 0.500035
vt 0.020171 0.991857
vt 0.014681 0.991928
vt 0.011936 0.991963
vt 0.000253 0.008037
vt 0.002998 0.008072
vt 0.008487 0.008143
vt 0.022916 0.991822
vt 0.011232 0.008178
s 0
usemtl Rope
f 439/1064/156 440/1066/156 442/1069/156 441/1068/156
f 441/1068/157 442/1069/157 444/1071/157 443/1070/157
f 443/1070/158 444/1071/158 446/1074/158 445/1072/158
f 445/1073/159 446/1075/159 448/1077/159 447/1076/159
f 447/1076/160 448/1077/160 450/1079/160 449/1078/160
f 449/1078/161 450/1079/161 440/1067/161 439/1065/161
f 511/1161/161 512/1162/161 454/1085/161 452/1082/161
f 512/1162/160 513/1163/160 456/1087/160 454/1085/160
f 513/1163/159 514/1165/159 458/1090/159 456/1087/159
f 514/1164/158 515/1166/158 460/1093/158 458/1091/158
f 515/1166/157 516/1167/157 462/1095/157 460/1093/157
f 516/1167/156 511/1160/156 452/1083/156 462/1095/156
f 463/1096/162 464/1098/162 466/1101/162 465/1100/162
f 465/1100/157 466/1101/157 468/1103/157 467/1102/157
f 467/1102/163 468/1103/163 470/1106/163 469/1104/163
f 469/1105/164 470/1107/164 472/1109/164 471/1108/164
f 471/1108/160 472/1109/160 474/1111/160 473/1110/160
f 473/1110/165 474/1111/165 464/1099/165 463/1097/165
f 475/1112/165 477/1116/165 478/1117/165 476/1114/165
f 477/1116/160 479/1118/160 480/1119/160 478/1117/160
f 479/1118/164 481/1120/164 482/1122/164 480/1119/164
f 481/1121/163 483/1124/163 484/1125/163 482/1123/163
f 483/1124/157 485/1126/157 486/1127/157 484/1125/157
f 485/1126/162 475/1113/162 476/1115/162 486/1127/162
f 487/1128/166 489/1132/166 490/1133/166 488/1130/166
f 489/1132/157 491/1134/157 492/1135/157 490/1133/157
f 491/1134/167 493/1136/167 494/1138/167 492/1135/167
f 493/1137/168 495/1140/168 496/1141/168 494/1139/168
f 495/1140/160 497/1142/160 498/1143/160 496/1141/160
f 497/1142/169 487/1129/169 488/1131/169 498/1143/169
f 499/1144/169 500/1146/169 502/1149/169 501/1148/169
f 501/1148/160 502/1149/160 504/1151/160 503/1150/160
f 503/1150/168 504/1151/168 506/1154/168 505/1152/168
f 505/1153/167 506/1155/167 508/1157/167 507/1156/167
f 507/1156/157 508/1157/157 510/1159/157 509/1158/157
f 509/1158/166 510/1159/166 500/1147/166 499/1145/166
f 521/1173/170 522/1175/170 511/1160/170 516/1167/170
f 520/1172/157 521/1173/157 516/1167/157 515/1166/157
f 519/1171/171 520/1172/171 515/1166/171 514/1164/171
f 518/1169/172 519/1170/172 514/1165/172 513/1163/172
f 517/1168/160 518/1169/160 513/1163/160 512/1162/160
f 522/1174/173 517/1168/173 512/1162/173 511/1161/173
f 451/1080/174 453/1084/174 517/1168/174 522/1174/174
f 453/1084/160 455/1086/160 518/1169/160 517/1168/160
f 455/1086/175 457/1088/175 519/1170/175 518/1169/175
f 457/1089/176 459/1092/176 520/1172/176 519/1171/176
f 459/1092/157 461/1094/157 521/1173/157 520/1172/157
f 461/1094/177 451/1081/177 522/1175/177 521/1173/177
