# Blender 5.0.1
# www.blender.org
mtllib uploads_files_3055398_Flame.mtl
o Flame
v 0.042285 3.280879 -0.382384
v 0.027687 2.654957 -0.496642
v 0.020926 2.308101 -0.586798
v 0.014902 1.947874 -0.722136
v 0.010509 1.635646 -0.842078
v 0.007534 1.384926 -0.931490
v 0.005524 1.185824 -0.986365
v 0.003870 0.992104 -1.003904
v 0.002504 0.798682 -0.983316
v 0.000114 0.167793 -0.555683
v 0.108575 3.279339 -0.375856
v 0.119128 2.653238 -0.487637
v 0.131283 2.306298 -0.575930
v 0.152843 1.945972 -0.708551
v 0.172707 1.633768 -0.826103
v 0.187764 1.383160 -0.913739
v 0.196857 1.184219 -0.967520
v 0.198954 0.990735 -0.984690
v 0.193842 0.797601 -0.964471
v 0.181710 0.612039 -0.907615
v 0.162977 0.441011 -0.816268
v 0.138283 0.290977 -0.693859
v 0.108500 0.167664 -0.545008
v 0.074681 0.075851 -0.375353
v 0.038060 0.019180 -0.191341
v 0.172326 3.278196 -0.356522
v 0.207055 2.651963 -0.460967
v 0.237399 2.304960 -0.543742
v 0.285483 1.944561 -0.668317
v 0.328680 1.632376 -0.778792
v 0.361074 1.381850 -0.861168
v 0.380845 1.183028 -0.911710
v 0.386542 0.989719 -0.927786
v 0.377834 0.796799 -0.908660
v 0.355029 0.611459 -0.855042
v 0.318954 0.440635 -0.768952
v 0.270931 0.290766 -0.653620
v 0.212721 0.167569 -0.513393
v 0.146469 0.075821 -0.353576
v 0.074658 0.019176 -0.180240
v 0.231081 3.277493 -0.325126
v 0.288105 2.651179 -0.417657
v 0.335205 2.304138 -0.491472
v 0.407734 1.943695 -0.602981
v 0.472433 1.631520 -0.701962
v 0.520799 1.381045 -0.775798
v 0.550410 1.182297 -0.821080
v 0.559431 0.989096 -0.835379
v 0.547396 0.796306 -0.818027
v 0.514754 0.611103 -0.769667
v 0.462703 0.440404 -0.692117
v 0.393180 0.290637 -0.588277
v 0.308772 0.167510 -0.462053
v 0.212630 0.075803 -0.318212
v 0.108386 0.019174 -0.162211
v 0.282596 3.277258 -0.282873
v 0.359148 2.650917 -0.359371
v 0.420941 2.303864 -0.421129
v 0.514896 1.943405 -0.515054
v 0.598436 1.631234 -0.598567
v 0.660807 1.380776 -0.660908
v 0.699036 1.182053 -0.699112
v 0.710970 0.988887 -0.711020
v 0.696025 0.796142 -0.696056
v 0.654754 0.610984 -0.654772
v 0.588701 0.440327 -0.588714
v 0.500333 0.290593 -0.500339
v 0.392961 0.167490 -0.392960
v 0.270621 0.075797 -0.270621
v 0.137950 0.019173 -0.137949
v 0.324887 3.277499 -0.231388
v 0.417464 2.651186 -0.288351
v 0.491315 2.304146 -0.335415
v 0.602846 1.943702 -0.407914
v 0.701854 1.631528 -0.472579
v 0.775712 1.381052 -0.520915
v 0.821019 1.182304 -0.550494
v 0.835337 0.989101 -0.559488
v 0.818004 0.796311 -0.547434
v 0.769656 0.611106 -0.514772
v 0.692112 0.440406 -0.462716
v 0.588270 0.290638 -0.393187
v 0.462053 0.167510 -0.308771
v 0.318213 0.075803 -0.212630
v 0.162212 0.019174 -0.108386
v 0.356321 3.278207 -0.172649
v 0.460812 2.651976 -0.207324
v 0.543615 2.304974 -0.237625
v 0.668213 1.944576 -0.285679
v 0.778706 1.632390 -0.328841
v 0.861105 1.381864 -0.361198
v 0.911665 1.183041 -0.380936
v 0.927759 0.989730 -0.386607
v 0.908636 0.796807 -0.377873
v 0.855031 0.611465 -0.355048
v 0.768947 0.440639 -0.318967
v 0.653614 0.290769 -0.270938
v 0.513393 0.167570 -0.212721
v 0.353576 0.075821 -0.146469
v 0.180240 0.019176 -0.074658
v 0.375693 3.279356 -0.108913
v 0.487520 2.653257 -0.119404
v 0.575841 2.306318 -0.131517
v 0.708476 1.945993 -0.153046
v 0.826048 1.633790 -0.172876
v 0.913699 1.383180 -0.187895
v 0.967489 1.184237 -0.196956
v 0.984670 0.990750 -0.199019
v 0.964455 0.797613 -0.193888
v 0.907612 0.612048 -0.181736
v 0.816262 0.441017 -0.162990
v 0.693852 0.290980 -0.138290
v 0.545009 0.167666 -0.108499
v 0.375353 0.075851 -0.074680
v 0.191342 0.019180 -0.038060
v 0.382267 3.280900 -0.042630
v 0.496563 2.654980 -0.027971
v 0.586747 2.308126 -0.021167
v 0.722092 1.947901 -0.015113
v 0.842045 1.635673 -0.010678
v 0.931472 1.384951 -0.007666
v 0.986349 1.185848 -0.005623
v 1.003900 0.992124 -0.003935
v 0.983307 0.798698 -0.002550
v 0.925364 0.612832 -0.001498
v 0.832239 0.441525 -0.000779
v 0.707439 0.291266 -0.000340
v 0.555684 0.167795 -0.000113
v 0.382706 0.075892 -0.000022
v 0.195090 0.019185 0.000000
v 0.375784 3.282782 0.023652
v 0.487603 2.657082 0.063462
v 0.575916 2.310331 0.089182
v 0.708544 1.950226 0.122820
v 0.826100 1.637969 0.151520
v 0.913736 1.387112 0.172563
v 0.967527 1.187812 0.185711
v 0.984693 0.993800 0.191149
v 0.964470 0.800021 0.188788
v 0.907619 0.613788 0.178740
v 0.816270 0.442145 0.161432
v 0.693860 0.291613 0.137609
v 0.545009 0.167952 0.108273
v 0.375353 0.075941 0.074635
v 0.191342 0.019192 0.038061
v 0.356495 3.284930 0.087388
v 0.460970 2.659480 0.151381
v 0.543759 2.312848 0.195290
v 0.668341 1.952882 0.255453
v 0.778812 1.640592 0.307485
v 0.861188 1.389581 0.345866
v 0.911732 1.190056 0.369691
v 0.927804 0.995714 0.378737
v 0.908666 0.801532 0.372773
v 0.855046 0.614880 0.352051
v 0.768955 0.442853 0.317409
v 0.653621 0.292011 0.270257
v 0.513393 0.168132 0.212494
v 0.353576 0.075996 0.146424
v 0.180240 0.019199 0.074658
v 0.325137 3.287261 0.146127
v 0.417698 2.662083 0.232408
v 0.491527 2.315580 0.293080
v 0.603035 1.955766 0.377688
v 0.702012 1.643442 0.451223
v 0.775840 1.392263 0.505583
v 0.821117 1.192495 0.539248
v 0.835405 0.997795 0.551618
v 0.818041 0.803175 0.542334
v 0.769679 0.616067 0.511776
v 0.692119 0.443622 0.461158
v 0.588278 0.292442 0.392506
v 0.462053 0.168327 0.308545
v 0.318212 0.076057 0.212585
v 0.162212 0.019207 0.108387
v 0.282914 3.289687 0.197612
v 0.359443 2.664793 0.303429
v 0.421206 2.318426 0.378794
v 0.515130 1.958770 0.484827
v 0.598632 1.646411 0.577210
v 0.660966 1.395058 0.645576
v 0.699157 1.195036 0.687866
v 0.711053 0.999963 0.703150
v 0.696078 0.804886 0.690956
v 0.654784 0.617304 0.651776
v 0.588716 0.444424 0.587155
v 0.500340 0.292891 0.499658
v 0.392961 0.168530 0.392734
v 0.270621 0.076120 0.270576
v 0.137950 0.019215 0.137950
v 0.231459 3.292114 0.239865
v 0.288445 2.667505 0.361714
v 0.335515 2.321273 0.449137
v 0.408013 1.961778 0.572755
v 0.472667 1.649384 0.680605
v 0.520988 1.397857 0.760465
v 0.550554 1.197582 0.809834
v 0.559529 1.002135 0.827509
v 0.547464 0.806601 0.812927
v 0.514791 0.618542 0.766671
v 0.462718 0.445226 0.690558
v 0.393188 0.293341 0.587596
v 0.308772 0.168733 0.461826
v 0.212630 0.076184 0.318167
v 0.108386 0.019223 0.162212
v 0.000000 0.000000 0.000000
v 0.172743 3.294449 0.271261
v 0.207441 2.670115 0.405024
v 0.237748 2.324014 0.501407
v 0.285794 1.964674 0.638091
v 0.328937 1.652247 0.757435
v 0.361279 1.400554 0.845836
v 0.381004 1.200035 0.900464
v 0.386655 1.004227 0.919916
v 0.377902 0.808253 0.903559
v 0.355067 0.619736 0.852045
v 0.318969 0.445999 0.767394
v 0.270939 0.293774 0.652939
v 0.212721 0.168929 0.513166
v 0.146469 0.076245 0.353531
v 0.074658 0.019231 0.180240
v 0.109023 3.296601 0.290595
v 0.119529 2.672522 0.431694
v 0.131647 2.326542 0.533595
v 0.153169 1.967346 0.678324
v 0.172980 1.654890 0.804746
v 0.187983 1.403043 0.898407
v 0.197031 1.202299 0.956274
v 0.199075 1.006159 0.976820
v 0.193917 0.809778 0.959370
v 0.181755 0.620837 0.904619
v 0.163000 0.446712 0.814709
v 0.138291 0.294173 0.693178
v 0.108500 0.169109 0.544781
v 0.074681 0.076301 0.375308
v 0.038060 0.019238 0.191342
v 0.042740 3.298489 0.297123
v 0.028104 2.674632 0.440699
v 0.021306 2.328760 0.544463
v 0.015243 1.969690 0.691910
v 0.010789 1.657208 0.820721
v 0.007754 1.405227 0.916158
v 0.005698 1.204286 0.975119
v 0.003991 1.007855 0.996034
v 0.002587 0.811116 0.978215
v 0.001518 0.621804 0.922370
v 0.000789 0.447338 0.830685
v 0.000341 0.294524 0.706765
v 0.000114 0.169268 0.555456
v 0.000023 0.076350 0.382661
v 0.000000 0.019244 0.195091
v -0.023543 3.300038 0.290595
v -0.063337 2.676365 0.431694
v -0.089051 2.330580 0.533595
v -0.122698 1.971614 0.678324
v -0.151416 1.659113 0.804746
v -0.172475 1.407022 0.898407
v -0.185635 1.205919 0.956274
v -0.191093 1.009248 0.976820
v -0.188758 0.812216 0.959370
v -0.178720 0.622598 0.904619
v -0.161422 0.447852 0.814709
v -0.137608 0.294812 0.693178
v -0.108272 0.169398 0.544781
v -0.074635 0.076390 0.375308
v -0.038060 0.019249 0.191342
v -0.087293 3.301188 0.271261
v -0.151264 2.677652 0.405024
v -0.195167 2.331933 0.501407
v -0.255338 1.973045 0.638091
v -0.307389 1.660528 0.757435
v -0.345785 1.408355 0.845836
v -0.369623 1.207132 0.900464
v -0.378688 1.010284 0.919916
v -0.372743 0.813033 0.903559
v -0.352032 0.623188 0.852045
v -0.317406 0.448234 0.767394
v -0.270256 0.295025 0.652939
v -0.212493 0.169494 0.513166
v -0.146424 0.076420 0.353531
v -0.074658 0.019253 0.180240
v -0.146055 3.301896 0.239865
v -0.232313 2.678443 0.361714
v -0.292980 2.332765 0.449137
v -0.377588 1.973924 0.572755
v -0.451134 1.661399 0.680605
v -0.505509 1.409176 0.760465
v -0.539188 1.207879 0.809834
v -0.551577 1.010921 0.827509
v -0.542304 0.813536 0.812926
v -0.511756 0.623551 0.766671
v -0.461155 0.448469 0.690558
v -0.392505 0.295157 0.587596
v -0.308544 0.169554 0.461826
v -0.212585 0.076439 0.318167
v -0.108386 0.019256 0.162212
v -0.197571 3.302133 0.197612
v -0.303357 2.678709 0.303429
v -0.378716 2.333043 0.378794
v -0.484750 1.974219 0.484827
v -0.577144 1.661690 0.577210
v -0.645518 1.409451 0.645576
v -0.687821 1.208129 0.687866
v -0.703117 1.011134 0.703150
v -0.690934 0.813704 0.690956
v -0.651764 0.623672 0.651776
v -0.587153 0.448548 0.587155
v -0.499657 0.295201 0.499658
v -0.392733 0.169573 0.392734
v -0.270575 0.076445 0.270575
v -0.137950 0.019256 0.137950
v -0.239854 3.301891 0.146127
v -0.361672 2.678437 0.232408
v -0.449082 2.332757 0.293080
v -0.572700 1.973917 0.377688
v -0.680555 1.661391 0.451222
v -0.760422 1.409169 0.505583
v -0.809796 1.207872 0.539248
v -0.827483 1.010915 0.551618
v -0.812912 0.813532 0.542334
v -0.766659 0.623548 0.511776
v -0.690556 0.448467 0.461157
v -0.587595 0.295156 0.392506
v -0.461825 0.169553 0.308545
v -0.318167 0.076438 0.212585
v -0.162212 0.019256 0.108387
v -0.271288 3.301177 0.087388
v -0.405020 2.677639 0.151381
v -0.501390 2.331919 0.195290
v -0.638067 1.973030 0.255453
v -0.757415 1.660514 0.307484
v -0.845816 1.408341 0.345866
v -0.900442 1.207120 0.369691
v -0.919898 1.010273 0.378736
v -0.903552 0.813025 0.372772
v -0.852041 0.623182 0.352051
v -0.767391 0.448230 0.317408
v -0.652938 0.295023 0.270257
v -0.513166 0.169493 0.212494
v -0.353530 0.076420 0.146424
v -0.180240 0.019253 0.074658
v -0.290668 3.300022 0.023652
v -0.431728 2.676346 0.063462
v -0.533609 2.330560 0.089182
v -0.678331 1.971593 0.122820
v -0.804749 1.659091 0.151520
v -0.898410 1.407001 0.172563
v -0.956267 1.205900 0.185710
v -0.976817 1.009233 0.191149
v -0.959371 0.812204 0.188787
v -0.904614 0.622589 0.178740
v -0.814706 0.447846 0.161431
v -0.693177 0.294808 0.137609
v -0.544781 0.169396 0.108273
v -0.375307 0.076390 0.074635
v -0.191342 0.019249 0.038061
v -0.297242 3.298468 -0.042630
v -0.440772 2.674609 -0.027971
v -0.544515 2.328735 -0.021167
v -0.691954 1.969663 -0.015113
v -0.820755 1.657181 -0.010678
v -0.916176 1.405202 -0.007666
v -0.975134 1.204263 -0.005623
v -0.996039 1.007835 -0.003935
v -0.978223 0.811101 -0.002550
v -0.922374 0.621792 -0.001498
v -0.830690 0.447331 -0.000779
v -0.706771 0.294520 -0.000340
v -0.555456 0.169266 -0.000113
v -0.382660 0.076349 -0.000022
v -0.195090 0.019244 0.000000
v -0.290759 3.296578 -0.108913
v -0.431812 2.672494 -0.119404
v -0.533685 2.326513 -0.131517
v -0.678400 1.967314 -0.153046
v -0.804802 1.654858 -0.172876
v -0.898448 1.403013 -0.187895
v -0.956305 1.202271 -0.196956
v -0.976840 1.006136 -0.199019
v -0.959386 0.809759 -0.193888
v -0.904622 0.620824 -0.181736
v -0.814714 0.446704 -0.162990
v -0.693184 0.294168 -0.138290
v -0.544781 0.169107 -0.108500
v -0.375307 0.076300 -0.074680
v -0.191342 0.019238 -0.038060
v -0.271463 3.294422 -0.172648
v -0.405180 2.670084 -0.207324
v -0.501535 2.323981 -0.237625
v -0.638196 1.964639 -0.285679
v -0.757521 1.652212 -0.328841
v -0.845900 1.400520 -0.361198
v -0.900510 1.200004 -0.380936
v -0.919943 1.004201 -0.386607
v -0.903582 0.808232 -0.377873
v -0.852056 0.619721 -0.355047
v -0.767399 0.445989 -0.318967
v -0.652946 0.293768 -0.270938
v -0.513165 0.168926 -0.212721
v -0.353530 0.076244 -0.146469
v -0.180240 0.019231 -0.074657
v -0.240105 3.292086 -0.231387
v -0.361908 2.667473 -0.288350
v -0.449296 2.321238 -0.335415
v -0.572891 1.961740 -0.407914
v -0.680715 1.649347 -0.472579
v -0.760552 1.397822 -0.520915
v -0.809895 1.197550 -0.550494
v -0.827551 1.002107 -0.559488
v -0.812950 0.806579 -0.547434
v -0.766681 0.618527 -0.514772
v -0.690563 0.445216 -0.462716
v -0.587602 0.293335 -0.393187
v -0.461825 0.168731 -0.308771
v -0.318167 0.076183 -0.212630
v -0.162212 0.019223 -0.108386
v -0.197890 3.289659 -0.282873
v -0.303653 2.664760 -0.359371
v -0.378983 2.318390 -0.421129
v -0.484986 1.958732 -0.515054
v -0.577342 1.646373 -0.598566
v -0.645678 1.395022 -0.660908
v -0.687943 1.195003 -0.699112
v -0.703200 0.999934 -0.711020
v -0.690987 0.804864 -0.696056
v -0.651794 0.617288 -0.654772
v -0.587167 0.444413 -0.588713
v -0.499665 0.292885 -0.500339
v -0.392733 0.168527 -0.392960
v -0.270575 0.076120 -0.270620
v -0.137950 0.019215 -0.137949
v -0.146435 3.287234 -0.325125
v -0.232655 2.662051 -0.417656
v -0.293291 2.315546 -0.491472
v -0.377869 1.955729 -0.602981
v -0.451370 1.643405 -0.701962
v -0.505700 1.392228 -0.775797
v -0.539332 1.192463 -0.821079
v -0.551676 0.997767 -0.835379
v -0.542372 0.803153 -0.818026
v -0.511794 0.616051 -0.769667
v -0.461170 0.443612 -0.692116
v -0.392512 0.292436 -0.588277
v -0.308544 0.168324 -0.462052
v -0.212585 0.076056 -0.318212
v -0.108386 0.019206 -0.162211
v -0.087711 3.284903 -0.356522
v -0.151651 2.659449 -0.460966
v -0.195516 2.312815 -0.543742
v -0.255649 1.952847 -0.668317
v -0.307647 1.640558 -0.778791
v -0.345990 1.389547 -0.861168
v -0.369782 1.190025 -0.911710
v -0.378802 0.995688 -0.927786
v -0.372811 0.801511 -0.908659
v -0.352070 0.614865 -0.855041
v -0.317421 0.442843 -0.768952
v -0.270263 0.292005 -0.653620
v -0.212493 0.168129 -0.513393
v -0.146424 0.075996 -0.353576
v -0.074658 0.019199 -0.180240
v -0.023990 3.282758 -0.375856
v -0.063739 2.657054 -0.487636
v -0.089415 2.310302 -0.575929
v -0.123024 1.950194 -0.708550
v -0.151689 1.637938 -0.826102
v -0.172695 1.387082 -0.913739
v -0.185809 1.187784 -0.967519
v -0.191214 0.993776 -0.984690
v -0.188834 0.800002 -0.964470
v -0.178766 0.613774 -0.907615
v -0.161444 0.442136 -0.816267
v -0.137615 0.291609 -0.693858
v -0.108272 0.167950 -0.545008
v -0.074635 0.075940 -0.375352
v -0.038060 0.019191 -0.191341
v 0.001472 0.612820 -0.925367
v 0.000767 0.441518 -0.832243
v 0.000334 0.291262 -0.707445
v 0.000023 0.075891 -0.382706
v 0.000000 0.019185 -0.195090
vn 0.0040 0.1795 -0.9838
vn 0.0044 0.2162 -0.9764
vn 0.0053 0.3029 -0.9530
vn 0.0053 0.3551 -0.9348
vn 0.0044 0.3469 -0.9379
vn 0.0033 0.3003 -0.9538
vn 0.0017 0.1776 -0.9841
vn -0.0000 -0.0079 -1.0000
vn -0.0013 -0.2015 -0.9795
vn -0.0012 -0.8305 -0.5569
vn 0.1950 0.1756 -0.9650
vn 0.1939 0.2126 -0.9577
vn 0.1901 0.3002 -0.9348
vn 0.1866 0.3529 -0.9169
vn 0.1865 0.3452 -0.9198
vn 0.1887 0.2988 -0.9355
vn 0.1933 0.1762 -0.9652
vn 0.1950 -0.0093 -0.9808
vn 0.1901 -0.2029 -0.9606
vn 0.1783 -0.3885 -0.9040
vn 0.1602 -0.5591 -0.8135
vn 0.1364 -0.7083 -0.6926
vn 0.1076 -0.8309 -0.5460
vn 0.0748 -0.9225 -0.3786
vn 0.0388 -0.9797 -0.1965
vn 0.3788 0.1726 -0.9092
vn 0.3762 0.2100 -0.9024
vn 0.3678 0.2981 -0.8808
vn 0.3609 0.3513 -0.8639
vn 0.3615 0.3438 -0.8667
vn 0.3669 0.2977 -0.8813
vn 0.3776 0.1752 -0.9093
vn 0.3826 -0.0103 -0.9238
vn 0.3740 -0.2039 -0.9047
vn 0.3515 -0.3894 -0.8514
vn 0.3161 -0.5598 -0.7660
vn 0.2691 -0.7087 -0.6521
vn 0.2122 -0.8311 -0.5140
vn 0.1473 -0.9226 -0.3565
vn 0.0765 -0.9798 -0.1850
vn 0.5481 0.1709 -0.8188
vn 0.5442 0.2084 -0.8126
vn 0.5316 0.2968 -0.7933
vn 0.5215 0.3503 -0.7780
vn 0.5228 0.3430 -0.7804
vn 0.5312 0.2970 -0.7935
vn 0.5474 0.1746 -0.8185
vn 0.5555 -0.0109 -0.8314
vn 0.5435 -0.2045 -0.8141
vn 0.5112 -0.3899 -0.7659
vn 0.4598 -0.5602 -0.6891
vn 0.3914 -0.7090 -0.5866
vn 0.3085 -0.8313 -0.4624
vn 0.2141 -0.9227 -0.3207
vn 0.1111 -0.9798 -0.1665
vn 0.6966 0.1703 -0.6970
vn 0.6915 0.2079 -0.6918
vn 0.6752 0.2964 -0.6755
vn 0.6623 0.3499 -0.6625
vn 0.6642 0.3428 -0.6643
vn 0.6752 0.2968 -0.6753
vn 0.6962 0.1743 -0.6963
vn 0.7070 -0.0111 -0.7071
vn 0.6921 -0.2047 -0.6922
vn 0.6511 -0.3901 -0.6511
vn 0.5857 -0.5603 -0.5857
vn 0.4986 -0.7091 -0.4986
vn 0.3930 -0.8313 -0.3930
vn 0.2726 -0.9227 -0.2726
vn 0.1415 -0.9798 -0.1415
vn 0.8184 0.1709 -0.5486
vn 0.8124 0.2084 -0.5446
vn 0.7931 0.2968 -0.5319
vn 0.7779 0.3503 -0.5217
vn 0.7803 0.3430 -0.5230
vn 0.7934 0.2970 -0.5313
vn 0.8184 0.1746 -0.5475
vn 0.8314 -0.0109 -0.5556
vn 0.8141 -0.2045 -0.5436
vn 0.7659 -0.3899 -0.5112
vn 0.6891 -0.5602 -0.4598
vn 0.5866 -0.7090 -0.3914
vn 0.4624 -0.8313 -0.3085
vn 0.3207 -0.9227 -0.2141
vn 0.1665 -0.9798 -0.1111
vn 0.9090 0.1727 -0.3793
vn 0.9022 0.2100 -0.3766
vn 0.8807 0.2981 -0.3681
vn 0.8638 0.3513 -0.3611
vn 0.8666 0.3439 -0.3617
vn 0.8813 0.2977 -0.3670
vn 0.9092 0.1752 -0.3777
vn 0.9238 -0.0103 -0.3827
vn 0.9047 -0.2039 -0.3740
vn 0.8514 -0.3894 -0.3515
vn 0.7660 -0.5598 -0.3161
vn 0.6521 -0.7087 -0.2691
vn 0.5140 -0.8311 -0.2122
vn 0.3565 -0.9226 -0.1473
vn 0.1850 -0.9798 -0.0765
vn 0.9648 0.1756 -0.1955
vn 0.9576 0.2127 -0.1944
vn 0.9347 0.3002 -0.1904
vn 0.9168 0.3529 -0.1868
vn 0.9198 0.3452 -0.1866
vn 0.9355 0.2988 -0.1888
vn 0.9652 0.1762 -0.1934
vn 0.9807 -0.0092 -0.1951
vn 0.9606 -0.2029 -0.1901
vn 0.9040 -0.3885 -0.1783
vn 0.8135 -0.5591 -0.1602
vn 0.6926 -0.7083 -0.1364
vn 0.5460 -0.8309 -0.1076
vn 0.3786 -0.9225 -0.0748
vn 0.1965 -0.9797 -0.0388
vn 0.9837 0.1795 -0.0045
vn 0.9763 0.2162 -0.0049
vn 0.9530 0.3030 -0.0056
vn 0.9348 0.3552 -0.0056
vn 0.9379 0.3470 -0.0046
vn 0.9538 0.3003 -0.0034
vn 0.9841 0.1776 -0.0018
vn 1.0000 -0.0079 -0.0000
vn 0.9795 -0.2015 0.0012
vn 0.9220 -0.3873 0.0019
vn 0.8298 -0.5581 0.0020
vn 0.7066 -0.7076 0.0017
vn 0.5570 -0.8305 0.0012
vn 0.3862 -0.9224 0.0007
vn 0.2004 -0.9797 0.0003
vn 0.9650 0.1843 0.1865
vn 0.9577 0.2205 0.1847
vn 0.9349 0.3064 0.1792
vn 0.9171 0.3579 0.1757
vn 0.9201 0.3491 0.1775
vn 0.9357 0.3021 0.1821
vn 0.9653 0.1793 0.1899
vn 0.9808 -0.0062 0.1951
vn 0.9607 -0.1999 0.1926
vn 0.9044 -0.3858 0.1821
vn 0.8141 -0.5570 0.1643
vn 0.6934 -0.7069 0.1400
vn 0.5466 -0.8301 0.1102
vn 0.3790 -0.9223 0.0762
vn 0.1966 -0.9797 0.0395
vn 0.9094 0.1898 0.3702
vn 0.9025 0.2254 0.3669
vn 0.8811 0.3103 0.3570
vn 0.8644 0.3609 0.3501
vn 0.8672 0.3516 0.3527
vn 0.8818 0.3042 0.3604
vn 0.9095 0.1813 0.3742
vn 0.9239 -0.0043 0.3826
vn 0.9050 -0.1980 0.3766
vn 0.8520 -0.3842 0.3556
vn 0.7671 -0.5557 0.3206
vn 0.6534 -0.7060 0.2731
vn 0.5151 -0.8297 0.2151
vn 0.3572 -0.9221 0.1489
vn 0.1852 -0.9797 0.0771
vn 0.8189 0.1957 0.5395
vn 0.8128 0.2307 0.5349
vn 0.7936 0.3145 0.5208
vn 0.7786 0.3643 0.5109
vn 0.7811 0.3543 0.5142
vn 0.7941 0.3065 0.5249
vn 0.8187 0.1834 0.5441
vn 0.8315 -0.0022 0.5555
vn 0.8144 -0.1960 0.5462
vn 0.7668 -0.3824 0.5155
vn 0.6905 -0.5542 0.4647
vn 0.5883 -0.7050 0.3960
vn 0.4638 -0.8292 0.3120
vn 0.3216 -0.9219 0.2160
vn 0.1667 -0.9796 0.1119
vn 0.6972 0.2019 0.6879
vn 0.6921 0.2363 0.6821
vn 0.6759 0.3189 0.6645
vn 0.6632 0.3678 0.6519
vn 0.6651 0.3571 0.6558
vn 0.6760 0.3088 0.6691
vn 0.6966 0.1855 0.6930
vn 0.7072 -0.0000 0.7071
vn 0.6925 -0.1939 0.6949
vn 0.6521 -0.3805 0.6558
vn 0.5873 -0.5528 0.5912
vn 0.5004 -0.7041 0.5039
vn 0.3946 -0.8286 0.3970
vn 0.2736 -0.9217 0.2750
vn 0.1418 -0.9796 0.1424
vn 0.5489 0.2080 0.8096
vn 0.5449 0.2418 0.8029
vn 0.5324 0.3233 0.7823
vn 0.5224 0.3713 0.7676
vn 0.5237 0.3600 0.7721
vn 0.5319 0.3112 0.7875
vn 0.5478 0.1877 0.8153
vn 0.5556 0.0022 0.8314
vn 0.5439 -0.1918 0.8169
vn 0.5121 -0.3787 0.7710
vn 0.4612 -0.5513 0.6952
vn 0.3931 -0.7031 0.5926
vn 0.3100 -0.8281 0.4670
vn 0.2149 -0.9215 0.3234
vn 0.1114 -0.9796 0.1675
vn -0.0001 -1.0000 0.0001
vn 0.3797 0.2139 0.9000
vn 0.3770 0.2471 0.8926
vn 0.3686 0.3275 0.8700
vn 0.3617 0.3746 0.8537
vn 0.3623 0.3627 0.8586
vn 0.3676 0.3135 0.8756
vn 0.3779 0.1898 0.9062
vn 0.3828 0.0043 0.9238
vn 0.3743 -0.1898 0.9077
vn 0.3522 -0.3769 0.8567
vn 0.3173 -0.5499 0.7727
vn 0.2704 -0.7021 0.6587
vn 0.2133 -0.8276 0.5192
vn 0.1479 -0.9213 0.3595
vn 0.0767 -0.9795 0.1861
vn 0.1960 0.2194 0.9557
vn 0.1948 0.2520 0.9479
vn 0.1908 0.3314 0.9240
vn 0.1873 0.3777 0.9068
vn 0.1870 0.3652 0.9120
vn 0.1891 0.3156 0.9299
vn 0.1936 0.1918 0.9622
vn 0.1952 0.0062 0.9807
vn 0.1903 -0.1880 0.9636
vn 0.1787 -0.3752 0.9095
vn 0.1608 -0.5486 0.8205
vn 0.1371 -0.7012 0.6996
vn 0.1082 -0.8271 0.5515
vn 0.0751 -0.9212 0.3819
vn 0.0389 -0.9795 0.1976
vn 0.0050 0.2242 0.9745
vn 0.0053 0.2563 0.9666
vn 0.0059 0.3348 0.9423
vn 0.0058 0.3804 0.9248
vn 0.0047 0.3674 0.9301
vn 0.0035 0.3174 0.9483
vn 0.0018 0.1935 0.9811
vn 0.0001 0.0079 1.0000
vn -0.0012 -0.1863 0.9825
vn -0.0018 -0.3738 0.9275
vn -0.0020 -0.5474 0.8369
vn -0.0017 -0.7005 0.7137
vn -0.0012 -0.8267 0.5626
vn -0.0007 -0.9210 0.3895
vn -0.0003 -0.9795 0.2016
vn -0.1860 0.2281 0.9557
vn -0.1842 0.2598 0.9479
vn -0.1790 0.3376 0.9241
vn -0.1757 0.3827 0.9070
vn -0.1776 0.3692 0.9122
vn -0.1822 0.3189 0.9301
vn -0.1899 0.1949 0.9623
vn -0.1950 0.0093 0.9808
vn -0.1926 -0.1850 0.9637
vn -0.1825 -0.3726 0.9099
vn -0.1649 -0.5465 0.8211
vn -0.1407 -0.6998 0.7003
vn -0.1108 -0.8264 0.5521
vn -0.0766 -0.9209 0.3822
vn -0.0396 -0.9795 0.1977
vn -0.3697 0.2310 0.9000
vn -0.3665 0.2625 0.8926
vn -0.3569 0.3397 0.8702
vn -0.3503 0.3843 0.8541
vn -0.3530 0.3705 0.8591
vn -0.3608 0.3200 0.8760
vn -0.3743 0.1959 0.9064
vn -0.3826 0.0103 0.9239
vn -0.3767 -0.1840 0.9079
vn -0.3562 -0.3717 0.8573
vn -0.3217 -0.5458 0.7738
vn -0.2744 -0.6994 0.6600
vn -0.2162 -0.8262 0.5203
vn -0.1496 -0.9208 0.3602
vn -0.0774 -0.9794 0.1863
vn -0.5390 0.2328 0.8095
vn -0.5345 0.2641 0.8029
vn -0.5208 0.3410 0.7826
vn -0.5113 0.3853 0.7682
vn -0.5147 0.3713 0.7728
vn -0.5254 0.3207 0.7881
vn -0.5443 0.1966 0.8156
vn -0.5555 0.0109 0.8314
vn -0.5464 -0.1834 0.8172
vn -0.5163 -0.3711 0.7718
vn -0.4661 -0.5453 0.6967
vn -0.3977 -0.6991 0.5943
vn -0.3134 -0.8260 0.4685
vn -0.2169 -0.9207 0.3243
vn -0.1122 -0.9794 0.1677
vn -0.6874 0.2334 0.6878
vn -0.6818 0.2646 0.6820
vn -0.6645 0.3414 0.6647
vn -0.6523 0.3857 0.6525
vn -0.6564 0.3716 0.6565
vn -0.6697 0.3209 0.6697
vn -0.6933 0.1968 0.6933
vn -0.7070 0.0111 0.7071
vn -0.6951 -0.1832 0.6952
vn -0.6566 -0.3709 0.6567
vn -0.5928 -0.5452 0.5928
vn -0.5057 -0.6990 0.5057
vn -0.3986 -0.8259 0.3986
vn -0.2759 -0.9207 0.2759
vn -0.1427 -0.9794 0.1427
vn -0.8092 0.2328 0.5394
vn -0.8026 0.2641 0.5348
vn -0.7824 0.3410 0.5211
vn -0.7681 0.3853 0.5114
vn -0.7727 0.3713 0.5148
vn -0.7881 0.3207 0.5255
vn -0.8155 0.1965 0.5443
vn -0.8314 0.0109 0.5555
vn -0.8172 -0.1834 0.5464
vn -0.7718 -0.3711 0.5163
vn -0.6967 -0.5453 0.4662
vn -0.5943 -0.6991 0.3977
vn -0.4685 -0.8260 0.3134
vn -0.3243 -0.9207 0.2169
vn -0.1677 -0.9794 0.1122
vn -0.8998 0.2310 0.3702
vn -0.8925 0.2624 0.3669
vn -0.8701 0.3397 0.3572
vn -0.8541 0.3843 0.3505
vn -0.8591 0.3705 0.3532
vn -0.8760 0.3200 0.3609
vn -0.9063 0.1959 0.3744
vn -0.9238 0.0103 0.3827
vn -0.9078 -0.1840 0.3768
vn -0.8573 -0.3717 0.3562
vn -0.7737 -0.5458 0.3217
vn -0.6600 -0.6994 0.2744
vn -0.5203 -0.8262 0.2162
vn -0.3602 -0.9208 0.1496
vn -0.1863 -0.9794 0.0774
vn -0.9556 0.2281 0.1865
vn -0.9478 0.2598 0.1847
vn -0.9241 0.3376 0.1793
vn -0.9070 0.3826 0.1760
vn -0.9122 0.3691 0.1778
vn -0.9301 0.3189 0.1823
vn -0.9623 0.1949 0.1900
vn -0.9807 0.0093 0.1951
vn -0.9637 -0.1850 0.1927
vn -0.9099 -0.3726 0.1825
vn -0.8211 -0.5465 0.1649
vn -0.7003 -0.6998 0.1407
vn -0.5521 -0.8264 0.1108
vn -0.3822 -0.9209 0.0766
vn -0.1977 -0.9795 0.0396
vn -0.9746 0.2241 -0.0045
vn -0.9666 0.2563 -0.0048
vn -0.9423 0.3348 -0.0056
vn -0.9248 0.3804 -0.0056
vn -0.9301 0.3673 -0.0046
vn -0.9483 0.3174 -0.0034
vn -0.9811 0.1935 -0.0018
vn -1.0000 0.0079 -0.0000
vn -0.9825 -0.1863 0.0012
vn -0.9275 -0.3738 0.0019
vn -0.8369 -0.5474 0.0020
vn -0.7137 -0.7005 0.0017
vn -0.5626 -0.8267 0.0012
vn -0.3895 -0.9210 0.0007
vn -0.2016 -0.9795 0.0003
vn -0.9559 0.2193 -0.1955
vn -0.9480 0.2520 -0.1944
vn -0.9241 0.3314 -0.1905
vn -0.9068 0.3777 -0.1871
vn -0.9120 0.3651 -0.1869
vn -0.9299 0.3155 -0.1890
vn -0.9622 0.1918 -0.1935
vn -0.9808 0.0062 -0.1951
vn -0.9636 -0.1880 -0.1902
vn -0.9095 -0.3752 -0.1787
vn -0.8205 -0.5486 -0.1608
vn -0.6996 -0.7012 -0.1371
vn -0.5514 -0.8272 -0.1082
vn -0.3819 -0.9212 -0.0751
vn -0.1976 -0.9795 -0.0389
vn -0.9003 0.2139 -0.3792
vn -0.8928 0.2471 -0.3766
vn -0.8701 0.3275 -0.3683
vn -0.8538 0.3746 -0.3615
vn -0.8587 0.3626 -0.3621
vn -0.8756 0.3134 -0.3675
vn -0.9062 0.1898 -0.3778
vn -0.9239 0.0042 -0.3827
vn -0.9077 -0.1898 -0.3743
vn -0.8567 -0.3769 -0.3522
vn -0.7727 -0.5499 -0.3172
vn -0.6587 -0.7021 -0.2704
vn -0.5192 -0.8276 -0.2133
vn -0.3595 -0.9213 -0.1479
vn -0.1861 -0.9795 -0.0767
vn -0.8099 0.2080 -0.5485
vn -0.8031 0.2417 -0.5445
vn -0.7825 0.3232 -0.5321
vn -0.7678 0.3712 -0.5222
vn -0.7722 0.3599 -0.5236
vn -0.7876 0.3111 -0.5319
vn -0.8154 0.1877 -0.5477
vn -0.8315 0.0022 -0.5556
vn -0.8170 -0.1918 -0.5438
vn -0.7710 -0.3787 -0.5120
vn -0.6952 -0.5513 -0.4612
vn -0.5926 -0.7031 -0.3931
vn -0.4670 -0.8281 -0.3100
vn -0.3234 -0.9215 -0.2149
vn -0.1675 -0.9796 -0.1114
vn -0.6882 0.2018 -0.6969
vn -0.6824 0.2362 -0.6918
vn -0.6647 0.3188 -0.6757
vn -0.6520 0.3677 -0.6630
vn -0.6559 0.3571 -0.6650
vn -0.6692 0.3088 -0.6759
vn -0.6931 0.1855 -0.6966
vn -0.7071 -0.0000 -0.7071
vn -0.6949 -0.1939 -0.6925
vn -0.6558 -0.3805 -0.6520
vn -0.5912 -0.5528 -0.5873
vn -0.5038 -0.7041 -0.5004
vn -0.3970 -0.8287 -0.3946
vn -0.2750 -0.9217 -0.2736
vn -0.1424 -0.9796 -0.1418
vn -0.5399 0.1956 -0.8187
vn -0.5352 0.2307 -0.8126
vn -0.5211 0.3145 -0.7935
vn -0.5111 0.3643 -0.7785
vn -0.5143 0.3543 -0.7810
vn -0.5250 0.3064 -0.7940
vn -0.5442 0.1833 -0.8187
vn -0.5556 -0.0022 -0.8315
vn -0.5462 -0.1960 -0.8144
vn -0.5155 -0.3824 -0.7668
vn -0.4647 -0.5542 -0.6905
vn -0.3959 -0.7051 -0.5883
vn -0.3120 -0.8292 -0.4638
vn -0.2160 -0.9219 -0.3216
vn -0.1119 -0.9796 -0.1667
vn -0.3707 0.1897 -0.9092
vn -0.3673 0.2253 -0.9024
vn -0.3573 0.3102 -0.8810
vn -0.3503 0.3609 -0.8643
vn -0.3528 0.3516 -0.8671
vn -0.3606 0.3042 -0.8817
vn -0.3743 0.1812 -0.9094
vn -0.3827 -0.0043 -0.9239
vn -0.3766 -0.1981 -0.9050
vn -0.3556 -0.3842 -0.8520
vn -0.3206 -0.5557 -0.7671
vn -0.2731 -0.7060 -0.6534
vn -0.2151 -0.8297 -0.5151
vn -0.1489 -0.9221 -0.3572
vn -0.0771 -0.9797 -0.1852
vn -0.1871 0.1843 -0.9649
vn -0.1851 0.2204 -0.9577
vn -0.1795 0.3064 -0.9348
vn -0.1760 0.3578 -0.9171
vn -0.1777 0.3491 -0.9201
vn -0.1822 0.3021 -0.9357
vn -0.1900 0.1793 -0.9653
vn -0.1951 -0.0062 -0.9808
vn -0.1926 -0.1999 -0.9607
vn -0.1821 -0.3859 -0.9044
vn -0.1643 -0.5570 -0.8141
vn -0.1400 -0.7069 -0.6933
vn -0.1102 -0.8301 -0.5466
vn -0.0762 -0.9223 -0.3790
vn -0.0395 -0.9797 -0.1966
vn -0.0019 -0.3873 -0.9219
vn -0.0020 -0.5581 -0.8298
vn -0.0017 -0.7076 -0.7066
vn -0.0007 -0.9224 -0.3862
vn -0.0003 -0.9797 -0.2004
vt 0.750000 0.250000
vt 0.750000 0.312500
vt 0.718750 0.312500
vt 0.718750 0.250000
vt 0.750000 0.687500
vt 0.750000 0.750000
vt 0.718750 0.750000
vt 0.718750 0.687500
vt 0.750000 0.187500
vt 0.718750 0.187500
vt 0.750000 0.625000
vt 0.718750 0.625000
vt 0.750000 0.125000
vt 0.718750 0.125000
vt 0.750000 0.562500
vt 0.718750 0.562500
vt 0.750000 0.062500
vt 0.718750 0.062500
vt 0.750000 0.500000
vt 0.718750 0.500000
vt 0.734375 0.000000
vt 0.750000 0.437500
vt 0.718750 0.437500
vt 0.750000 0.875000
vt 0.750000 0.937500
vt 0.718750 0.937500
vt 0.718750 0.875000
vt 0.750000 0.375000
vt 0.718750 0.375000
vt 0.750000 0.812500
vt 0.718750 0.812500
vt 0.687500 0.875000
vt 0.687500 0.812500
vt 0.687500 0.375000
vt 0.687500 0.312500
vt 0.687500 0.750000
vt 0.687500 0.250000
vt 0.687500 0.687500
vt 0.687500 0.187500
vt 0.687500 0.625000
vt 0.687500 0.125000
vt 0.687500 0.562500
vt 0.687500 0.062500
vt 0.687500 0.500000
vt 0.703125 0.000000
vt 0.687500 0.437500
vt 0.687500 0.937500
vt 0.656250 0.625000
vt 0.656250 0.562500
vt 0.656250 0.125000
vt 0.656250 0.062500
vt 0.656250 0.500000
vt 0.671875 0.000000
vt 0.656250 0.437500
vt 0.656250 0.937500
vt 0.656250 0.875000
vt 0.656250 0.375000
vt 0.656250 0.812500
vt 0.656250 0.312500
vt 0.656250 0.750000
vt 0.656250 0.250000
vt 0.656250 0.687500
vt 0.656250 0.187500
vt 0.625000 0.375000
vt 0.625000 0.312500
vt 0.625000 0.812500
vt 0.625000 0.750000
vt 0.625000 0.250000
vt 0.625000 0.687500
vt 0.625000 0.187500
vt 0.625000 0.625000
vt 0.625000 0.125000
vt 0.625000 0.562500
vt 0.625000 0.062500
vt 0.625000 0.500000
vt 0.640625 0.000000
vt 0.625000 0.437500
vt 0.625000 0.937500
vt 0.625000 0.875000
vt 0.593750 0.125000
vt 0.593750 0.062500
vt 0.593750 0.562500
vt 0.593750 0.500000
vt 0.609375 0.000000
vt 0.593750 0.437500
vt 0.593750 0.937500
vt 0.593750 0.875000
vt 0.593750 0.375000
vt 0.593750 0.812500
vt 0.593750 0.312500
vt 0.593750 0.750000
vt 0.593750 0.250000
vt 0.593750 0.687500
vt 0.593750 0.187500
vt 0.593750 0.625000
vt 0.562500 0.312500
vt 0.562500 0.250000
vt 0.562500 0.750000
vt 0.562500 0.687500
vt 0.562500 0.187500
vt 0.562500 0.625000
vt 0.562500 0.125000
vt 0.562500 0.562500
vt 0.562500 0.062500
vt 0.562500 0.500000
vt 0.578125 0.000000
vt 0.562500 0.437500
vt 0.562500 0.937500
vt 0.562500 0.875000
vt 0.562500 0.375000
vt 0.562500 0.812500
vt 0.546875 0.000000
vt 0.531250 0.062500
vt 0.531250 0.500000
vt 0.531250 0.437500
vt 0.531250 0.937500
vt 0.531250 0.875000
vt 0.531250 0.375000
vt 0.531250 0.812500
vt 0.531250 0.312500
vt 0.531250 0.750000
vt 0.531250 0.250000
vt 0.531250 0.687500
vt 0.531250 0.187500
vt 0.531250 0.625000
vt 0.531250 0.125000
vt 0.531250 0.562500
vt 0.500000 0.750000
vt 0.500000 0.687500
vt 0.500000 0.250000
vt 0.500000 0.187500
vt 0.500000 0.625000
vt 0.500000 0.125000
vt 0.500000 0.562500
vt 0.500000 0.062500
vt 0.500000 0.500000
vt 0.515625 0.000000
vt 0.500000 0.437500
vt 0.500000 0.937500
vt 0.500000 0.875000
vt 0.500000 0.375000
vt 0.500000 0.812500
vt 0.500000 0.312500
vt 0.468750 0.500000
vt 0.468750 0.437500
vt 0.468750 0.937500
vt 0.468750 0.875000
vt 0.468750 0.375000
vt 0.468750 0.812500
vt 0.468750 0.312500
vt 0.468750 0.750000
vt 0.468750 0.250000
vt 0.468750 0.687500
vt 0.468750 0.187500
vt 0.468750 0.625000
vt 0.468750 0.125000
vt 0.468750 0.562500
vt 0.468750 0.062500
vt 0.484375 0.000000
vt 0.437500 0.250000
vt 0.437500 0.187500
vt 0.437500 0.687500
vt 0.437500 0.625000
vt 0.437500 0.125000
vt 0.437500 0.562500
vt 0.437500 0.062500
vt 0.437500 0.500000
vt 0.453125 0.000000
vt 0.437500 0.437500
vt 0.437500 0.937500
vt 0.437500 0.875000
vt 0.437500 0.375000
vt 0.437500 0.812500
vt 0.437500 0.312500
vt 0.437500 0.750000
vt 0.406250 0.937500
vt 0.406250 0.875000
vt 0.406250 0.437500
vt 0.406250 0.375000
vt 0.406250 0.812500
vt 0.406250 0.312500
vt 0.406250 0.750000
vt 0.406250 0.250000
vt 0.406250 0.687500
vt 0.406250 0.187500
vt 0.406250 0.625000
vt 0.406250 0.125000
vt 0.406250 0.562500
vt 0.406250 0.062500
vt 0.406250 0.500000
vt 0.421875 0.000000
vt 0.375000 0.687500
vt 0.375000 0.625000
vt 0.375000 0.187500
vt 0.375000 0.125000
vt 0.375000 0.562500
vt 0.375000 0.062500
vt 0.375000 0.500000
vt 0.390625 0.000000
vt 0.375000 0.437500
vt 0.375000 0.937500
vt 0.375000 0.875000
vt 0.375000 0.375000
vt 0.375000 0.812500
vt 0.375000 0.312500
vt 0.375000 0.750000
vt 0.375000 0.250000
vt 0.343750 0.437500
vt 0.343750 0.375000
vt 0.343750 0.875000
vt 0.343750 0.812500
vt 0.343750 0.312500
vt 0.343750 0.750000
vt 0.343750 0.250000
vt 0.343750 0.687500
vt 0.343750 0.187500
vt 0.343750 0.625000
vt 0.343750 0.125000
vt 0.343750 0.562500
vt 0.343750 0.062500
vt 0.343750 0.500000
vt 0.359375 0.000000
vt 0.343750 0.937500
vt 0.312500 0.187500
vt 0.312500 0.125000
vt 0.312500 0.625000
vt 0.312500 0.562500
vt 0.312500 0.062500
vt 0.312500 0.500000
vt 0.328125 0.000000
vt 0.312500 0.437500
vt 0.312500 0.937500
vt 0.312500 0.875000
vt 0.312500 0.375000
vt 0.312500 0.812500
vt 0.312500 0.312500
vt 0.312500 0.750000
vt 0.312500 0.250000
vt 0.312500 0.687500
vt 0.281250 0.375000
vt 0.281250 0.312500
vt 0.281250 0.812500
vt 0.281250 0.750000
vt 0.281250 0.250000
vt 0.281250 0.687500
vt 0.281250 0.187500
vt 0.281250 0.625000
vt 0.281250 0.125000
vt 0.281250 0.562500
vt 0.281250 0.062500
vt 0.281250 0.500000
vt 0.296875 0.000000
vt 0.281250 0.437500
vt 0.281250 0.937500
vt 0.281250 0.875000
vt 0.250000 0.125000
vt 0.250000 0.062500
vt 0.250000 0.562500
vt 0.250000 0.500000
vt 0.265625 0.000000
vt 0.250000 0.437500
vt 0.250000 0.937500
vt 0.250000 0.875000
vt 0.250000 0.375000
vt 0.250000 0.812500
vt 0.250000 0.312500
vt 0.250000 0.750000
vt 0.250000 0.250000
vt 0.250000 0.687500
vt 0.250000 0.187500
vt 0.250000 0.625000
vt 0.218750 0.812500
vt 0.218750 0.750000
vt 0.218750 0.312500
vt 0.218750 0.250000
vt 0.218750 0.687500
vt 0.218750 0.187500
vt 0.218750 0.625000
vt 0.218750 0.125000
vt 0.218750 0.562500
vt 0.218750 0.062500
vt 0.218750 0.500000
vt 0.234375 0.000000
vt 0.218750 0.437500
vt 0.218750 0.937500
vt 0.218750 0.875000
vt 0.218750 0.375000
vt 0.187500 0.562500
vt 0.187500 0.500000
vt 0.203125 0.000000
vt 0.187500 0.062500
vt 0.187500 0.437500
vt 0.187500 0.937500
vt 0.187500 0.875000
vt 0.187500 0.375000
vt 0.187500 0.812500
vt 0.187500 0.312500
vt 0.187500 0.750000
vt 0.187500 0.250000
vt 0.187500 0.687500
vt 0.187500 0.187500
vt 0.187500 0.625000
vt 0.187500 0.125000
vt 0.156250 0.312500
vt 0.156250 0.250000
vt 0.156250 0.750000
vt 0.156250 0.687500
vt 0.156250 0.187500
vt 0.156250 0.625000
vt 0.156250 0.125000
vt 0.156250 0.562500
vt 0.156250 0.062500
vt 0.156250 0.500000
vt 0.171875 0.000000
vt 0.156250 0.437500
vt 0.156250 0.937500
vt 0.156250 0.875000
vt 0.156250 0.375000
vt 0.156250 0.812500
vt 0.140625 0.000000
vt 0.125000 0.062500
vt 0.125000 0.500000
vt 0.125000 0.437500
vt 0.125000 0.937500
vt 0.125000 0.875000
vt 0.125000 0.375000
vt 0.125000 0.812500
vt 0.125000 0.312500
vt 0.125000 0.750000
vt 0.125000 0.250000
vt 0.125000 0.687500
vt 0.125000 0.187500
vt 0.125000 0.625000
vt 0.125000 0.125000
vt 0.125000 0.562500
vt 0.093750 0.750000
vt 0.093750 0.687500
vt 0.093750 0.250000
vt 0.093750 0.187500
vt 0.093750 0.625000
vt 0.093750 0.125000
vt 0.093750 0.562500
vt 0.093750 0.062500
vt 0.093750 0.500000
vt 0.109375 0.000000
vt 0.093750 0.437500
vt 0.093750 0.937500
vt 0.093750 0.875000
vt 0.093750 0.375000
vt 0.093750 0.812500
vt 0.093750 0.312500
vt 0.062500 0.500000
vt 0.062500 0.437500
vt 0.062500 0.937500
vt 0.062500 0.875000
vt 0.062500 0.375000
vt 0.062500 0.812500
vt 0.062500 0.312500
vt 0.062500 0.750000
vt 0.062500 0.250000
vt 0.062500 0.687500
vt 0.062500 0.187500
vt 0.062500 0.625000
vt 0.062500 0.125000
vt 0.062500 0.562500
vt 0.062500 0.062500
vt 0.078125 0.000000
vt 0.031250 0.250000
vt 0.031250 0.187500
vt 0.031250 0.687500
vt 0.031250 0.625000
vt 0.031250 0.125000
vt 0.031250 0.562500
vt 0.031250 0.062500
vt 0.031250 0.500000
vt 0.046875 0.000000
vt 0.031250 0.437500
vt 0.031250 0.937500
vt 0.031250 0.875000
vt 0.031250 0.375000
vt 0.031250 0.812500
vt 0.031250 0.312500
vt 0.031250 0.750000
vt 0.000000 0.437500
vt 0.000000 0.375000
vt 0.000000 0.875000
vt 0.000000 0.812500
vt 0.000000 0.312500
vt 0.000000 0.750000
vt 0.000000 0.250000
vt 0.000000 0.687500
vt 0.000000 0.187500
vt 0.000000 0.625000
vt 0.000000 0.125000
vt 0.000000 0.562500
vt 0.000000 0.062500
vt 0.000000 0.500000
vt 0.015625 0.000000
vt 0.000000 0.937500
vt 1.000000 0.125000
vt 1.000000 0.187500
vt 0.968750 0.187500
vt 0.968750 0.125000
vt 1.000000 0.562500
vt 1.000000 0.625000
vt 0.968750 0.625000
vt 0.968750 0.562500
vt 1.000000 0.062500
vt 0.968750 0.062500
vt 1.000000 0.500000
vt 0.968750 0.500000
vt 0.984375 0.000000
vt 1.000000 0.437500
vt 0.968750 0.437500
vt 1.000000 0.875000
vt 1.000000 0.937500
vt 0.968750 0.937500
vt 0.968750 0.875000
vt 1.000000 0.375000
vt 0.968750 0.375000
vt 1.000000 0.812500
vt 0.968750 0.812500
vt 1.000000 0.312500
vt 0.968750 0.312500
vt 1.000000 0.750000
vt 0.968750 0.750000
vt 1.000000 0.250000
vt 0.968750 0.250000
vt 1.000000 0.687500
vt 0.968750 0.687500
vt 0.937500 0.875000
vt 0.937500 0.812500
vt 0.937500 0.375000
vt 0.937500 0.312500
vt 0.937500 0.750000
vt 0.937500 0.250000
vt 0.937500 0.687500
vt 0.937500 0.187500
vt 0.937500 0.625000
vt 0.937500 0.125000
vt 0.937500 0.562500
vt 0.937500 0.062500
vt 0.937500 0.500000
vt 0.953125 0.000000
vt 0.937500 0.437500
vt 0.937500 0.937500
vt 0.906250 0.625000
vt 0.906250 0.562500
vt 0.906250 0.125000
vt 0.906250 0.062500
vt 0.906250 0.500000
vt 0.921875 0.000000
vt 0.906250 0.437500
vt 0.906250 0.937500
vt 0.906250 0.875000
vt 0.906250 0.375000
vt 0.906250 0.812500
vt 0.906250 0.312500
vt 0.906250 0.750000
vt 0.906250 0.250000
vt 0.906250 0.687500
vt 0.906250 0.187500
vt 0.875000 0.375000
vt 0.875000 0.312500
vt 0.875000 0.812500
vt 0.875000 0.750000
vt 0.875000 0.250000
vt 0.875000 0.687500
vt 0.875000 0.187500
vt 0.875000 0.625000
vt 0.875000 0.125000
vt 0.875000 0.562500
vt 0.875000 0.062500
vt 0.875000 0.500000
vt 0.890625 0.000000
vt 0.875000 0.437500
vt 0.875000 0.937500
vt 0.875000 0.875000
vt 0.843750 0.125000
vt 0.843750 0.062500
vt 0.843750 0.562500
vt 0.843750 0.500000
vt 0.859375 0.000000
vt 0.843750 0.437500
vt 0.843750 0.937500
vt 0.843750 0.875000
vt 0.843750 0.375000
vt 0.843750 0.812500
vt 0.843750 0.312500
vt 0.843750 0.750000
vt 0.843750 0.250000
vt 0.843750 0.687500
vt 0.843750 0.187500
vt 0.843750 0.625000
vt 0.812500 0.812500
vt 0.812500 0.750000
vt 0.812500 0.312500
vt 0.812500 0.250000
vt 0.812500 0.687500
vt 0.812500 0.187500
vt 0.812500 0.625000
vt 0.812500 0.125000
vt 0.812500 0.562500
vt 0.812500 0.062500
vt 0.812500 0.500000
vt 0.828125 0.000000
vt 0.812500 0.437500
vt 0.812500 0.937500
vt 0.812500 0.875000
vt 0.812500 0.375000
vt 0.781250 0.562500
vt 0.781250 0.500000
vt 0.796875 0.000000
vt 0.781250 0.062500
vt 0.781250 0.437500
vt 0.781250 0.937500
vt 0.781250 0.875000
vt 0.781250 0.375000
vt 0.781250 0.812500
vt 0.781250 0.312500
vt 0.781250 0.750000
vt 0.781250 0.250000
vt 0.781250 0.687500
vt 0.781250 0.187500
vt 0.781250 0.625000
vt 0.781250 0.125000
vt 0.765625 0.000000
s 1
usemtl Flame
f 479/1/479 478/2/478 21/3/21 22/4/22
f 5/5/5 4/6/4 14/7/14 15/8/15
f 10/9/10 479/1/479 22/4/22 23/10/23
f 6/11/6 5/5/5 15/8/15 16/12/16
f 480/13/480 10/9/10 23/10/23 24/14/24
f 7/15/7 6/11/6 16/12/16 17/16/17
f 481/17/481 480/13/480 24/14/24 25/18/25
f 8/19/8 7/15/7 17/16/17 18/20/18
f 206/21/206 481/17/481 25/18/25
f 9/22/9 8/19/8 18/20/18 19/23/19
f 2/24/2 1/25/1 11/26/11 12/27/12
f 477/28/477 9/22/9 19/23/19 20/29/20
f 3/30/3 2/24/2 12/27/12 13/31/13
f 478/2/478 477/28/477 20/29/20 21/3/21
f 4/6/4 3/30/3 13/31/13 14/7/14
f 13/31/13 12/27/12 27/32/27 28/33/28
f 21/3/21 20/29/20 35/34/35 36/35/36
f 14/7/14 13/31/13 28/33/28 29/36/29
f 22/4/22 21/3/21 36/35/36 37/37/37
f 15/8/15 14/7/14 29/36/29 30/38/30
f 23/10/23 22/4/22 37/37/37 38/39/38
f 16/12/16 15/8/15 30/38/30 31/40/31
f 24/14/24 23/10/23 38/39/38 39/41/39
f 17/16/17 16/12/16 31/40/31 32/42/32
f 25/18/25 24/14/24 39/41/39 40/43/40
f 18/20/18 17/16/17 32/42/32 33/44/33
f 206/45/206 25/18/25 40/43/40
f 19/23/19 18/20/18 33/44/33 34/46/34
f 12/27/12 11/26/11 26/47/26 27/32/27
f 20/29/20 19/23/19 34/46/34 35/34/35
f 32/42/32 31/40/31 46/48/46 47/49/47
f 40/43/40 39/41/39 54/50/54 55/51/55
f 33/44/33 32/42/32 47/49/47 48/52/48
f 206/53/206 40/43/40 55/51/55
f 34/46/34 33/44/33 48/52/48 49/54/49
f 27/32/27 26/47/26 41/55/41 42/56/42
f 35/34/35 34/46/34 49/54/49 50/57/50
f 28/33/28 27/32/27 42/56/42 43/58/43
f 36/35/36 35/34/35 50/57/50 51/59/51
f 29/36/29 28/33/28 43/58/43 44/60/44
f 37/37/37 36/35/36 51/59/51 52/61/52
f 30/38/30 29/36/29 44/60/44 45/62/45
f 38/39/38 37/37/37 52/61/52 53/63/53
f 31/40/31 30/38/30 45/62/45 46/48/46
f 39/41/39 38/39/38 53/63/53 54/50/54
f 51/59/51 50/57/50 65/64/65 66/65/66
f 44/60/44 43/58/43 58/66/58 59/67/59
f 52/61/52 51/59/51 66/65/66 67/68/67
f 45/62/45 44/60/44 59/67/59 60/69/60
f 53/63/53 52/61/52 67/68/67 68/70/68
f 46/48/46 45/62/45 60/69/60 61/71/61
f 54/50/54 53/63/53 68/70/68 69/72/69
f 47/49/47 46/48/46 61/71/61 62/73/62
f 55/51/55 54/50/54 69/72/69 70/74/70
f 48/52/48 47/49/47 62/73/62 63/75/63
f 206/76/206 55/51/55 70/74/70
f 49/54/49 48/52/48 63/75/63 64/77/64
f 42/56/42 41/55/41 56/78/56 57/79/57
f 50/57/50 49/54/49 64/77/64 65/64/65
f 43/58/43 42/56/42 57/79/57 58/66/58
f 70/74/70 69/72/69 84/80/84 85/81/85
f 63/75/63 62/73/62 77/82/77 78/83/78
f 206/84/206 70/74/70 85/81/85
f 64/77/64 63/75/63 78/83/78 79/85/79
f 57/79/57 56/78/56 71/86/71 72/87/72
f 65/64/65 64/77/64 79/85/79 80/88/80
f 58/66/58 57/79/57 72/87/72 73/89/73
f 66/65/66 65/64/65 80/88/80 81/90/81
f 59/67/59 58/66/58 73/89/73 74/91/74
f 67/68/67 66/65/66 81/90/81 82/92/82
f 60/69/60 59/67/59 74/91/74 75/93/75
f 68/70/68 67/68/67 82/92/82 83/94/83
f 61/71/61 60/69/60 75/93/75 76/95/76
f 69/72/69 68/70/68 83/94/83 84/80/84
f 62/73/62 61/71/61 76/95/76 77/82/77
f 82/92/82 81/90/81 96/96/96 97/97/97
f 75/93/75 74/91/74 89/98/89 90/99/90
f 83/94/83 82/92/82 97/97/97 98/100/98
f 76/95/76 75/93/75 90/99/90 91/101/91
f 84/80/84 83/94/83 98/100/98 99/102/99
f 77/82/77 76/95/76 91/101/91 92/103/92
f 85/81/85 84/80/84 99/102/99 100/104/100
f 78/83/78 77/82/77 92/103/92 93/105/93
f 206/106/206 85/81/85 100/104/100
f 79/85/79 78/83/78 93/105/93 94/107/94
f 72/87/72 71/86/71 86/108/86 87/109/87
f 80/88/80 79/85/79 94/107/94 95/110/95
f 73/89/73 72/87/72 87/109/87 88/111/88
f 81/90/81 80/88/80 95/110/95 96/96/96
f 74/91/74 73/89/73 88/111/88 89/98/89
f 206/112/206 100/104/100 115/113/115
f 94/107/94 93/105/93 108/114/108 109/115/109
f 87/109/87 86/108/86 101/116/101 102/117/102
f 95/110/95 94/107/94 109/115/109 110/118/110
f 88/111/88 87/109/87 102/117/102 103/119/103
f 96/96/96 95/110/95 110/118/110 111/120/111
f 89/98/89 88/111/88 103/119/103 104/121/104
f 97/97/97 96/96/96 111/120/111 112/122/112
f 90/99/90 89/98/89 104/121/104 105/123/105
f 98/100/98 97/97/97 112/122/112 113/124/113
f 91/101/91 90/99/90 105/123/105 106/125/106
f 99/102/99 98/100/98 113/124/113 114/126/114
f 92/103/92 91/101/91 106/125/106 107/127/107
f 100/104/100 99/102/99 114/126/114 115/113/115
f 93/105/93 92/103/92 107/127/107 108/114/108
f 105/123/105 104/121/104 119/128/119 120/129/120
f 113/124/113 112/122/112 127/130/127 128/131/128
f 106/125/106 105/123/105 120/129/120 121/132/121
f 114/126/114 113/124/113 128/131/128 129/133/129
f 107/127/107 106/125/106 121/132/121 122/134/122
f 115/113/115 114/126/114 129/133/129 130/135/130
f 108/114/108 107/127/107 122/134/122 123/136/123
f 206/137/206 115/113/115 130/135/130
f 109/115/109 108/114/108 123/136/123 124/138/124
f 102/117/102 101/116/101 116/139/116 117/140/117
f 110/118/110 109/115/109 124/138/124 125/141/125
f 103/119/103 102/117/102 117/140/117 118/142/118
f 111/120/111 110/118/110 125/141/125 126/143/126
f 104/121/104 103/119/103 118/142/118 119/128/119
f 112/122/112 111/120/111 126/143/126 127/130/127
f 124/138/124 123/136/123 138/144/138 139/145/139
f 117/140/117 116/139/116 131/146/131 132/147/132
f 125/141/125 124/138/124 139/145/139 140/148/140
f 118/142/118 117/140/117 132/147/132 133/149/133
f 126/143/126 125/141/125 140/148/140 141/150/141
f 119/128/119 118/142/118 133/149/133 134/151/134
f 127/130/127 126/143/126 141/150/141 142/152/142
f 120/129/120 119/128/119 134/151/134 135/153/135
f 128/131/128 127/130/127 142/152/142 143/154/143
f 121/132/121 120/129/120 135/153/135 136/155/136
f 129/133/129 128/131/128 143/154/143 144/156/144
f 122/134/122 121/132/121 136/155/136 137/157/137
f 130/135/130 129/133/129 144/156/144 145/158/145
f 123/136/123 122/134/122 137/157/137 138/144/138
f 206/159/206 130/135/130 145/158/145
f 143/154/143 142/152/142 157/160/157 158/161/158
f 136/155/136 135/153/135 150/162/150 151/163/151
f 144/156/144 143/154/143 158/161/158 159/164/159
f 137/157/137 136/155/136 151/163/151 152/165/152
f 145/158/145 144/156/144 159/164/159 160/166/160
f 138/144/138 137/157/137 152/165/152 153/167/153
f 206/168/206 145/158/145 160/166/160
f 139/145/139 138/144/138 153/167/153 154/169/154
f 132/147/132 131/146/131 146/170/146 147/171/147
f 140/148/140 139/145/139 154/169/154 155/172/155
f 133/149/133 132/147/132 147/171/147 148/173/148
f 141/150/141 140/148/140 155/172/155 156/174/156
f 134/151/134 133/149/133 148/173/148 149/175/149
f 142/152/142 141/150/141 156/174/156 157/160/157
f 135/153/135 134/151/134 149/175/149 150/162/150
f 147/171/147 146/170/146 161/176/161 162/177/162
f 155/172/155 154/169/154 169/178/169 170/179/170
f 148/173/148 147/171/147 162/177/162 163/180/163
f 156/174/156 155/172/155 170/179/170 171/181/171
f 149/175/149 148/173/148 163/180/163 164/182/164
f 157/160/157 156/174/156 171/181/171 172/183/172
f 150/162/150 149/175/149 164/182/164 165/184/165
f 158/161/158 157/160/157 172/183/172 173/185/173
f 151/163/151 150/162/150 165/184/165 166/186/166
f 159/164/159 158/161/158 173/185/173 174/187/174
f 152/165/152 151/163/151 166/186/166 167/188/167
f 160/166/160 159/164/159 174/187/174 175/189/175
f 153/167/153 152/165/152 167/188/167 168/190/168
f 206/191/206 160/166/160 175/189/175
f 154/169/154 153/167/153 168/190/168 169/178/169
f 166/186/166 165/184/165 180/192/180 181/193/181
f 174/187/174 173/185/173 188/194/188 189/195/189
f 167/188/167 166/186/166 181/193/181 182/196/182
f 175/189/175 174/187/174 189/195/189 190/197/190
f 168/190/168 167/188/167 182/196/182 183/198/183
f 206/199/206 175/189/175 190/197/190
f 169/178/169 168/190/168 183/198/183 184/200/184
f 162/177/162 161/176/161 176/201/176 177/202/177
f 170/179/170 169/178/169 184/200/184 185/203/185
f 163/180/163 162/177/162 177/202/177 178/204/178
f 171/181/171 170/179/170 185/203/185 186/205/186
f 164/182/164 163/180/163 178/204/178 179/206/179
f 172/183/172 171/181/171 186/205/186 187/207/187
f 165/184/165 164/182/164 179/206/179 180/192/180
f 173/185/173 172/183/172 187/207/187 188/194/188
f 185/203/185 184/200/184 199/208/199 200/209/200
f 178/204/178 177/202/177 192/210/192 193/211/193
f 186/205/186 185/203/185 200/209/200 201/212/201
f 179/206/179 178/204/178 193/211/193 194/213/194
f 187/207/187 186/205/186 201/212/201 202/214/202
f 180/192/180 179/206/179 194/213/194 195/215/195
f 188/194/188 187/207/187 202/214/202 203/216/203
f 181/193/181 180/192/180 195/215/195 196/217/196
f 189/195/189 188/194/188 203/216/203 204/218/204
f 182/196/182 181/193/181 196/217/196 197/219/197
f 190/197/190 189/195/189 204/218/204 205/220/205
f 183/198/183 182/196/182 197/219/197 198/221/198
f 206/222/206 190/197/190 205/220/205
f 184/200/184 183/198/183 198/221/198 199/208/199
f 177/202/177 176/201/176 191/223/191 192/210/192
f 204/218/204 203/216/203 219/224/219 220/225/220
f 197/219/197 196/217/196 212/226/212 213/227/213
f 205/220/205 204/218/204 220/225/220 221/228/221
f 198/221/198 197/219/197 213/227/213 214/229/214
f 206/230/206 205/220/205 221/228/221
f 199/208/199 198/221/198 214/229/214 215/231/215
f 192/210/192 191/223/191 207/232/207 208/233/208
f 200/209/200 199/208/199 215/231/215 216/234/216
f 193/211/193 192/210/192 208/233/208 209/235/209
f 201/212/201 200/209/200 216/234/216 217/236/217
f 194/213/194 193/211/193 209/235/209 210/237/210
f 202/214/202 201/212/201 217/236/217 218/238/218
f 195/215/195 194/213/194 210/237/210 211/239/211
f 203/216/203 202/214/202 218/238/218 219/224/219
f 196/217/196 195/215/195 211/239/211 212/226/212
f 217/236/217 216/234/216 231/240/231 232/241/232
f 210/237/210 209/235/209 224/242/224 225/243/225
f 218/238/218 217/236/217 232/241/232 233/244/233
f 211/239/211 210/237/210 225/243/225 226/245/226
f 219/224/219 218/238/218 233/244/233 234/246/234
f 212/226/212 211/239/211 226/245/226 227/247/227
f 220/225/220 219/224/219 234/246/234 235/248/235
f 213/227/213 212/226/212 227/247/227 228/249/228
f 221/228/221 220/225/220 235/248/235 236/250/236
f 214/229/214 213/227/213 228/249/228 229/251/229
f 206/252/206 221/228/221 236/250/236
f 215/231/215 214/229/214 229/251/229 230/253/230
f 208/233/208 207/232/207 222/254/222 223/255/223
f 216/234/216 215/231/215 230/253/230 231/240/231
f 209/235/209 208/233/208 223/255/223 224/242/224
f 236/250/236 235/248/235 250/256/250 251/257/251
f 229/251/229 228/249/228 243/258/243 244/259/244
f 206/260/206 236/250/236 251/257/251
f 230/253/230 229/251/229 244/259/244 245/261/245
f 223/255/223 222/254/222 237/262/237 238/263/238
f 231/240/231 230/253/230 245/261/245 246/264/246
f 224/242/224 223/255/223 238/263/238 239/265/239
f 232/241/232 231/240/231 246/264/246 247/266/247
f 225/243/225 224/242/224 239/265/239 240/267/240
f 233/244/233 232/241/232 247/266/247 248/268/248
f 226/245/226 225/243/225 240/267/240 241/269/241
f 234/246/234 233/244/233 248/268/248 249/270/249
f 227/247/227 226/245/226 241/269/241 242/271/242
f 235/248/235 234/246/234 249/270/249 250/256/250
f 228/249/228 227/247/227 242/271/242 243/258/243
f 240/267/240 239/265/239 254/272/254 255/273/255
f 248/268/248 247/266/247 262/274/262 263/275/263
f 241/269/241 240/267/240 255/273/255 256/276/256
f 249/270/249 248/268/248 263/275/263 264/277/264
f 242/271/242 241/269/241 256/276/256 257/278/257
f 250/256/250 249/270/249 264/277/264 265/279/265
f 243/258/243 242/271/242 257/278/257 258/280/258
f 251/257/251 250/256/250 265/279/265 266/281/266
f 244/259/244 243/258/243 258/280/258 259/282/259
f 206/283/206 251/257/251 266/281/266
f 245/261/245 244/259/244 259/282/259 260/284/260
f 238/263/238 237/262/237 252/285/252 253/286/253
f 246/264/246 245/261/245 260/284/260 261/287/261
f 239/265/239 238/263/238 253/286/253 254/272/254
f 247/266/247 246/264/246 261/287/261 262/274/262
f 259/282/259 258/280/258 273/288/273 274/289/274
f 206/290/206 266/281/266 281/291/281
f 260/284/260 259/282/259 274/289/274 275/292/275
f 253/286/253 252/285/252 267/293/267 268/294/268
f 261/287/261 260/284/260 275/292/275 276/295/276
f 254/272/254 253/286/253 268/294/268 269/296/269
f 262/274/262 261/287/261 276/295/276 277/297/277
f 255/273/255 254/272/254 269/296/269 270/298/270
f 263/275/263 262/274/262 277/297/277 278/299/278
f 256/276/256 255/273/255 270/298/270 271/300/271
f 264/277/264 263/275/263 278/299/278 279/301/279
f 257/278/257 256/276/256 271/300/271 272/302/272
f 265/279/265 264/277/264 279/301/279 280/303/280
f 258/280/258 257/278/257 272/302/272 273/288/273
f 266/281/266 265/279/265 280/303/280 281/291/281
f 278/299/278 277/297/277 292/304/292 293/305/293
f 271/300/271 270/298/270 285/306/285 286/307/286
f 279/301/279 278/299/278 293/305/293 294/308/294
f 272/302/272 271/300/271 286/307/286 287/309/287
f 280/303/280 279/301/279 294/308/294 295/310/295
f 273/288/273 272/302/272 287/309/287 288/311/288
f 281/291/281 280/303/280 295/310/295 296/312/296
f 274/289/274 273/288/273 288/311/288 289/313/289
f 206/314/206 281/291/281 296/312/296
f 275/292/275 274/289/274 289/313/289 290/315/290
f 268/294/268 267/293/267 282/316/282 283/317/283
f 276/295/276 275/292/275 290/315/290 291/318/291
f 269/296/269 268/294/268 283/317/283 284/319/284
f 277/297/277 276/295/276 291/318/291 292/304/292
f 270/298/270 269/296/269 284/319/284 285/306/285
f 206/320/206 296/312/296 311/321/311
f 290/315/290 289/313/289 304/322/304 305/323/305
f 283/317/283 282/316/282 297/324/297 298/325/298
f 291/318/291 290/315/290 305/323/305 306/326/306
f 284/319/284 283/317/283 298/325/298 299/327/299
f 292/304/292 291/318/291 306/326/306 307/328/307
f 285/306/285 284/319/284 299/327/299 300/329/300
f 293/305/293 292/304/292 307/328/307 308/330/308
f 286/307/286 285/306/285 300/329/300 301/331/301
f 294/308/294 293/305/293 308/330/308 309/332/309
f 287/309/287 286/307/286 301/331/301 302/333/302
f 295/310/295 294/308/294 309/332/309 310/334/310
f 288/311/288 287/309/287 302/333/302 303/335/303
f 296/312/296 295/310/295 310/334/310 311/321/311
f 289/313/289 288/311/288 303/335/303 304/322/304
f 301/331/301 300/329/300 315/336/315 316/337/316
f 309/332/309 308/330/308 323/338/323 324/339/324
f 302/333/302 301/331/301 316/337/316 317/340/317
f 310/334/310 309/332/309 324/339/324 325/341/325
f 303/335/303 302/333/302 317/340/317 318/342/318
f 311/321/311 310/334/310 325/341/325 326/343/326
f 304/322/304 303/335/303 318/342/318 319/344/319
f 206/345/206 311/321/311 326/343/326
f 305/323/305 304/322/304 319/344/319 320/346/320
f 298/325/298 297/324/297 312/347/312 313/348/313
f 306/326/306 305/323/305 320/346/320 321/349/321
f 299/327/299 298/325/298 313/348/313 314/350/314
f 307/328/307 306/326/306 321/349/321 322/351/322
f 300/329/300 299/327/299 314/350/314 315/336/315
f 308/330/308 307/328/307 322/351/322 323/338/323
f 320/346/320 319/344/319 334/352/334 335/353/335
f 313/348/313 312/347/312 327/354/327 328/355/328
f 321/349/321 320/346/320 335/353/335 336/356/336
f 314/350/314 313/348/313 328/355/328 329/357/329
f 322/351/322 321/349/321 336/356/336 337/358/337
f 315/336/315 314/350/314 329/357/329 330/359/330
f 323/338/323 322/351/322 337/358/337 338/360/338
f 316/337/316 315/336/315 330/359/330 331/361/331
f 324/339/324 323/338/323 338/360/338 339/362/339
f 317/340/317 316/337/316 331/361/331 332/363/332
f 325/341/325 324/339/324 339/362/339 340/364/340
f 318/342/318 317/340/317 332/363/332 333/365/333
f 326/343/326 325/341/325 340/364/340 341/366/341
f 319/344/319 318/342/318 333/365/333 334/352/334
f 206/367/206 326/343/326 341/366/341
f 339/362/339 338/360/338 353/368/353 354/369/354
f 332/363/332 331/361/331 346/370/346 347/371/347
f 340/364/340 339/362/339 354/369/354 355/372/355
f 333/365/333 332/363/332 347/371/347 348/373/348
f 341/366/341 340/364/340 355/372/355 356/374/356
f 334/352/334 333/365/333 348/373/348 349/375/349
f 206/376/206 341/366/341 356/374/356
f 335/353/335 334/352/334 349/375/349 350/377/350
f 328/355/328 327/354/327 342/378/342 343/379/343
f 336/356/336 335/353/335 350/377/350 351/380/351
f 329/357/329 328/355/328 343/379/343 344/381/344
f 337/358/337 336/356/336 351/380/351 352/382/352
f 330/359/330 329/357/329 344/381/344 345/383/345
f 338/360/338 337/358/337 352/382/352 353/368/353
f 331/361/331 330/359/330 345/383/345 346/370/346
f 351/380/351 350/377/350 365/384/365 366/385/366
f 344/381/344 343/379/343 358/386/358 359/387/359
f 352/382/352 351/380/351 366/385/366 367/388/367
f 345/383/345 344/381/344 359/387/359 360/389/360
f 353/368/353 352/382/352 367/388/367 368/390/368
f 346/370/346 345/383/345 360/389/360 361/391/361
f 354/369/354 353/368/353 368/390/368 369/392/369
f 347/371/347 346/370/346 361/391/361 362/393/362
f 355/372/355 354/369/354 369/392/369 370/394/370
f 348/373/348 347/371/347 362/393/362 363/395/363
f 356/374/356 355/372/355 370/394/370 371/396/371
f 349/375/349 348/373/348 363/395/363 364/397/364
f 206/398/206 356/374/356 371/396/371
f 350/377/350 349/375/349 364/397/364 365/384/365
f 343/379/343 342/378/342 357/399/357 358/386/358
f 370/400/370 369/401/369 384/402/384 385/403/385
f 363/404/363 362/405/362 377/406/377 378/407/378
f 371/408/371 370/400/370 385/403/385 386/409/386
f 364/410/364 363/404/363 378/407/378 379/411/379
f 206/412/206 371/408/371 386/409/386
f 365/413/365 364/410/364 379/411/379 380/414/380
f 358/415/358 357/416/357 372/417/372 373/418/373
f 366/419/366 365/413/365 380/414/380 381/420/381
f 359/421/359 358/415/358 373/418/373 374/422/374
f 367/423/367 366/419/366 381/420/381 382/424/382
f 360/425/360 359/421/359 374/422/374 375/426/375
f 368/427/368 367/423/367 382/424/382 383/428/383
f 361/429/361 360/425/360 375/426/375 376/430/376
f 369/401/369 368/427/368 383/428/383 384/402/384
f 362/405/362 361/429/361 376/430/376 377/406/377
f 374/422/374 373/418/373 388/431/388 389/432/389
f 382/424/382 381/420/381 396/433/396 397/434/397
f 375/426/375 374/422/374 389/432/389 390/435/390
f 383/428/383 382/424/382 397/434/397 398/436/398
f 376/430/376 375/426/375 390/435/390 391/437/391
f 384/402/384 383/428/383 398/436/398 399/438/399
f 377/406/377 376/430/376 391/437/391 392/439/392
f 385/403/385 384/402/384 399/438/399 400/440/400
f 378/407/378 377/406/377 392/439/392 393/441/393
f 386/409/386 385/403/385 400/440/400 401/442/401
f 379/411/379 378/407/378 393/441/393 394/443/394
f 206/444/206 386/409/386 401/442/401
f 380/414/380 379/411/379 394/443/394 395/445/395
f 373/418/373 372/417/372 387/446/387 388/431/388
f 381/420/381 380/414/380 395/445/395 396/433/396
f 393/441/393 392/439/392 407/447/407 408/448/408
f 401/442/401 400/440/400 415/449/415 416/450/416
f 394/443/394 393/441/393 408/448/408 409/451/409
f 206/452/206 401/442/401 416/450/416
f 395/445/395 394/443/394 409/451/409 410/453/410
f 388/431/388 387/446/387 402/454/402 403/455/403
f 396/433/396 395/445/395 410/453/410 411/456/411
f 389/432/389 388/431/388 403/455/403 404/457/404
f 397/434/397 396/433/396 411/456/411 412/458/412
f 390/435/390 389/432/389 404/457/404 405/459/405
f 398/436/398 397/434/397 412/458/412 413/460/413
f 391/437/391 390/435/390 405/459/405 406/461/406
f 399/438/399 398/436/398 413/460/413 414/462/414
f 392/439/392 391/437/391 406/461/406 407/447/407
f 400/440/400 399/438/399 414/462/414 415/449/415
f 412/458/412 411/456/411 426/463/426 427/464/427
f 405/459/405 404/457/404 419/465/419 420/466/420
f 413/460/413 412/458/412 427/464/427 428/467/428
f 406/461/406 405/459/405 420/466/420 421/468/421
f 414/462/414 413/460/413 428/467/428 429/469/429
f 407/447/407 406/461/406 421/468/421 422/470/422
f 415/449/415 414/462/414 429/469/429 430/471/430
f 408/448/408 407/447/407 422/470/422 423/472/423
f 416/450/416 415/449/415 430/471/430 431/473/431
f 409/451/409 408/448/408 423/472/423 424/474/424
f 206/475/206 416/450/416 431/473/431
f 410/453/410 409/451/409 424/474/424 425/476/425
f 403/455/403 402/454/402 417/477/417 418/478/418
f 411/456/411 410/453/410 425/476/425 426/463/426
f 404/457/404 403/455/403 418/478/418 419/465/419
f 431/473/431 430/471/430 445/479/445 446/480/446
f 424/474/424 423/472/423 438/481/438 439/482/439
f 206/483/206 431/473/431 446/480/446
f 425/476/425 424/474/424 439/482/439 440/484/440
f 418/478/418 417/477/417 432/485/432 433/486/433
f 426/463/426 425/476/425 440/484/440 441/487/441
f 419/465/419 418/478/418 433/486/433 434/488/434
f 427/464/427 426/463/426 441/487/441 442/489/442
f 420/466/420 419/465/419 434/488/434 435/490/435
f 428/467/428 427/464/427 442/489/442 443/491/443
f 421/468/421 420/466/420 435/490/435 436/492/436
f 429/469/429 428/467/428 443/491/443 444/493/444
f 422/470/422 421/468/421 436/492/436 437/494/437
f 430/471/430 429/469/429 444/493/444 445/479/445
f 423/472/423 422/470/422 437/494/437 438/481/438
f 435/490/435 434/488/434 449/495/449 450/496/450
f 443/491/443 442/489/442 457/497/457 458/498/458
f 436/492/436 435/490/435 450/496/450 451/499/451
f 444/493/444 443/491/443 458/498/458 459/500/459
f 437/494/437 436/492/436 451/499/451 452/501/452
f 445/479/445 444/493/444 459/500/459 460/502/460
f 438/481/438 437/494/437 452/501/452 453/503/453
f 446/480/446 445/479/445 460/502/460 461/504/461
f 439/482/439 438/481/438 453/503/453 454/505/454
f 206/506/206 446/480/446 461/504/461
f 440/484/440 439/482/439 454/505/454 455/507/455
f 433/486/433 432/485/432 447/508/447 448/509/448
f 441/487/441 440/484/440 455/507/455 456/510/456
f 434/488/434 433/486/433 448/509/448 449/495/449
f 442/489/442 441/487/441 456/510/456 457/497/457
f 454/505/454 453/503/453 468/511/468 469/512/469
f 206/513/206 461/504/461 476/514/476
f 455/507/455 454/505/454 469/512/469 470/515/470
f 448/509/448 447/508/447 462/516/462 463/517/463
f 456/510/456 455/507/455 470/515/470 471/518/471
f 449/495/449 448/509/448 463/517/463 464/519/464
f 457/497/457 456/510/456 471/518/471 472/520/472
f 450/496/450 449/495/449 464/519/464 465/521/465
f 458/498/458 457/497/457 472/520/472 473/522/473
f 451/499/451 450/496/450 465/521/465 466/523/466
f 459/500/459 458/498/458 473/522/473 474/524/474
f 452/501/452 451/499/451 466/523/466 467/525/467
f 460/502/460 459/500/459 474/524/474 475/526/475
f 453/503/453 452/501/452 467/525/467 468/511/468
f 461/504/461 460/502/460 475/526/475 476/514/476
f 473/522/473 472/520/472 478/2/478 479/1/479
f 466/523/466 465/521/465 4/6/4 5/5/5
f 474/524/474 473/522/473 479/1/479 10/9/10
f 467/525/467 466/523/466 5/5/5 6/11/6
f 475/526/475 474/524/474 10/9/10 480/13/480
f 468/511/468 467/525/467 6/11/6 7/15/7
f 476/514/476 475/526/475 480/13/480 481/17/481
f 469/512/469 468/511/468 7/15/7 8/19/8
f 206/527/206 476/514/476 481/17/481
f 470/515/470 469/512/469 8/19/8 9/22/9
f 463/517/463 462/516/462 1/25/1 2/24/2
f 471/518/471 470/515/470 9/22/9 477/28/477
f 464/519/464 463/517/463 2/24/2 3/30/3
f 472/520/472 471/518/471 477/28/477 478/2/478
f 465/521/465 464/519/464 3/30/3 4/6/4
