# Blender 4.1.0
# www.blender.org
mtllib PARKTABLE.mtl
o wood_1
v 0.162039 0.302928 1.971667
v -0.089815 0.304275 1.971667
v 0.162039 0.302928 -1.971667
v -0.089815 0.304275 -1.971667
v -0.115000 0.304409 1.971667
v -0.366854 0.305756 1.971667
v -0.115000 0.304409 -1.971667
v -0.366854 0.305756 -1.971667
v -0.392039 0.305891 1.971667
v -0.643892 0.307237 1.971667
v -0.392039 0.305891 -1.971667
v -0.643892 0.307237 -1.971667
v -0.669078 0.307372 1.971667
v -0.920931 0.308719 1.971667
v -0.669078 0.307372 -1.971667
v -0.920931 0.308719 -1.971667
v -0.946117 0.308853 1.971667
v -1.197970 0.310200 1.971667
v -0.946117 0.308853 -1.971667
v -1.197970 0.310200 -1.971667
v -1.223155 0.310335 1.971667
v -1.475009 0.311681 1.971667
v -1.223155 0.310335 -1.971667
v -1.475009 0.311681 -1.971667
v -1.500194 0.311816 1.971667
v -1.752048 0.313163 1.971667
v -1.500194 0.311816 -1.971667
v -1.752048 0.313163 -1.971667
v 0.162680 0.422926 1.888973
v 0.162456 0.380986 1.971667
v 0.162663 0.419734 1.920619
v 0.162615 0.410642 1.947446
v 0.162542 0.397036 1.965372
v -0.089397 0.382333 1.971667
v -0.089173 0.424273 1.888973
v -0.089312 0.398383 1.965372
v -0.089239 0.411989 1.947446
v -0.089190 0.421080 1.920619
v 0.162456 0.380986 -1.971667
v 0.162680 0.422926 -1.888973
v 0.162542 0.397036 -1.965372
v 0.162615 0.410642 -1.947446
v 0.162663 0.419734 -1.920619
v -0.089173 0.424273 -1.888973
v -0.089397 0.382333 -1.971667
v -0.089190 0.421080 -1.920619
v -0.089239 0.411989 -1.947446
v -0.089312 0.398383 -1.965372
v -0.114359 0.424408 1.888973
v -0.114583 0.382467 1.971667
v -0.114376 0.421215 1.920619
v -0.114424 0.412124 1.947446
v -0.114497 0.398517 1.965372
v -0.366436 0.383814 1.971667
v -0.366212 0.425754 1.888973
v -0.366350 0.399864 1.965372
v -0.366278 0.413470 1.947446
v -0.366229 0.422562 1.920619
v -0.114583 0.382467 -1.971667
v -0.114359 0.424408 -1.888973
v -0.114497 0.398517 -1.965372
v -0.114424 0.412124 -1.947446
v -0.114376 0.421215 -1.920619
v -0.366212 0.425754 -1.888973
v -0.366436 0.383814 -1.971667
v -0.366229 0.422562 -1.920619
v -0.366278 0.413470 -1.947446
v -0.366350 0.399864 -1.965372
v -0.391397 0.425889 1.888973
v -0.391622 0.383949 1.971667
v -0.391414 0.422696 1.920619
v -0.391463 0.413605 1.947446
v -0.391536 0.399999 1.965372
v -0.643475 0.385295 1.971667
v -0.643251 0.427236 1.888973
v -0.643389 0.401345 1.965372
v -0.643316 0.414952 1.947446
v -0.643268 0.424043 1.920619
v -0.391622 0.383949 -1.971667
v -0.391397 0.425889 -1.888973
v -0.391536 0.399999 -1.965372
v -0.391463 0.413605 -1.947446
v -0.391414 0.422696 -1.920619
v -0.643251 0.427236 -1.888973
v -0.643475 0.385295 -1.971667
v -0.643268 0.424043 -1.920619
v -0.643316 0.414952 -1.947446
v -0.643389 0.401345 -1.965372
v -0.668436 0.427370 1.888973
v -0.668660 0.385430 1.971667
v -0.668453 0.424178 1.920619
v -0.668502 0.415086 1.947446
v -0.668575 0.401480 1.965372
v -0.920514 0.386777 1.971667
v -0.920290 0.428717 1.888973
v -0.920428 0.402827 1.965372
v -0.920355 0.416433 1.947446
v -0.920307 0.425524 1.920619
v -0.668660 0.385430 -1.971667
v -0.668436 0.427370 -1.888973
v -0.668575 0.401480 -1.965372
v -0.668502 0.415086 -1.947446
v -0.668453 0.424178 -1.920619
v -0.920290 0.428717 -1.888973
v -0.920514 0.386777 -1.971667
v -0.920307 0.425524 -1.920619
v -0.920355 0.416433 -1.947446
v -0.920428 0.402827 -1.965372
v -0.945475 0.428852 1.888973
v -0.945699 0.386911 1.971667
v -0.945492 0.425659 1.920619
v -0.945541 0.416568 1.947446
v -0.945613 0.402961 1.965372
v -1.197553 0.388258 1.971667
v -1.197328 0.430198 1.888973
v -1.197467 0.404308 1.965372
v -1.197394 0.417914 1.947446
v -1.197345 0.427006 1.920619
v -0.945699 0.386911 -1.971667
v -0.945475 0.428852 -1.888973
v -0.945613 0.402961 -1.965372
v -0.945541 0.416568 -1.947446
v -0.945492 0.425659 -1.920619
v -1.197328 0.430198 -1.888973
v -1.197553 0.388258 -1.971667
v -1.197345 0.427006 -1.920619
v -1.197394 0.417914 -1.947446
v -1.197467 0.404308 -1.965372
v -1.222514 0.430333 1.888973
v -1.222738 0.388393 1.971667
v -1.222531 0.427140 1.920619
v -1.222579 0.418049 1.947446
v -1.222652 0.404442 1.965372
v -1.474591 0.389739 1.971667
v -1.474367 0.431680 1.888973
v -1.474505 0.405789 1.965372
v -1.474433 0.419396 1.947446
v -1.474384 0.428487 1.920619
v -1.222738 0.388393 -1.971667
v -1.222514 0.430333 -1.888973
v -1.222652 0.404442 -1.965372
v -1.222579 0.418049 -1.947446
v -1.222531 0.427140 -1.920619
v -1.474367 0.431680 -1.888973
v -1.474591 0.389739 -1.971667
v -1.474384 0.428487 -1.920619
v -1.474433 0.419396 -1.947446
v -1.474505 0.405789 -1.965372
v -1.499552 0.431814 1.888973
v -1.499777 0.389874 1.971667
v -1.499569 0.428622 1.920619
v -1.499618 0.419530 1.947446
v -1.499691 0.405924 1.965372
v -1.751630 0.391221 1.971667
v -1.751406 0.433161 1.888973
v -1.751544 0.407270 1.965372
v -1.751472 0.420877 1.947446
v -1.751423 0.429968 1.920619
v -1.499777 0.389874 -1.971667
v -1.499552 0.431814 -1.888973
v -1.499691 0.405924 -1.965372
v -1.499618 0.419530 -1.947446
v -1.499569 0.428622 -1.920619
v -1.751406 0.433161 -1.888973
v -1.751630 0.391221 -1.971667
v -1.751423 0.429968 -1.920619
v -1.751472 0.420877 -1.947446
v -1.751544 0.407270 -1.965372
vn -0.0053 -1.0000 -0.0000
vn -0.0000 -0.0000 1.0000
vn 0.0010 0.1906 0.9817
vn 0.0053 0.9987 0.0499
vn 0.0053 0.9987 -0.0499
vn -1.0000 0.0053 -0.0000
vn -0.0000 -0.0000 -1.0000
vn 0.0010 0.1906 -0.9817
vn 1.0000 -0.0053 -0.0000
vn 0.0052 0.9786 0.2056
vn 0.0048 0.8918 0.4523
vn 0.0034 0.6325 0.7745
vn 0.0052 0.9786 -0.2056
vn 0.0048 0.8918 -0.4523
vn 0.0034 0.6325 -0.7745
vt -7.347243 -0.532532
vt -5.282179 -0.532532
vt -5.282179 1.532532
vt -7.347243 1.532532
vt -5.075673 -0.532532
vt -3.010610 -0.532532
vt -3.010610 1.532532
vt -5.075673 1.532532
vt -2.804103 -0.532532
vt -0.739040 -0.532532
vt -0.739040 1.532532
vt -2.804103 1.532532
vt -0.532533 -0.532532
vt 1.532530 -0.532532
vt 1.532530 1.532532
vt -0.532533 1.532532
vt 1.739036 -0.532532
vt 3.804100 -0.532532
vt 3.804100 1.532532
vt 1.739036 1.532532
vt 4.010606 -0.532532
vt 6.075669 -0.532532
vt 6.075669 1.532532
vt 4.010606 1.532532
vt 6.282176 -0.532532
vt 8.347239 -0.532532
vt 8.347239 1.532532
vt 6.282176 1.532532
vt -5.282179 0.588917
vt -7.347243 0.588917
vt -7.347243 0.508318
vt -5.282179 0.508318
vt -3.010610 0.588917
vt -5.075673 0.588917
vt -5.075673 0.508318
vt -3.010610 0.508318
vt -0.739040 0.588917
vt -2.804103 0.588917
vt -2.804103 0.508318
vt -0.739040 0.508318
vt 1.532530 0.588917
vt -0.532533 0.588917
vt -0.532533 0.508318
vt 1.532530 0.508318
vt 3.804100 0.588917
vt 1.739036 0.588917
vt 1.739036 0.508318
vt 3.804100 0.508318
vt 6.075669 0.588917
vt 4.010606 0.588917
vt 4.010606 0.508318
vt 6.075669 0.508318
vt 8.347239 0.588917
vt 6.282176 0.588917
vt 6.282176 0.508318
vt 8.347239 0.508318
vt -7.347243 -0.489226
vt -7.347243 1.489226
vt -5.282179 1.489226
vt -5.282179 -0.489226
vt 1.532532 0.588917
vt -0.532532 0.588917
vt -0.532532 0.508318
vt -0.529235 0.491746
vt -0.519848 0.477697
vt -0.505799 0.468309
vt -0.489226 0.465013
vt 1.489226 0.465013
vt 1.505799 0.468309
vt 1.519848 0.477697
vt 1.529235 0.491746
vt 1.532532 0.508318
vt -5.075673 -0.489226
vt -5.075673 1.489226
vt -3.010610 1.489226
vt -3.010610 -0.489226
vt -2.804103 -0.489226
vt -2.804103 1.489226
vt -0.739040 1.489226
vt -0.739040 -0.489226
vt -0.532533 -0.489226
vt -0.532533 1.489226
vt 1.532530 1.489226
vt 1.532530 -0.489226
vt 1.739036 -0.489226
vt 1.739036 1.489226
vt 3.804100 1.489226
vt 3.804100 -0.489226
vt 4.010606 -0.489226
vt 4.010606 1.489226
vt 6.075669 1.489226
vt 6.075669 -0.489226
vt 6.282176 -0.489226
vt 6.282176 1.489226
vt 8.347239 1.489226
vt 8.347239 -0.489226
vt -5.282179 -0.505799
vt -7.347243 -0.505799
vt -5.282179 -0.519848
vt -7.347243 -0.519848
vt -7.347243 0.477697
vt -5.282179 0.477697
vt -5.282179 0.491746
vt -7.347243 0.491746
vt -7.347243 1.505799
vt -5.282179 1.505799
vt -7.347243 1.519848
vt -5.282179 1.519848
vt -3.010610 -0.505799
vt -5.075673 -0.505799
vt -3.010610 -0.519848
vt -5.075673 -0.519848
vt -5.075673 0.477697
vt -3.010610 0.477697
vt -3.010610 0.491746
vt -5.075673 0.491746
vt -5.075673 1.505799
vt -3.010610 1.505799
vt -5.075673 1.519848
vt -3.010610 1.519848
vt -0.739040 -0.505799
vt -2.804103 -0.505799
vt -0.739040 -0.519848
vt -2.804103 -0.519848
vt -2.804103 0.477697
vt -0.739040 0.477697
vt -0.739040 0.491746
vt -2.804103 0.491746
vt -2.804103 1.505799
vt -0.739040 1.505799
vt -2.804103 1.519848
vt -0.739040 1.519848
vt 1.532530 -0.505799
vt -0.532533 -0.505799
vt 1.532530 -0.519848
vt -0.532533 -0.519848
vt -0.532533 0.477697
vt 1.532530 0.477697
vt 1.532530 0.491746
vt -0.532533 0.491746
vt -0.532533 1.505799
vt 1.532530 1.505799
vt -0.532533 1.519848
vt 1.532530 1.519848
vt 3.804100 -0.505799
vt 1.739036 -0.505799
vt 3.804100 -0.519848
vt 1.739036 -0.519848
vt 1.739036 0.477697
vt 3.804100 0.477697
vt 3.804100 0.491746
vt 1.739036 0.491746
vt 1.739036 1.505799
vt 3.804100 1.505799
vt 1.739036 1.519848
vt 3.804100 1.519848
vt 6.075669 -0.505799
vt 4.010606 -0.505799
vt 6.075669 -0.519848
vt 4.010606 -0.519848
vt 4.010606 0.477697
vt 6.075669 0.477697
vt 6.075669 0.491746
vt 4.010606 0.491746
vt 4.010606 1.505799
vt 6.075669 1.505799
vt 4.010606 1.519848
vt 6.075669 1.519848
vt 8.347239 -0.505799
vt 6.282176 -0.505799
vt 8.347239 -0.519848
vt 6.282176 -0.519848
vt 6.282176 0.477697
vt 8.347239 0.477697
vt 8.347239 0.491746
vt 6.282176 0.491746
vt 6.282176 1.505799
vt 8.347239 1.505799
vt 6.282176 1.519848
vt 8.347239 1.519848
s 1
usemtl Wood.002
f 1/1/1 2/2/1 4/3/1 3/4/1
f 5/5/1 6/6/1 8/7/1 7/8/1
f 9/9/1 10/10/1 12/11/1 11/12/1
f 13/13/1 14/14/1 16/15/1 15/16/1
f 17/17/1 18/18/1 20/19/1 19/20/1
f 21/21/1 22/22/1 24/23/1 23/24/1
f 25/25/1 26/26/1 28/27/1 27/28/1
f 2/29/2 1/30/2 30/31/3 34/32/3
f 6/33/2 5/34/2 50/35/3 54/36/3
f 10/37/2 9/38/2 70/39/3 74/40/3
f 14/41/2 13/42/2 90/43/3 94/44/3
f 18/45/2 17/46/2 110/47/3 114/48/3
f 22/49/2 21/50/2 130/51/3 134/52/3
f 26/53/2 25/54/2 150/55/3 154/56/3
f 29/57/4 40/58/5 44/59/5 35/60/4
f 4/61/6 2/62/6 34/63/6 36/64/6 37/65/6 38/66/6 35/67/6 44/68/6 46/69/6 47/70/6 48/71/6 45/72/6
f 3/30/7 4/29/7 45/32/8 39/31/8
f 5/62/9 7/61/9 59/72/9 61/71/9 62/70/9 63/69/9 60/68/9 49/67/9 51/66/9 52/65/9 53/64/9 50/63/9
f 49/73/4 60/74/5 64/75/5 55/76/4
f 8/61/6 6/62/6 54/63/6 56/64/6 57/65/6 58/66/6 55/67/6 64/68/6 66/69/6 67/70/6 68/71/6 65/72/6
f 7/34/7 8/33/7 65/36/8 59/35/8
f 9/62/9 11/61/9 79/72/9 81/71/9 82/70/9 83/69/9 80/68/9 69/67/9 71/66/9 72/65/9 73/64/9 70/63/9
f 69/77/4 80/78/5 84/79/5 75/80/4
f 12/61/6 10/62/6 74/63/6 76/64/6 77/65/6 78/66/6 75/67/6 84/68/6 86/69/6 87/70/6 88/71/6 85/72/6
f 11/38/7 12/37/7 85/40/8 79/39/8
f 13/62/9 15/61/9 99/72/9 101/71/9 102/70/9 103/69/9 100/68/9 89/67/9 91/66/9 92/65/9 93/64/9 90/63/9
f 89/81/4 100/82/5 104/83/5 95/84/4
f 16/61/6 14/62/6 94/63/6 96/64/6 97/65/6 98/66/6 95/67/6 104/68/6 106/69/6 107/70/6 108/71/6 105/72/6
f 15/42/7 16/41/7 105/44/8 99/43/8
f 17/62/9 19/61/9 119/72/9 121/71/9 122/70/9 123/69/9 120/68/9 109/67/9 111/66/9 112/65/9 113/64/9 110/63/9
f 109/85/4 120/86/5 124/87/5 115/88/4
f 20/61/6 18/62/6 114/63/6 116/64/6 117/65/6 118/66/6 115/67/6 124/68/6 126/69/6 127/70/6 128/71/6 125/72/6
f 19/46/7 20/45/7 125/48/8 119/47/8
f 21/62/9 23/61/9 139/72/9 141/71/9 142/70/9 143/69/9 140/68/9 129/67/9 131/66/9 132/65/9 133/64/9 130/63/9
f 129/89/4 140/90/5 144/91/5 135/92/4
f 24/61/6 22/62/6 134/63/6 136/64/6 137/65/6 138/66/6 135/67/6 144/68/6 146/69/6 147/70/6 148/71/6 145/72/6
f 23/50/7 24/49/7 145/52/8 139/51/8
f 25/62/9 27/61/9 159/72/9 161/71/9 162/70/9 163/69/9 160/68/9 149/67/9 151/66/9 152/65/9 153/64/9 150/63/9
f 149/93/4 160/94/5 164/95/5 155/96/4
f 28/61/6 26/62/6 154/63/6 156/64/6 157/65/6 158/66/6 155/67/6 164/68/6 166/69/6 167/70/6 168/71/6 165/72/6
f 27/54/7 28/53/7 165/56/8 159/55/8
f 29/57/4 35/60/4 38/97/10 31/98/10
f 31/98/10 38/97/10 37/99/11 32/100/11
f 32/101/11 37/102/11 36/103/12 33/104/12
f 33/104/12 36/103/12 34/32/3 30/31/3
f 44/59/5 40/58/5 43/105/13 46/106/13
f 46/106/13 43/105/13 42/107/14 47/108/14
f 47/102/14 42/101/14 41/104/15 48/103/15
f 48/103/15 41/104/15 39/31/8 45/32/8
f 49/73/4 55/76/4 58/109/10 51/110/10
f 51/110/10 58/109/10 57/111/11 52/112/11
f 52/113/11 57/114/11 56/115/12 53/116/12
f 53/116/12 56/115/12 54/36/3 50/35/3
f 64/75/5 60/74/5 63/117/13 66/118/13
f 66/118/13 63/117/13 62/119/14 67/120/14
f 67/114/14 62/113/14 61/116/15 68/115/15
f 68/115/15 61/116/15 59/35/8 65/36/8
f 69/77/4 75/80/4 78/121/10 71/122/10
f 71/122/10 78/121/10 77/123/11 72/124/11
f 72/125/11 77/126/11 76/127/12 73/128/12
f 73/128/12 76/127/12 74/40/3 70/39/3
f 84/79/5 80/78/5 83/129/13 86/130/13
f 86/130/13 83/129/13 82/131/14 87/132/14
f 87/126/14 82/125/14 81/128/15 88/127/15
f 88/127/15 81/128/15 79/39/8 85/40/8
f 89/81/4 95/84/4 98/133/10 91/134/10
f 91/134/10 98/133/10 97/135/11 92/136/11
f 92/137/11 97/138/11 96/139/12 93/140/12
f 93/140/12 96/139/12 94/44/3 90/43/3
f 104/83/5 100/82/5 103/141/13 106/142/13
f 106/142/13 103/141/13 102/143/14 107/144/14
f 107/138/14 102/137/14 101/140/15 108/139/15
f 108/139/15 101/140/15 99/43/8 105/44/8
f 109/85/4 115/88/4 118/145/10 111/146/10
f 111/146/10 118/145/10 117/147/11 112/148/11
f 112/149/11 117/150/11 116/151/12 113/152/12
f 113/152/12 116/151/12 114/48/3 110/47/3
f 124/87/5 120/86/5 123/153/13 126/154/13
f 126/154/13 123/153/13 122/155/14 127/156/14
f 127/150/14 122/149/14 121/152/15 128/151/15
f 128/151/15 121/152/15 119/47/8 125/48/8
f 129/89/4 135/92/4 138/157/10 131/158/10
f 131/158/10 138/157/10 137/159/11 132/160/11
f 132/161/11 137/162/11 136/163/12 133/164/12
f 133/164/12 136/163/12 134/52/3 130/51/3
f 144/91/5 140/90/5 143/165/13 146/166/13
f 146/166/13 143/165/13 142/167/14 147/168/14
f 147/162/14 142/161/14 141/164/15 148/163/15
f 148/163/15 141/164/15 139/51/8 145/52/8
f 149/93/4 155/96/4 158/169/10 151/170/10
f 151/170/10 158/169/10 157/171/11 152/172/11
f 152/173/11 157/174/11 156/175/12 153/176/12
f 153/176/12 156/175/12 154/56/3 150/55/3
f 164/95/5 160/94/5 163/177/13 166/178/13
f 166/178/13 163/177/13 162/179/14 167/180/14
f 167/174/14 162/173/14 161/176/15 168/175/15
f 168/175/15 161/176/15 159/55/8 165/56/8
f 1/62/9 3/61/9 39/72/9 41/71/9 42/70/9 43/69/9 40/68/9 29/67/9 31/66/9 32/65/9 33/64/9 30/63/9
o wood2
v 1.200149 -0.237839 1.966654
v 0.883809 -0.236148 1.966654
v 1.200149 -0.237839 -1.966654
v 0.883809 -0.236148 -1.966654
v 0.852175 -0.235979 1.966654
v 0.535835 -0.234287 1.966654
v 0.852175 -0.235979 -1.966654
v 0.535835 -0.234287 -1.966654
v 1.200791 -0.117841 1.870536
v 1.200529 -0.166714 1.966654
v 1.200756 -0.124389 1.918595
v 1.200660 -0.142278 1.953777
v 0.884189 -0.165023 1.966654
v 0.884451 -0.116149 1.870536
v 0.884320 -0.140586 1.953777
v 0.884416 -0.122697 1.918595
v 1.200529 -0.166714 -1.966654
v 1.200791 -0.117841 -1.870536
v 1.200660 -0.142278 -1.953777
v 1.200756 -0.124389 -1.918595
v 0.884451 -0.116149 -1.870536
v 0.884189 -0.165023 -1.966654
v 0.884416 -0.122697 -1.918595
v 0.884320 -0.140586 -1.953777
v 0.852817 -0.115980 1.870536
v 0.852555 -0.164854 1.966654
v 0.852782 -0.122528 1.918595
v 0.852686 -0.140417 1.953777
v 0.536215 -0.163162 1.966654
v 0.536476 -0.114289 1.870536
v 0.536346 -0.138726 1.953777
v 0.536441 -0.120837 1.918595
v 0.852555 -0.164854 -1.966654
v 0.852817 -0.115980 -1.870536
v 0.852686 -0.140417 -1.953777
v 0.852782 -0.122528 -1.918595
v 0.536476 -0.114289 -1.870536
v 0.536215 -0.163162 -1.966654
v 0.536441 -0.120837 -1.918595
v 0.536346 -0.138726 -1.953777
vn -0.0053 -1.0000 -0.0000
vn -0.0000 -0.0000 1.0000
vn 0.0013 0.2506 0.9681
vn 0.0053 0.9978 0.0668
vn 0.0053 0.9978 -0.0668
vn -1.0000 0.0053 -0.0000
vn -0.0000 -0.0000 -1.0000
vn 0.0013 0.2506 -0.9681
vn 1.0000 -0.0053 -0.0000
vn 0.0053 0.9908 0.1350
vn 0.0048 0.8914 0.4532
vn 0.0040 0.7504 0.6609
vn 0.0053 0.9908 -0.1350
vn 0.0048 0.8914 -0.4532
vn 0.0040 0.7504 -0.6609
vt -1.687379 -0.541609
vt 0.395839 -0.541609
vt 0.395839 1.541609
vt -1.687379 1.541609
vt 0.604161 -0.541609
vt 2.687378 -0.541609
vt 2.687378 1.541609
vt 0.604161 1.541609
vt 0.395839 0.583358
vt -1.687379 0.583358
vt -1.687379 0.509273
vt 0.395839 0.509273
vt 2.687378 0.583358
vt 0.604161 0.583358
vt 0.604161 0.509273
vt 2.687378 0.509273
vt -1.687379 -0.490701
vt -1.687379 1.490701
vt 0.395839 1.490701
vt 0.395839 -0.490701
vt 1.541609 0.583358
vt -0.541609 0.583358
vt -0.541609 0.509273
vt -0.534788 0.483819
vt -0.516155 0.465185
vt -0.490701 0.458365
vt 1.490701 0.458365
vt 1.516155 0.465185
vt 1.534788 0.483819
vt 1.541609 0.509273
vt 0.604161 -0.490701
vt 0.604161 1.490701
vt 2.687378 1.490701
vt 2.687378 -0.490701
vt 0.395839 -0.516155
vt -1.687379 -0.516155
vt -1.687379 0.465185
vt 0.395839 0.465185
vt 0.395839 0.483819
vt -1.687379 0.483819
vt -1.687379 1.516155
vt 0.395839 1.516155
vt 2.687378 -0.516155
vt 0.604161 -0.516155
vt 0.604161 0.465185
vt 2.687378 0.465185
vt 2.687378 0.483819
vt 0.604161 0.483819
vt 0.604161 1.516155
vt 2.687378 1.516155
s 1
usemtl Wood.002
f 169/181/16 170/182/16 172/183/16 171/184/16
f 173/185/16 174/186/16 176/187/16 175/188/16
f 170/189/17 169/190/17 178/191/18 181/192/18
f 174/193/17 173/194/17 194/195/18 197/196/18
f 177/197/19 186/198/20 189/199/20 182/200/19
f 172/201/21 170/202/21 181/203/21 183/204/21 184/205/21 182/206/21 189/207/21 191/208/21 192/209/21 190/210/21
f 171/190/22 172/189/22 190/192/23 185/191/23
f 173/202/24 175/201/24 201/210/24 203/209/24 204/208/24 202/207/24 193/206/24 195/205/24 196/204/24 194/203/24
f 193/211/19 202/212/20 205/213/20 198/214/19
f 176/201/21 174/202/21 197/203/21 199/204/21 200/205/21 198/206/21 205/207/21 207/208/21 208/209/21 206/210/21
f 175/194/22 176/193/22 206/196/23 201/195/23
f 177/197/19 182/200/19 184/215/25 179/216/25
f 179/217/26 184/218/26 183/219/27 180/220/27
f 180/220/27 183/219/27 181/192/18 178/191/18
f 189/199/20 186/198/20 188/221/28 191/222/28
f 191/218/29 188/217/29 187/220/30 192/219/30
f 192/219/30 187/220/30 185/191/23 190/192/23
f 193/211/19 198/214/19 200/223/25 195/224/25
f 195/225/26 200/226/26 199/227/27 196/228/27
f 196/228/27 199/227/27 197/196/18 194/195/18
f 205/213/20 202/212/20 204/229/28 207/230/28
f 207/226/29 204/225/29 203/228/30 208/227/30
f 208/227/30 203/228/30 201/195/23 206/196/23
f 169/202/24 171/201/24 185/210/24 187/209/24 188/208/24 186/207/24 177/206/24 179/205/24 180/204/24 178/203/24
o wood3
v -2.131467 -0.220025 1.966654
v -2.447807 -0.218334 1.966654
v -2.131467 -0.220025 -1.966654
v -2.447807 -0.218334 -1.966654
v -2.479441 -0.218165 1.966654
v -2.795781 -0.216473 1.966654
v -2.479441 -0.218165 -1.966654
v -2.795781 -0.216473 -1.966654
v -2.130825 -0.100027 1.870536
v -2.131087 -0.148900 1.966654
v -2.130860 -0.106575 1.918595
v -2.130956 -0.124464 1.953777
v -2.447427 -0.147209 1.966654
v -2.447165 -0.098335 1.870536
v -2.447296 -0.122772 1.953777
v -2.447200 -0.104883 1.918595
v -2.131087 -0.148900 -1.966654
v -2.130825 -0.100027 -1.870536
v -2.130956 -0.124464 -1.953777
v -2.130860 -0.106575 -1.918595
v -2.447165 -0.098335 -1.870536
v -2.447427 -0.147209 -1.966654
v -2.447200 -0.104883 -1.918595
v -2.447296 -0.122772 -1.953777
v -2.478799 -0.098166 1.870536
v -2.479061 -0.147040 1.966654
v -2.478834 -0.104714 1.918595
v -2.478930 -0.122603 1.953777
v -2.795401 -0.145348 1.966654
v -2.795139 -0.096475 1.870536
v -2.795270 -0.120911 1.953777
v -2.795175 -0.103023 1.918595
v -2.479061 -0.147040 -1.966654
v -2.478799 -0.098166 -1.870536
v -2.478930 -0.122603 -1.953777
v -2.478834 -0.104714 -1.918595
v -2.795139 -0.096475 -1.870536
v -2.795401 -0.145348 -1.966654
v -2.795175 -0.103023 -1.918595
v -2.795270 -0.120911 -1.953777
vn -0.0053 -1.0000 -0.0000
vn -0.0000 -0.0000 1.0000
vn 0.0013 0.2506 0.9681
vn 0.0053 0.9978 0.0668
vn 0.0053 0.9978 -0.0668
vn -1.0000 0.0053 -0.0000
vn -0.0000 -0.0000 -1.0000
vn 0.0013 0.2506 -0.9681
vn 1.0000 -0.0053 -0.0000
vn 0.0053 0.9908 0.1350
vn 0.0048 0.8914 0.4532
vn 0.0040 0.7504 0.6609
vn 0.0053 0.9908 -0.1350
vn 0.0048 0.8914 -0.4532
vn 0.0040 0.7504 -0.6609
vt -1.687379 -0.541609
vt 0.395839 -0.541609
vt 0.395839 1.541609
vt -1.687379 1.541609
vt 0.604161 -0.541609
vt 2.687378 -0.541609
vt 2.687378 1.541609
vt 0.604161 1.541609
vt 0.395839 0.583358
vt -1.687379 0.583358
vt -1.687379 0.509273
vt 0.395839 0.509273
vt 2.687378 0.583358
vt 0.604161 0.583358
vt 0.604161 0.509273
vt 2.687378 0.509273
vt -1.687379 -0.490701
vt -1.687379 1.490701
vt 0.395839 1.490701
vt 0.395839 -0.490701
vt 1.541609 0.583358
vt -0.541609 0.583358
vt -0.541609 0.509273
vt -0.534788 0.483819
vt -0.516155 0.465185
vt -0.490701 0.458365
vt 1.490701 0.458365
vt 1.516155 0.465185
vt 1.534788 0.483819
vt 1.541609 0.509273
vt 0.604161 -0.490701
vt 0.604161 1.490701
vt 2.687378 1.490701
vt 2.687378 -0.490701
vt 0.395839 -0.516155
vt -1.687379 -0.516155
vt -1.687379 0.465185
vt 0.395839 0.465185
vt 0.395839 0.483819
vt -1.687379 0.483819
vt -1.687379 1.516155
vt 0.395839 1.516155
vt 2.687378 -0.516155
vt 0.604161 -0.516155
vt 0.604161 0.465185
vt 2.687378 0.465185
vt 2.687378 0.483819
vt 0.604161 0.483819
vt 0.604161 1.516155
vt 2.687378 1.516155
s 1
usemtl Wood.002
f 209/231/31 210/232/31 212/233/31 211/234/31
f 213/235/31 214/236/31 216/237/31 215/238/31
f 210/239/32 209/240/32 218/241/33 221/242/33
f 214/243/32 213/244/32 234/245/33 237/246/33
f 217/247/34 226/248/35 229/249/35 222/250/34
f 212/251/36 210/252/36 221/253/36 223/254/36 224/255/36 222/256/36 229/257/36 231/258/36 232/259/36 230/260/36
f 211/240/37 212/239/37 230/242/38 225/241/38
f 213/252/39 215/251/39 241/260/39 243/259/39 244/258/39 242/257/39 233/256/39 235/255/39 236/254/39 234/253/39
f 233/261/34 242/262/35 245/263/35 238/264/34
f 216/251/36 214/252/36 237/253/36 239/254/36 240/255/36 238/256/36 245/257/36 247/258/36 248/259/36 246/260/36
f 215/244/37 216/243/37 246/246/38 241/245/38
f 217/247/34 222/250/34 224/265/40 219/266/40
f 219/267/41 224/268/41 223/269/42 220/270/42
f 220/270/42 223/269/42 221/242/33 218/241/33
f 229/249/35 226/248/35 228/271/43 231/272/43
f 231/268/44 228/267/44 227/270/45 232/269/45
f 232/269/45 227/270/45 225/241/38 230/242/38
f 233/261/34 238/264/34 240/273/40 235/274/40
f 235/275/41 240/276/41 239/277/42 236/278/42
f 236/278/42 239/277/42 237/246/33 234/245/33
f 245/263/35 242/262/35 244/279/43 247/280/43
f 247/276/44 244/275/44 243/278/45 248/277/45
f 248/277/45 243/278/45 241/245/38 246/246/38
f 209/252/39 211/251/39 225/260/39 227/259/39 228/258/39 226/257/39 217/256/39 219/255/39 220/254/39 218/253/39
o metal_stand
v -0.476148 0.293001 1.653772
v -0.479688 -0.369169 1.653772
v -0.476148 0.293001 1.780954
v -0.479688 -0.369169 1.780954
v -0.348967 0.292321 1.653772
v -0.352507 -0.369849 1.653772
v -0.348967 0.292321 1.780954
v -0.352507 -0.369849 1.780954
v -0.483498 -1.081725 1.653772
v -0.483498 -1.081725 1.780954
v -0.356906 -1.192456 1.780954
v -0.356906 -1.192456 1.653772
v 0.802487 -1.198656 1.780954
v 0.802487 -1.198656 1.653772
v 0.936912 -1.089320 1.780954
v 0.936912 -1.089320 1.653772
v 0.807048 -0.345489 1.780954
v 0.807048 -0.345489 1.653772
v 0.940885 -0.346205 1.780954
v 0.940885 -0.346205 1.653772
v 0.807560 -0.249768 1.780954
v 0.807560 -0.249768 1.653772
v 0.941397 -0.250484 1.780954
v 0.941397 -0.250484 1.653772
v -0.251560 -1.082965 1.780954
v -0.355757 -0.977648 1.780954
v -0.461075 -1.081845 1.780954
v -0.356878 -1.187163 1.780954
v -0.274856 -1.080214 1.780954
v -0.296957 -1.072348 1.780954
v -0.316753 -1.059761 1.780954
v -0.333252 -1.043085 1.780954
v -0.345626 -1.023156 1.780954
v -0.353255 -1.000972 1.780954
v -0.355757 -0.977648 1.653772
v -0.251560 -1.082965 1.653772
v -0.356878 -1.187163 1.653772
v -0.461075 -1.081845 1.653772
v -0.353255 -1.000972 1.653772
v -0.345626 -1.023156 1.653772
v -0.333252 -1.043085 1.653772
v -0.316753 -1.059761 1.653772
v -0.296957 -1.072348 1.653772
v -0.274856 -1.080214 1.653772
v -0.379329 -1.192337 1.653772
v -0.483527 -1.087019 1.653772
v -0.402626 -1.189585 1.653772
v -0.424726 -1.181719 1.653772
v -0.444522 -1.169132 1.653772
v -0.461021 -1.152456 1.653772
v -0.473395 -1.132527 1.653772
v -0.481025 -1.110344 1.653772
v -0.483527 -1.087019 1.780954
v -0.379329 -1.192337 1.780954
v -0.481025 -1.110344 1.780954
v -0.473395 -1.132527 1.780954
v -0.461021 -1.152456 1.780954
v -0.444522 -1.169132 1.780954
v -0.424726 -1.181719 1.780954
v -0.402626 -1.189585 1.780954
v 0.803635 -0.983847 1.780954
v 0.698317 -1.088044 1.780954
v 0.802515 -1.193362 1.780954
v 0.907833 -1.089164 1.780954
v 0.800884 -1.007143 1.780954
v 0.793018 -1.029244 1.780954
v 0.780431 -1.049040 1.780954
v 0.763755 -1.065539 1.780954
v 0.743826 -1.077913 1.780954
v 0.721642 -1.085542 1.780954
v 0.698317 -1.088044 1.653772
v 0.803635 -0.983847 1.653772
v 0.907833 -1.089164 1.653772
v 0.802515 -1.193362 1.653772
v 0.721642 -1.085542 1.653772
v 0.743826 -1.077913 1.653772
v 0.763755 -1.065539 1.653772
v 0.780431 -1.049040 1.653772
v 0.793018 -1.029244 1.653772
v 0.800884 -1.007143 1.653772
v 0.831566 -1.198811 1.780954
v 0.936884 -1.094614 1.780954
v 0.854891 -1.196309 1.780954
v 0.877074 -1.188680 1.780954
v 0.897003 -1.176306 1.780954
v 0.913679 -1.159807 1.780954
v 0.926266 -1.140011 1.780954
v 0.934132 -1.117910 1.780954
v 0.936884 -1.094614 1.653772
v 0.831566 -1.198811 1.653772
v 0.934132 -1.117910 1.653772
v 0.926266 -1.140011 1.653772
v 0.913679 -1.159807 1.653772
v 0.897003 -1.176306 1.653772
v 0.877074 -1.188680 1.653772
v 0.854891 -1.196309 1.653772
v -1.075431 0.296206 1.780954
v -1.078972 -0.365965 1.780954
v -1.075431 0.296206 1.653772
v -1.078972 -0.365965 1.653772
v -1.202612 0.296886 1.780954
v -1.206153 -0.365285 1.780954
v -1.202612 0.296886 1.653772
v -1.206153 -0.365285 1.653772
v -1.082782 -1.078521 1.780954
v -1.082782 -1.078521 1.653772
v -1.210551 -1.187892 1.653772
v -1.210551 -1.187892 1.780954
v -2.369944 -1.181693 1.653772
v -2.369944 -1.181693 1.780954
v -2.503192 -1.070926 1.653772
v -2.503192 -1.070926 1.780954
v -2.365382 -0.328526 1.653772
v -2.365382 -0.328526 1.780954
v -2.499218 -0.327811 1.653772
v -2.499218 -0.327811 1.780954
v -2.364870 -0.232806 1.653772
v -2.364870 -0.232806 1.780954
v -2.498707 -0.232090 1.653772
v -2.498707 -0.232090 1.780954
v -1.314720 -1.077281 1.653772
v -1.209403 -0.973083 1.653772
v -1.105205 -1.078401 1.653772
v -1.210523 -1.182598 1.653772
v -1.291395 -1.074779 1.653772
v -1.269212 -1.067149 1.653772
v -1.249283 -1.054775 1.653772
v -1.232607 -1.038276 1.653772
v -1.220020 -1.018480 1.653772
v -1.212154 -0.996380 1.653772
v -1.209403 -0.973083 1.780954
v -1.314720 -1.077281 1.780954
v -1.210523 -1.182598 1.780954
v -1.105205 -1.078401 1.780954
v -1.212154 -0.996380 1.780954
v -1.220020 -1.018480 1.780954
v -1.232607 -1.038276 1.780954
v -1.249283 -1.054775 1.780954
v -1.269212 -1.067149 1.780954
v -1.291395 -1.074779 1.780954
v -1.188128 -1.188012 1.780954
v -1.082810 -1.083815 1.780954
v -1.164803 -1.185510 1.780954
v -1.142620 -1.177881 1.780954
v -1.122690 -1.165506 1.780954
v -1.106014 -1.149008 1.780954
v -1.093427 -1.129212 1.780954
v -1.085561 -1.107111 1.780954
v -1.082810 -1.083815 1.653772
v -1.188128 -1.188012 1.653772
v -1.085561 -1.107111 1.653772
v -1.093427 -1.129212 1.653772
v -1.106014 -1.149008 1.653772
v -1.122690 -1.165506 1.653772
v -1.142620 -1.177881 1.653772
v -1.164803 -1.185510 1.653772
v -2.368795 -0.966884 1.653772
v -2.264597 -1.072202 1.653772
v -2.369915 -1.176399 1.653772
v -2.474113 -1.071081 1.653772
v -2.366293 -0.990209 1.653772
v -2.358664 -1.012392 1.653772
v -2.346289 -1.032321 1.653772
v -2.329791 -1.048998 1.653772
v -2.309995 -1.061584 1.653772
v -2.287894 -1.069450 1.653772
v -2.264597 -1.072202 1.780954
v -2.368795 -0.966884 1.780954
v -2.474113 -1.071081 1.780954
v -2.369915 -1.176399 1.780954
v -2.287894 -1.069450 1.780954
v -2.309995 -1.061584 1.780954
v -2.329791 -1.048998 1.780954
v -2.346289 -1.032321 1.780954
v -2.358664 -1.012392 1.780954
v -2.366293 -0.990209 1.780954
v -2.399023 -1.181537 1.653772
v -2.503220 -1.076220 1.653772
v -2.422320 -1.178786 1.653772
v -2.444420 -1.170920 1.653772
v -2.464216 -1.158333 1.653772
v -2.480715 -1.141657 1.653772
v -2.493089 -1.121728 1.653772
v -2.500718 -1.099544 1.653772
v -2.503220 -1.076220 1.780954
v -2.399023 -1.181537 1.780954
v -2.500718 -1.099544 1.780954
v -2.493089 -1.121728 1.780954
v -2.480715 -1.141657 1.780954
v -2.464216 -1.158333 1.780954
v -2.444420 -1.170920 1.780954
v -2.422320 -1.178786 1.780954
v -1.075431 0.296206 -1.701953
v -1.078972 -0.365965 -1.701953
v -1.075431 0.296206 -1.829136
v -1.078972 -0.365965 -1.829136
v -1.202612 0.296886 -1.701953
v -1.206153 -0.365285 -1.701953
v -1.202612 0.296886 -1.829136
v -1.206153 -0.365285 -1.829136
v -1.082782 -1.078521 -1.701953
v -1.082782 -1.078521 -1.829136
v -1.210551 -1.187892 -1.829136
v -1.210551 -1.187892 -1.701953
v -2.369944 -1.181693 -1.829136
v -2.369944 -1.181693 -1.701953
v -2.503192 -1.070926 -1.829136
v -2.503192 -1.070926 -1.701953
v -2.365382 -0.328526 -1.829136
v -2.365382 -0.328526 -1.701953
v -2.499218 -0.327811 -1.829136
v -2.499218 -0.327811 -1.701953
v -2.364870 -0.232806 -1.829136
v -2.364870 -0.232806 -1.701953
v -2.498707 -0.232090 -1.829136
v -2.498707 -0.232090 -1.701953
v -1.314720 -1.077281 -1.829136
v -1.209403 -0.973083 -1.829136
v -1.105205 -1.078401 -1.829136
v -1.210523 -1.182598 -1.829136
v -1.291395 -1.074779 -1.829136
v -1.269212 -1.067149 -1.829136
v -1.249283 -1.054775 -1.829136
v -1.232607 -1.038276 -1.829136
v -1.220020 -1.018480 -1.829136
v -1.212154 -0.996380 -1.829136
v -1.209403 -0.973083 -1.701953
v -1.314720 -1.077281 -1.701953
v -1.210523 -1.182598 -1.701953
v -1.105205 -1.078401 -1.701953
v -1.212154 -0.996380 -1.701953
v -1.220020 -1.018480 -1.701953
v -1.232607 -1.038276 -1.701953
v -1.249283 -1.054775 -1.701953
v -1.269212 -1.067149 -1.701953
v -1.291395 -1.074779 -1.701953
v -1.188128 -1.188012 -1.701953
v -1.082810 -1.083815 -1.701953
v -1.164803 -1.185510 -1.701953
v -1.142620 -1.177881 -1.701953
v -1.122690 -1.165506 -1.701953
v -1.106014 -1.149008 -1.701953
v -1.093427 -1.129212 -1.701953
v -1.085561 -1.107111 -1.701953
v -1.082810 -1.083815 -1.829136
v -1.188128 -1.188012 -1.829136
v -1.085561 -1.107111 -1.829136
v -1.093427 -1.129212 -1.829136
v -1.106014 -1.149008 -1.829136
v -1.122690 -1.165506 -1.829136
v -1.142620 -1.177881 -1.829136
v -1.164803 -1.185510 -1.829136
v -2.368795 -0.966884 -1.829136
v -2.264597 -1.072202 -1.829136
v -2.369915 -1.176399 -1.829136
v -2.474113 -1.071081 -1.829136
v -2.366293 -0.990209 -1.829136
v -2.358664 -1.012392 -1.829136
v -2.346289 -1.032321 -1.829136
v -2.329791 -1.048998 -1.829136
v -2.309995 -1.061584 -1.829136
v -2.287894 -1.069450 -1.829136
v -2.264597 -1.072202 -1.701953
v -2.368795 -0.966884 -1.701953
v -2.474113 -1.071081 -1.701953
v -2.369915 -1.176399 -1.701953
v -2.287894 -1.069450 -1.701953
v -2.309995 -1.061584 -1.701953
v -2.329791 -1.048998 -1.701953
v -2.346289 -1.032321 -1.701953
v -2.358664 -1.012392 -1.701953
v -2.366293 -0.990209 -1.701953
v -2.399023 -1.181537 -1.829136
v -2.503220 -1.076220 -1.829136
v -2.422320 -1.178786 -1.829136
v -2.444420 -1.170920 -1.829136
v -2.464216 -1.158333 -1.829136
v -2.480715 -1.141657 -1.829136
v -2.493089 -1.121728 -1.829136
v -2.500718 -1.099544 -1.829136
v -2.503220 -1.076220 -1.701953
v -2.399023 -1.181537 -1.701953
v -2.500718 -1.099544 -1.701953
v -2.493089 -1.121728 -1.701953
v -2.480715 -1.141657 -1.701953
v -2.464216 -1.158333 -1.701953
v -2.444420 -1.170920 -1.701953
v -2.422320 -1.178786 -1.701953
v -0.476148 0.293001 -1.829136
v -0.479688 -0.369169 -1.829136
v -0.476148 0.293001 -1.701953
v -0.479688 -0.369169 -1.701953
v -0.348967 0.292321 -1.829136
v -0.352507 -0.369849 -1.829136
v -0.348967 0.292321 -1.701953
v -0.352507 -0.369849 -1.701953
v -0.483498 -1.081725 -1.829136
v -0.483498 -1.081725 -1.701953
v -0.356906 -1.192456 -1.701953
v -0.356906 -1.192456 -1.829136
v 0.802487 -1.198656 -1.701953
v 0.802487 -1.198656 -1.829136
v 0.936912 -1.089320 -1.701953
v 0.936912 -1.089320 -1.829136
v 0.807048 -0.345489 -1.701953
v 0.807048 -0.345489 -1.829136
v 0.940885 -0.346205 -1.701953
v 0.940885 -0.346205 -1.829136
v 0.807560 -0.249768 -1.701953
v 0.807560 -0.249768 -1.829136
v 0.941397 -0.250484 -1.701953
v 0.941397 -0.250484 -1.829136
v -0.251560 -1.082965 -1.701953
v -0.355757 -0.977648 -1.701953
v -0.461075 -1.081845 -1.701953
v -0.356877 -1.187163 -1.701953
v -0.274856 -1.080214 -1.701953
v -0.296957 -1.072348 -1.701953
v -0.316753 -1.059761 -1.701953
v -0.333252 -1.043085 -1.701953
v -0.345626 -1.023156 -1.701953
v -0.353255 -1.000972 -1.701953
v -0.355757 -0.977648 -1.829136
v -0.251560 -1.082965 -1.829136
v -0.356877 -1.187163 -1.829136
v -0.461075 -1.081845 -1.829136
v -0.353255 -1.000972 -1.829136
v -0.345626 -1.023156 -1.829136
v -0.333252 -1.043085 -1.829136
v -0.316753 -1.059761 -1.829136
v -0.296957 -1.072348 -1.829136
v -0.274856 -1.080214 -1.829136
v -0.379329 -1.192337 -1.829136
v -0.483526 -1.087019 -1.829136
v -0.402626 -1.189585 -1.829136
v -0.424726 -1.181719 -1.829136
v -0.444522 -1.169132 -1.829136
v -0.461021 -1.152456 -1.829136
v -0.473395 -1.132527 -1.829136
v -0.481025 -1.110344 -1.829136
v -0.483526 -1.087019 -1.701953
v -0.379329 -1.192337 -1.701953
v -0.481025 -1.110344 -1.701953
v -0.473395 -1.132527 -1.701953
v -0.461021 -1.152456 -1.701953
v -0.444522 -1.169132 -1.701953
v -0.424726 -1.181719 -1.701953
v -0.402626 -1.189585 -1.701953
v 0.803635 -0.983847 -1.701953
v 0.698317 -1.088044 -1.701953
v 0.802515 -1.193362 -1.701953
v 0.907833 -1.089164 -1.701953
v 0.800884 -1.007143 -1.701953
v 0.793018 -1.029244 -1.701953
v 0.780431 -1.049040 -1.701953
v 0.763755 -1.065539 -1.701953
v 0.743826 -1.077913 -1.701953
v 0.721642 -1.085542 -1.701953
v 0.698317 -1.088044 -1.829136
v 0.803635 -0.983847 -1.829136
v 0.907833 -1.089164 -1.829136
v 0.802515 -1.193362 -1.829136
v 0.721642 -1.085542 -1.829136
v 0.743826 -1.077913 -1.829136
v 0.763755 -1.065539 -1.829136
v 0.780431 -1.049040 -1.829136
v 0.793018 -1.029244 -1.829136
v 0.800884 -1.007143 -1.829136
v 0.831566 -1.198811 -1.701953
v 0.936884 -1.094614 -1.701953
v 0.854891 -1.196309 -1.701953
v 0.877074 -1.188680 -1.701953
v 0.897003 -1.176306 -1.701953
v 0.913679 -1.159807 -1.701953
v 0.926266 -1.140011 -1.701953
v 0.934132 -1.117910 -1.701953
v 0.936884 -1.094614 -1.829136
v 0.831566 -1.198811 -1.829136
v 0.934132 -1.117910 -1.829136
v 0.926266 -1.140011 -1.829136
v 0.913679 -1.159807 -1.829136
v 0.897003 -1.176306 -1.829136
v 0.877074 -1.188680 -1.829136
v 0.854891 -1.196309 -1.829136
v 1.146388 -0.251516 -1.850954
v 0.598644 -0.248587 -1.850954
v 1.146388 -0.251516 -1.664485
v 0.598644 -0.248587 -1.664485
v 1.146504 -0.229907 -1.850954
v 0.598760 -0.226978 -1.850954
v 1.146504 -0.229907 -1.664485
v 0.598760 -0.226978 -1.664485
v 1.146388 -0.251516 -0.116793
v 0.598644 -0.248587 -0.116793
v 1.146388 -0.251516 0.069676
v 0.598644 -0.248587 0.069676
v 1.146504 -0.229907 -0.116793
v 0.598760 -0.226978 -0.116793
v 1.146504 -0.229907 0.069676
v 0.598760 -0.226978 0.069676
v 1.146388 -0.251516 1.617369
v 0.598644 -0.248587 1.617369
v 1.146388 -0.251516 1.803837
v 0.598644 -0.248587 1.803837
v 1.146504 -0.229907 1.617369
v 0.598760 -0.226978 1.617369
v 1.146504 -0.229907 1.803837
v 0.598760 -0.226978 1.803837
v -2.195722 -0.233645 -1.850954
v -2.743466 -0.230717 -1.850954
v -2.195722 -0.233645 -1.664485
v -2.743466 -0.230717 -1.664485
v -2.195607 -0.212037 -1.850954
v -2.743351 -0.209108 -1.850954
v -2.195607 -0.212037 -1.664485
v -2.743351 -0.209108 -1.664485
v -2.195722 -0.233645 -0.116793
v -2.743466 -0.230717 -0.116793
v -2.195722 -0.233645 0.069676
v -2.743466 -0.230717 0.069676
v -2.195607 -0.212037 -0.116793
v -2.743351 -0.209108 -0.116793
v -2.195607 -0.212037 0.069676
v -2.743351 -0.209108 0.069676
v -2.195722 -0.233645 1.617369
v -2.743466 -0.230717 1.617369
v -2.195722 -0.233645 1.803837
v -2.743466 -0.230717 1.803837
v -2.195607 -0.212037 1.617369
v -2.743351 -0.209108 1.617369
v -2.195607 -0.212037 1.803837
v -2.743351 -0.209108 1.803837
v 0.072462 0.289443 -1.850954
v -1.695406 0.298896 -1.850954
v 0.072462 0.289443 -1.664485
v -1.695406 0.298896 -1.664485
v 0.072578 0.311052 -1.850954
v -1.695290 0.320505 -1.850954
v 0.072578 0.311052 -1.664485
v -1.695290 0.320505 -1.664485
v 0.072462 0.289443 -0.116793
v -1.695406 0.298896 -0.116793
v 0.072462 0.289443 0.069676
v -1.695406 0.298896 0.069676
v 0.072578 0.311052 -0.116793
v -1.695290 0.320505 -0.116793
v 0.072578 0.311052 0.069676
v -1.695290 0.320505 0.069676
v 0.072462 0.289443 1.617369
v -1.695406 0.298896 1.617369
v 0.072462 0.289443 1.803837
v -1.695406 0.298896 1.803837
v 0.072578 0.311052 1.617369
v -1.695290 0.320505 1.617369
v 0.072578 0.311052 1.803837
v -1.695290 0.320505 1.803837
vn -1.0000 0.0053 -0.0000
vn -0.0000 -0.0000 1.0000
vn 1.0000 -0.0053 -0.0000
vn -0.0000 -0.0000 -1.0000
vn 0.0053 1.0000 -0.0000
vn -0.0053 -1.0000 -0.0000
vn -0.9987 -0.0507 -0.0000
vn -0.9981 0.0614 -0.0000
vn -0.0614 -0.9981 -0.0000
vn 0.9987 0.0507 -0.0000
vn 0.0614 0.9981 -0.0000
vn -0.0507 0.9987 -0.0000
vn 0.9981 -0.0614 -0.0000
vn 0.0507 -0.9987 -0.0000
vn 0.2277 0.9737 -0.0000
vn 0.4387 0.8986 -0.0000
vn 0.6277 0.7785 -0.0000
vn 0.7852 0.6193 -0.0000
vn 0.9033 0.4291 -0.0000
vn 0.9761 0.2173 -0.0000
vn -0.2277 -0.9737 -0.0000
vn -0.4387 -0.8986 -0.0000
vn -0.6277 -0.7785 -0.0000
vn -0.7852 -0.6193 -0.0000
vn -0.9033 -0.4291 -0.0000
vn -0.9761 -0.2173 -0.0000
vn -0.9737 0.2277 -0.0000
vn -0.8986 0.4387 -0.0000
vn -0.7785 0.6277 -0.0000
vn -0.6193 0.7852 -0.0000
vn -0.4291 0.9033 -0.0000
vn -0.2173 0.9761 -0.0000
vn 0.2173 -0.9761 -0.0000
vn 0.4291 -0.9033 -0.0000
vn 0.6193 -0.7852 -0.0000
vn 0.7785 -0.6277 -0.0000
vn 0.8986 -0.4387 -0.0000
vn 0.9737 -0.2277 -0.0000
vt -0.500000 -18.266672
vt -0.500000 -7.853622
vt 1.500000 -7.853622
vt 1.500000 -18.266672
vt -10.640236 -18.266672
vt -10.640236 -7.853622
vt -8.640236 -7.853622
vt -8.640236 -18.266672
vt -10.640236 1.500000
vt -8.640236 1.500000
vt -8.640236 -0.500000
vt -10.640236 -0.500000
vt -6.992856 3.351776
vt -8.640236 4.999156
vt -8.640236 5.082403
vt 9.591951 5.082403
vt 9.591951 4.999156
vt 7.944571 3.351776
vt 9.591951 -0.500000
vt 9.591951 1.500000
vt -10.640236 3.351776
vt -10.287616 3.351776
vt -8.640236 1.704396
vt -0.500000 3.351776
vt 1.500000 3.351776
vt -0.500000 3.435023
vt 1.500000 3.435023
vt -0.500000 1.704396
vt 1.500000 1.704396
vt 1.500000 -8.334183
vt -0.500000 -8.334183
vt -8.992856 1.500000
vt -8.992856 -0.500000
vt -6.992856 3.351776
vt 11.696621 3.351776
vt 11.239332 3.351776
vt 9.591951 1.704396
vt 9.591951 -8.334183
vt 11.696621 -8.334183
vt -8.992856 5.082403
vt -9.359432 5.041099
vt -9.707627 4.919260
vt -10.019980 4.722996
vt -10.280829 4.462147
vt -10.477094 4.149794
vt -10.598932 3.801599
vt -10.640236 3.435023
vt -6.992856 -0.500000
vt -6.992856 1.500000
vt 7.944571 1.500000
vt 7.944571 -0.500000
vt 10.049240 -0.500000
vt 10.049240 1.500000
vt 1.500000 -9.839455
vt -0.500000 -9.839455
vt 11.696621 3.435023
vt 11.655317 3.801599
vt 11.533480 4.149794
vt 11.337214 4.462147
vt 11.076365 4.722996
vt 10.764011 4.919260
vt 10.415817 5.041099
vt 10.049240 5.082403
vt 11.696621 1.500000
vt 11.696621 -0.500000
vt 11.696621 -9.839455
vt 9.591951 -9.839455
vt -7.359432 3.310472
vt -7.707627 3.188633
vt -8.019980 2.992369
vt -8.280829 2.731520
vt -8.477094 2.419167
vt -8.598932 2.070971
vt 9.550648 2.070971
vt 9.428810 2.419167
vt 9.232544 2.731520
vt 8.971695 2.992369
vt 8.659342 3.188633
vt 8.311148 3.310472
vt -7.359432 -0.500000
vt -7.359432 1.500000
vt -7.707627 -0.500000
vt -7.707627 1.500000
vt -8.019980 -0.500000
vt -8.019980 1.500000
vt -8.280829 -0.500000
vt -8.280829 1.500000
vt 1.500000 2.731520
vt -0.500000 2.731520
vt -0.500000 2.419167
vt 1.500000 2.419167
vt -0.500000 2.070971
vt 1.500000 2.070971
vt -9.359432 1.500000
vt -9.359432 -0.500000
vt -9.707627 1.500000
vt -9.707627 -0.500000
vt -10.019980 1.500000
vt -10.019980 -0.500000
vt -10.280829 1.500000
vt -10.280829 -0.500000
vt -0.500000 4.462147
vt 1.500000 4.462147
vt 1.500000 4.149794
vt -0.500000 4.149794
vt 1.500000 3.801599
vt -0.500000 3.801599
vt 9.232544 1.500000
vt 9.232544 -0.500000
vt 8.971695 -0.500000
vt 8.971695 1.500000
vt 8.659342 -0.500000
vt 8.659342 1.500000
vt 8.311148 -0.500000
vt 8.311148 1.500000
vt 10.415817 -0.500000
vt 10.415817 1.500000
vt 10.764011 -0.500000
vt 10.764011 1.500000
vt 11.076365 -0.500000
vt 11.076365 1.500000
vt 11.337214 -0.500000
vt 11.337214 1.500000
vt 0.436409 -0.693398
vt 0.436409 -0.031218
vt 0.563591 -0.031218
vt 0.563591 -0.693398
vt -0.208422 -0.693398
vt -0.208422 -0.031218
vt -0.081240 -0.031218
vt -0.081240 -0.693398
vt -0.208422 0.563591
vt -0.081240 0.563591
vt -0.081240 0.436409
vt -0.208422 0.436409
vt 0.023519 0.681348
vt -0.081240 0.786107
vt -0.081240 0.791401
vt 1.078169 0.791401
vt 1.078169 0.786107
vt 0.973410 0.681348
vt 1.078169 0.436409
vt 1.078169 0.563591
vt -0.208422 0.681348
vt -0.185999 0.681348
vt -0.081240 0.576589
vt 0.436409 0.681348
vt 0.563591 0.681348
vt 0.436409 0.686642
vt 0.563591 0.686642
vt 0.436409 0.576589
vt 0.563591 0.576589
vt 0.563591 -0.061777
vt 0.436409 -0.061777
vt -0.103663 0.563591
vt -0.103663 0.436409
vt 0.023519 0.681348
vt 1.212008 0.681348
vt 1.182928 0.681348
vt 1.078169 0.576589
vt 1.078169 -0.061777
vt 1.212008 -0.061777
vt -0.103663 0.791401
vt -0.126974 0.788774
vt -0.149117 0.781027
vt -0.168980 0.768546
vt -0.185567 0.751958
vt -0.198048 0.732095
vt -0.205796 0.709953
vt -0.208422 0.686642
vt 0.023519 0.436409
vt 0.023519 0.563591
vt 0.973410 0.563591
vt 0.973410 0.436409
vt 1.107249 0.436409
vt 1.107249 0.563591
vt 0.563591 -0.157500
vt 0.436409 -0.157500
vt 1.212008 0.686642
vt 1.209381 0.709953
vt 1.201634 0.732095
vt 1.189153 0.751958
vt 1.172565 0.768546
vt 1.152702 0.781027
vt 1.130560 0.788774
vt 1.107249 0.791401
vt 1.212008 0.563591
vt 1.212008 0.436409
vt 1.212008 -0.157500
vt 1.078169 -0.157500
vt 0.000208 0.678722
vt -0.021934 0.670974
vt -0.041797 0.658493
vt -0.058385 0.641905
vt -0.070865 0.622042
vt -0.078613 0.599900
vt 1.075543 0.599900
vt 1.067795 0.622042
vt 1.055314 0.641905
vt 1.038726 0.658493
vt 1.018863 0.670974
vt 0.996721 0.678722
vt 0.000208 0.436409
vt 0.000208 0.563591
vt -0.021934 0.436409
vt -0.021934 0.563591
vt -0.041797 0.436409
vt -0.041797 0.563591
vt -0.058385 0.436409
vt -0.058385 0.563591
vt 0.563591 0.641905
vt 0.436409 0.641905
vt 0.436409 0.622042
vt 0.563591 0.622042
vt 0.436409 0.599900
vt 0.563591 0.599900
vt -0.126974 0.563591
vt -0.126974 0.436409
vt -0.149117 0.563591
vt -0.149117 0.436409
vt -0.168980 0.563591
vt -0.168980 0.436409
vt -0.185567 0.563591
vt -0.185567 0.436409
vt 0.436409 0.751958
vt 0.563591 0.751958
vt 0.563591 0.732095
vt 0.436409 0.732095
vt 0.563591 0.709953
vt 0.436409 0.709953
vt 1.055314 0.563591
vt 1.055314 0.436409
vt 1.038726 0.436409
vt 1.038726 0.563591
vt 1.018863 0.436409
vt 1.018863 0.563591
vt 0.996721 0.436409
vt 0.996721 0.563591
vt 1.130560 0.436409
vt 1.130560 0.563591
vt 1.152702 0.436409
vt 1.152702 0.563591
vt 1.172565 0.436409
vt 1.172565 0.563591
vt 1.189153 0.436409
vt 1.189153 0.563591
vt 0.199687 -5.386141
vt 0.800313 -5.386141
vt 0.800313 -4.785514
vt 0.199687 -4.785514
vt -5.386141 0.504505
vt -4.785514 0.504505
vt -4.785514 0.495495
vt -5.386141 0.495495
vt 0.800313 0.504505
vt 0.199687 0.504505
vt 0.199687 0.495495
vt 0.800313 0.495495
vt 0.199687 0.199687
vt 0.800313 0.199687
vt 0.800313 0.800313
vt 0.199687 0.800313
vt 0.199687 5.785514
vt 0.800313 5.785514
vt 0.800313 6.386141
vt 0.199687 6.386141
vt 5.785514 0.504505
vt 6.386141 0.504505
vt 6.386141 0.495495
vt 5.785514 0.495495
vt 0.199687 0.504505
vt 0.199687 0.495495
vt -0.003670 -9.371935
vt 1.003670 -9.371935
vt 1.003670 -8.364594
vt -0.003670 -8.364594
vt -9.371935 0.507555
vt -8.364594 0.507555
vt -8.364594 0.492445
vt -9.371935 0.492445
vt 1.003670 0.507555
vt -0.003670 0.507555
vt -0.003670 0.492445
vt 1.003670 0.492445
vt -0.003670 -0.003670
vt 1.003670 -0.003670
vt 1.003670 1.003670
vt -0.003670 1.003670
vt -0.003670 9.364594
vt 1.003670 9.364594
vt 1.003670 10.371935
vt -0.003670 10.371935
vt 9.364594 0.507555
vt 10.371935 0.507555
vt 10.371935 0.492445
vt 9.364594 0.492445
vt -0.003670 0.507555
vt -0.003670 0.492445
s 1
usemtl Metal
f 249/281/46 250/282/46 252/283/46 251/284/46
f 251/285/47 252/286/47 256/287/47 255/288/47
f 255/284/48 256/283/48 254/282/48 253/281/48
f 253/288/49 254/287/49 250/286/49 249/285/49
f 251/289/50 255/290/50 253/291/50 249/292/50
f 273/293/47 276/294/47 259/295/47 261/296/47 311/297/47 310/298/47
f 259/290/51 260/291/51 262/299/51 261/300/51
f 256/287/47 252/286/47 258/301/47 275/302/47 274/303/47
f 252/283/46 250/282/46 257/304/46 258/305/46
f 258/305/46 257/304/46 294/306/52 301/307/52
f 320/308/53 309/309/53 265/310/46 266/311/46
f 259/290/51 302/312/54 293/313/54 260/291/51
f 260/295/49 285/294/49 284/314/49 319/298/49 322/297/49 262/296/49
f 254/282/48 256/283/48 274/309/55 283/308/55
f 264/315/49 321/316/49 320/317/49 266/318/49 268/319/49
f 257/301/49 286/302/49 285/294/49 260/295/49 293/320/49 295/321/49 296/322/49 297/323/49 298/324/49 299/325/49 300/326/49 294/327/49
f 250/286/49 254/287/49 283/303/49 286/302/49 257/301/49
f 284/328/56 273/329/56 310/330/57 319/331/57
f 264/304/48 263/305/48 330/307/58 337/306/58
f 309/317/47 312/316/47 263/315/47 267/319/47 265/318/47
f 261/300/51 262/299/51 338/332/59 329/333/59
f 266/311/46 265/310/46 269/334/46 270/335/46
f 263/305/48 264/304/48 268/311/48 267/310/48
f 262/296/49 322/297/49 321/316/49 264/315/49 337/336/49 339/337/49 340/338/49 341/339/49 342/340/49 343/341/49 344/342/49 338/343/49
f 312/316/47 311/297/47 261/296/47 329/343/47 331/342/47 332/341/47 333/340/47 334/339/47 335/338/47 336/337/47 330/336/47 263/315/47
f 270/299/50 269/300/50 271/344/50 272/345/50
f 265/318/47 267/319/47 271/346/47 269/347/47
f 267/310/48 268/311/48 272/335/48 271/334/48
f 268/319/49 266/318/49 270/347/49 272/346/49
f 273/293/47 277/348/47 278/349/47 279/350/47 280/351/47 281/352/47 282/353/47 274/303/47 275/302/47 276/294/47
f 283/303/49 287/353/49 288/352/49 289/351/49 290/350/49 291/349/49 292/348/49 284/314/49 285/294/49 286/302/49
f 309/317/47 313/354/47 314/355/47 315/356/47 316/357/47 317/358/47 318/359/47 310/298/47 311/297/47 312/316/47
f 319/298/49 323/359/49 324/358/49 325/357/49 326/356/49 327/355/49 328/354/49 320/317/49 321/316/49 322/297/49
f 273/329/56 284/328/56 292/360/60 277/361/60
f 277/361/60 292/360/60 291/362/61 278/363/61
f 278/363/61 291/362/61 290/364/62 279/365/62
f 279/365/62 290/364/62 289/366/63 280/367/63
f 280/368/63 289/369/63 288/370/64 281/371/64
f 281/371/64 288/370/64 287/372/65 282/373/65
f 282/373/65 287/372/65 283/308/55 274/309/55
f 293/313/54 302/312/54 308/374/66 295/375/66
f 295/375/66 308/374/66 307/376/67 296/377/67
f 296/377/67 307/376/67 306/378/68 297/379/68
f 297/379/68 306/378/68 305/380/69 298/381/69
f 298/382/69 305/383/69 304/384/70 299/385/70
f 299/385/70 304/384/70 303/386/71 300/387/71
f 300/387/71 303/386/71 301/307/52 294/306/52
f 309/309/53 320/308/53 328/372/72 313/373/72
f 313/373/72 328/372/72 327/370/73 314/371/73
f 314/371/73 327/370/73 326/369/74 315/368/74
f 315/388/74 326/389/74 325/390/75 316/391/75
f 316/391/75 325/390/75 324/392/76 317/393/76
f 317/393/76 324/392/76 323/394/77 318/395/77
f 318/395/77 323/394/77 319/331/57 310/330/57
f 329/333/59 338/332/59 344/396/78 331/397/78
f 331/397/78 344/396/78 343/398/79 332/399/79
f 332/399/79 343/398/79 342/400/80 333/401/80
f 333/401/80 342/400/80 341/402/81 334/403/81
f 334/383/81 341/382/81 340/385/82 335/384/82
f 335/384/82 340/385/82 339/387/83 336/386/83
f 336/386/83 339/387/83 337/306/58 330/307/58
f 276/294/47 275/302/47 258/301/47 301/327/47 303/326/47 304/325/47 305/324/47 306/323/47 307/322/47 308/321/47 302/320/47 259/295/47
f 345/404/48 346/405/48 348/406/48 347/407/48
f 347/408/49 348/409/49 352/410/49 351/411/49
f 351/407/46 352/406/46 350/405/46 349/404/46
f 349/411/47 350/410/47 346/409/47 345/408/47
f 347/412/50 351/413/50 349/414/50 345/415/50
f 369/416/49 372/417/49 355/418/49 357/419/49 407/420/49 406/421/49
f 355/413/51 356/414/51 358/422/51 357/423/51
f 352/410/49 348/409/49 354/424/49 371/425/49 370/426/49
f 348/406/48 346/405/48 353/427/48 354/428/48
f 354/428/48 353/427/48 390/429/58 397/430/58
f 416/431/55 405/432/55 361/433/48 362/434/48
f 355/413/51 398/435/59 389/436/59 356/414/51
f 356/418/47 381/417/47 380/437/47 415/421/47 418/420/47 358/419/47
f 350/405/46 352/406/46 370/432/53 379/431/53
f 360/438/47 417/439/47 416/440/47 362/441/47 364/442/47
f 353/424/47 382/425/47 381/417/47 356/418/47 389/443/47 391/444/47 392/445/47 393/446/47 394/447/47 395/448/47 396/449/47 390/450/47
f 346/409/47 350/410/47 379/426/47 382/425/47 353/424/47
f 380/451/57 369/452/57 406/453/56 415/454/56
f 360/427/46 359/428/46 426/430/52 433/429/52
f 405/440/49 408/439/49 359/438/49 363/442/49 361/441/49
f 357/423/51 358/422/51 434/455/54 425/456/54
f 362/434/48 361/433/48 365/457/48 366/458/48
f 359/428/46 360/427/46 364/434/46 363/433/46
f 358/419/47 418/420/47 417/439/47 360/438/47 433/459/47 435/460/47 436/461/47 437/462/47 438/463/47 439/464/47 440/465/47 434/466/47
f 408/439/49 407/420/49 357/419/49 425/466/49 427/465/49 428/464/49 429/463/49 430/462/49 431/461/49 432/460/49 426/459/49 359/438/49
f 366/422/50 365/423/50 367/467/50 368/468/50
f 361/441/49 363/442/49 367/469/49 365/470/49
f 363/433/46 364/434/46 368/458/46 367/457/46
f 364/442/47 362/441/47 366/470/47 368/469/47
f 369/416/49 373/471/49 374/472/49 375/473/49 376/474/49 377/475/49 378/476/49 370/426/49 371/425/49 372/417/49
f 379/426/47 383/476/47 384/475/47 385/474/47 386/473/47 387/472/47 388/471/47 380/437/47 381/417/47 382/425/47
f 405/440/49 409/477/49 410/478/49 411/479/49 412/480/49 413/481/49 414/482/49 406/421/49 407/420/49 408/439/49
f 415/421/47 419/482/47 420/481/47 421/480/47 422/479/47 423/478/47 424/477/47 416/440/47 417/439/47 418/420/47
f 369/452/57 380/451/57 388/483/77 373/484/77
f 373/484/77 388/483/77 387/485/76 374/486/76
f 374/486/76 387/485/76 386/487/75 375/488/75
f 375/488/75 386/487/75 385/489/74 376/490/74
f 376/491/74 385/492/74 384/493/73 377/494/73
f 377/494/73 384/493/73 383/495/72 378/496/72
f 378/496/72 383/495/72 379/431/53 370/432/53
f 389/436/59 398/435/59 404/497/78 391/498/78
f 391/498/78 404/497/78 403/499/79 392/500/79
f 392/500/79 403/499/79 402/501/80 393/502/80
f 393/502/80 402/501/80 401/503/81 394/504/81
f 394/505/81 401/506/81 400/507/82 395/508/82
f 395/508/82 400/507/82 399/509/83 396/510/83
f 396/510/83 399/509/83 397/430/58 390/429/58
f 405/432/55 416/431/55 424/495/65 409/496/65
f 409/496/65 424/495/65 423/493/64 410/494/64
f 410/494/64 423/493/64 422/492/63 411/491/63
f 411/511/63 422/512/63 421/513/62 412/514/62
f 412/514/62 421/513/62 420/515/61 413/516/61
f 413/516/61 420/515/61 419/517/60 414/518/60
f 414/518/60 419/517/60 415/454/56 406/453/56
f 425/456/54 434/455/54 440/519/66 427/520/66
f 427/520/66 440/519/66 439/521/67 428/522/67
f 428/522/67 439/521/67 438/523/68 429/524/68
f 429/524/68 438/523/68 437/525/69 430/526/69
f 430/506/69 437/505/69 436/508/70 431/507/70
f 431/507/70 436/508/70 435/510/71 432/509/71
f 432/509/71 435/510/71 433/429/52 426/430/52
f 372/417/49 371/425/49 354/424/49 397/450/49 399/449/49 400/448/49 401/447/49 402/446/49 403/445/49 404/444/49 398/443/49 355/418/49
f 441/404/48 442/405/48 444/406/48 443/407/48
f 443/408/49 444/409/49 448/410/49 447/411/49
f 447/407/46 448/406/46 446/405/46 445/404/46
f 445/411/47 446/410/47 442/409/47 441/408/47
f 443/412/50 447/413/50 445/414/50 441/415/50
f 465/416/49 468/417/49 451/418/49 453/419/49 503/420/49 502/421/49
f 451/413/51 452/414/51 454/422/51 453/423/51
f 448/410/49 444/409/49 450/424/49 467/425/49 466/426/49
f 444/406/48 442/405/48 449/427/48 450/428/48
f 450/428/48 449/427/48 486/429/58 493/430/58
f 512/431/55 501/432/55 457/433/48 458/434/48
f 451/413/51 494/435/59 485/436/59 452/414/51
f 452/418/47 477/417/47 476/437/47 511/421/47 514/420/47 454/419/47
f 446/405/46 448/406/46 466/432/53 475/431/53
f 456/438/47 513/439/47 512/440/47 458/441/47 460/442/47
f 449/424/47 478/425/47 477/417/47 452/418/47 485/443/47 487/444/47 488/445/47 489/446/47 490/447/47 491/448/47 492/449/47 486/450/47
f 442/409/47 446/410/47 475/426/47 478/425/47 449/424/47
f 476/451/57 465/452/57 502/453/56 511/454/56
f 456/427/46 455/428/46 522/430/52 529/429/52
f 501/440/49 504/439/49 455/438/49 459/442/49 457/441/49
f 453/423/51 454/422/51 530/455/54 521/456/54
f 458/434/48 457/433/48 461/457/48 462/458/48
f 455/428/46 456/427/46 460/434/46 459/433/46
f 454/419/47 514/420/47 513/439/47 456/438/47 529/459/47 531/460/47 532/461/47 533/462/47 534/463/47 535/464/47 536/465/47 530/466/47
f 504/439/49 503/420/49 453/419/49 521/466/49 523/465/49 524/464/49 525/463/49 526/462/49 527/461/49 528/460/49 522/459/49 455/438/49
f 462/422/50 461/423/50 463/467/50 464/468/50
f 457/441/49 459/442/49 463/469/49 461/470/49
f 459/433/46 460/434/46 464/458/46 463/457/46
f 460/442/47 458/441/47 462/470/47 464/469/47
f 465/416/49 469/471/49 470/472/49 471/473/49 472/474/49 473/475/49 474/476/49 466/426/49 467/425/49 468/417/49
f 475/426/47 479/476/47 480/475/47 481/474/47 482/473/47 483/472/47 484/471/47 476/437/47 477/417/47 478/425/47
f 501/440/49 505/477/49 506/478/49 507/479/49 508/480/49 509/481/49 510/482/49 502/421/49 503/420/49 504/439/49
f 511/421/47 515/482/47 516/481/47 517/480/47 518/479/47 519/478/47 520/477/47 512/440/47 513/439/47 514/420/47
f 465/452/57 476/451/57 484/483/77 469/484/77
f 469/484/77 484/483/77 483/485/76 470/486/76
f 470/486/76 483/485/76 482/487/75 471/488/75
f 471/488/75 482/487/75 481/489/74 472/490/74
f 472/491/74 481/492/74 480/493/73 473/494/73
f 473/494/73 480/493/73 479/495/72 474/496/72
f 474/496/72 479/495/72 475/431/53 466/432/53
f 485/436/59 494/435/59 500/497/78 487/498/78
f 487/498/78 500/497/78 499/499/79 488/500/79
f 488/500/79 499/499/79 498/501/80 489/502/80
f 489/502/80 498/501/80 497/503/81 490/504/81
f 490/505/81 497/506/81 496/507/82 491/508/82
f 491/508/82 496/507/82 495/509/83 492/510/83
f 492/510/83 495/509/83 493/430/58 486/429/58
f 501/432/55 512/431/55 520/495/65 505/496/65
f 505/496/65 520/495/65 519/493/64 506/494/64
f 506/494/64 519/493/64 518/492/63 507/491/63
f 507/511/63 518/512/63 517/513/62 508/514/62
f 508/514/62 517/513/62 516/515/61 509/516/61
f 509/516/61 516/515/61 515/517/60 510/518/60
f 510/518/60 515/517/60 511/454/56 502/453/56
f 521/456/54 530/455/54 536/519/66 523/520/66
f 523/520/66 536/519/66 535/521/67 524/522/67
f 524/522/67 535/521/67 534/523/68 525/524/68
f 525/524/68 534/523/68 533/525/69 526/526/69
f 526/506/69 533/505/69 532/508/70 527/507/70
f 527/507/70 532/508/70 531/510/71 528/509/71
f 528/509/71 531/510/71 529/429/52 522/430/52
f 468/417/49 467/425/49 450/424/49 493/450/49 495/449/49 496/448/49 497/447/49 498/446/49 499/445/49 500/444/49 494/443/49 451/418/49
f 537/281/46 538/282/46 540/283/46 539/284/46
f 539/285/47 540/286/47 544/287/47 543/288/47
f 543/284/48 544/283/48 542/282/48 541/281/48
f 541/288/49 542/287/49 538/286/49 537/285/49
f 539/289/50 543/290/50 541/291/50 537/292/50
f 561/293/47 564/294/47 547/295/47 549/296/47 599/297/47 598/298/47
f 547/290/51 548/291/51 550/299/51 549/300/51
f 544/287/47 540/286/47 546/301/47 563/302/47 562/303/47
f 540/283/46 538/282/46 545/304/46 546/305/46
f 546/305/46 545/304/46 582/306/52 589/307/52
f 608/308/53 597/309/53 553/310/46 554/311/46
f 547/290/51 590/312/54 581/313/54 548/291/51
f 548/295/49 573/294/49 572/314/49 607/298/49 610/297/49 550/296/49
f 542/282/48 544/283/48 562/309/55 571/308/55
f 552/315/49 609/316/49 608/317/49 554/318/49 556/319/49
f 545/301/49 574/302/49 573/294/49 548/295/49 581/320/49 583/321/49 584/322/49 585/323/49 586/324/49 587/325/49 588/326/49 582/327/49
f 538/286/49 542/287/49 571/303/49 574/302/49 545/301/49
f 572/328/56 561/329/56 598/330/57 607/331/57
f 552/304/48 551/305/48 618/307/58 625/306/58
f 597/317/47 600/316/47 551/315/47 555/319/47 553/318/47
f 549/300/51 550/299/51 626/332/59 617/333/59
f 554/311/46 553/310/46 557/334/46 558/335/46
f 551/305/48 552/304/48 556/311/48 555/310/48
f 550/296/49 610/297/49 609/316/49 552/315/49 625/336/49 627/337/49 628/338/49 629/339/49 630/340/49 631/341/49 632/342/49 626/343/49
f 600/316/47 599/297/47 549/296/47 617/343/47 619/342/47 620/341/47 621/340/47 622/339/47 623/338/47 624/337/47 618/336/47 551/315/47
f 558/299/50 557/300/50 559/344/50 560/345/50
f 553/318/47 555/319/47 559/346/47 557/347/47
f 555/310/48 556/311/48 560/335/48 559/334/48
f 556/319/49 554/318/49 558/347/49 560/346/49
f 561/293/47 565/348/47 566/349/47 567/350/47 568/351/47 569/352/47 570/353/47 562/303/47 563/302/47 564/294/47
f 571/303/49 575/353/49 576/352/49 577/351/49 578/350/49 579/349/49 580/348/49 572/314/49 573/294/49 574/302/49
f 597/317/47 601/354/47 602/355/47 603/356/47 604/357/47 605/358/47 606/359/47 598/298/47 599/297/47 600/316/47
f 607/298/49 611/359/49 612/358/49 613/357/49 614/356/49 615/355/49 616/354/49 608/317/49 609/316/49 610/297/49
f 561/329/56 572/328/56 580/360/60 565/361/60
f 565/361/60 580/360/60 579/362/61 566/363/61
f 566/363/61 579/362/61 578/364/62 567/365/62
f 567/365/62 578/364/62 577/366/63 568/367/63
f 568/368/63 577/369/63 576/370/64 569/371/64
f 569/371/64 576/370/64 575/372/65 570/373/65
f 570/373/65 575/372/65 571/308/55 562/309/55
f 581/313/54 590/312/54 596/374/66 583/375/66
f 583/375/66 596/374/66 595/376/67 584/377/67
f 584/377/67 595/376/67 594/378/68 585/379/68
f 585/379/68 594/378/68 593/380/69 586/381/69
f 586/382/69 593/383/69 592/384/70 587/385/70
f 587/385/70 592/384/70 591/386/71 588/387/71
f 588/387/71 591/386/71 589/307/52 582/306/52
f 597/309/53 608/308/53 616/372/72 601/373/72
f 601/373/72 616/372/72 615/370/73 602/371/73
f 602/371/73 615/370/73 614/369/74 603/368/74
f 603/388/74 614/389/74 613/390/75 604/391/75
f 604/391/75 613/390/75 612/392/76 605/393/76
f 605/393/76 612/392/76 611/394/77 606/395/77
f 606/395/77 611/394/77 607/331/57 598/330/57
f 617/333/59 626/332/59 632/396/78 619/397/78
f 619/397/78 632/396/78 631/398/79 620/399/79
f 620/399/79 631/398/79 630/400/80 621/401/80
f 621/401/80 630/400/80 629/402/81 622/403/81
f 622/383/81 629/382/81 628/385/82 623/384/82
f 623/384/82 628/385/82 627/387/83 624/386/83
f 624/386/83 627/387/83 625/306/58 618/307/58
f 564/294/47 563/302/47 546/301/47 589/327/47 591/326/47 592/325/47 593/324/47 594/323/47 595/322/47 596/321/47 590/320/47 547/295/47
s 0
f 633/527/50 634/528/50 636/529/50 635/530/50
f 637/527/51 639/530/51 640/529/51 638/528/51
f 633/531/46 635/532/46 639/533/46 637/534/46
f 634/535/47 633/536/47 637/537/47 638/538/47
f 636/532/48 634/531/48 638/534/48 640/533/48
f 635/536/49 636/535/49 640/538/49 639/537/49
f 641/539/50 642/540/50 644/541/50 643/542/50
f 645/539/51 647/542/51 648/541/51 646/540/51
f 641/536/46 643/535/46 647/538/46 645/537/46
f 642/535/47 641/536/47 645/537/47 646/538/47
f 644/535/48 642/536/48 646/537/48 648/538/48
f 643/536/49 644/535/49 648/538/49 647/537/49
f 649/543/50 650/544/50 652/545/50 651/546/50
f 653/543/51 655/546/51 656/545/51 654/544/51
f 649/547/46 651/548/46 655/549/46 653/550/46
f 650/535/47 649/551/47 653/552/47 654/538/47
f 652/548/48 650/547/48 654/550/48 656/549/48
f 651/551/49 652/535/49 656/538/49 655/552/49
f 657/527/50 658/528/50 660/529/50 659/530/50
f 661/527/51 663/530/51 664/529/51 662/528/51
f 657/531/46 659/532/46 663/533/46 661/534/46
f 658/535/47 657/536/47 661/537/47 662/538/47
f 660/532/48 658/531/48 662/534/48 664/533/48
f 659/536/49 660/535/49 664/538/49 663/537/49
f 665/539/50 666/540/50 668/541/50 667/542/50
f 669/539/51 671/542/51 672/541/51 670/540/51
f 665/536/46 667/535/46 671/538/46 669/537/46
f 666/535/47 665/536/47 669/537/47 670/538/47
f 668/535/48 666/536/48 670/537/48 672/538/48
f 667/536/49 668/535/49 672/538/49 671/537/49
f 673/543/50 674/544/50 676/545/50 675/546/50
f 677/543/51 679/546/51 680/545/51 678/544/51
f 673/547/46 675/548/46 679/549/46 677/550/46
f 674/535/47 673/551/47 677/552/47 678/538/47
f 676/548/48 674/547/48 678/550/48 680/549/48
f 675/551/49 676/535/49 680/538/49 679/552/49
f 681/553/50 682/554/50 684/555/50 683/556/50
f 685/553/51 687/556/51 688/555/51 686/554/51
f 681/557/46 683/558/46 687/559/46 685/560/46
f 682/561/47 681/562/47 685/563/47 686/564/47
f 684/558/48 682/557/48 686/560/48 688/559/48
f 683/562/49 684/561/49 688/564/49 687/563/49
f 689/565/50 690/566/50 692/567/50 691/568/50
f 693/565/51 695/568/51 696/567/51 694/566/51
f 689/562/46 691/561/46 695/564/46 693/563/46
f 690/561/47 689/562/47 693/563/47 694/564/47
f 692/561/48 690/562/48 694/563/48 696/564/48
f 691/562/49 692/561/49 696/564/49 695/563/49
f 697/569/50 698/570/50 700/571/50 699/572/50
f 701/569/51 703/572/51 704/571/51 702/570/51
f 697/573/46 699/574/46 703/575/46 701/576/46
f 698/561/47 697/577/47 701/578/47 702/564/47
f 700/574/48 698/573/48 702/576/48 704/575/48
f 699/577/49 700/561/49 704/564/49 703/578/49
